<svg xmlns="http://www.w3.org/2000/svg" width="1770" height="388" viewBox="0 0 1770 388" fill="none">
<g opacity="0.2">
<path d="M1316.47 14.9087C1315.92 14.9087 1315.47 14.2521 1315.47 13.4548V2.36263C1315.47 1.56531 1315.92 0.908691 1316.47 0.908691C1317.01 0.908691 1317.47 1.56531 1317.47 2.36263V13.4548C1317.47 14.2521 1317.01 14.9087 1316.47 14.9087Z" fill="white"/>
<path d="M1322.01 8.62376H1310.92C1310.12 8.62376 1309.47 8.1313 1309.47 7.54504C1309.47 6.95877 1310.12 6.46631 1310.92 6.46631H1322.01C1322.81 6.46631 1323.47 6.95877 1323.47 7.54504C1323.47 8.1313 1322.81 8.62376 1322.01 8.62376Z" fill="white"/>
</g>
<g opacity="0.2">
<path d="M354.297 107.305H402.566C410.864 107.305 417.602 100.561 417.602 92.2541C417.602 83.9474 410.864 77.2032 402.566 77.2032C400.55 77.2032 398.575 77.5987 396.757 78.3701C395.749 75.5023 393.991 72.9114 391.639 70.9138C388.478 68.2043 384.448 66.7012 380.279 66.7012C370.637 66.7012 362.793 74.553 362.793 84.2045C362.793 85.4505 363.8 86.4394 365.025 86.4394C366.25 86.4394 367.258 85.4307 367.258 84.2045C367.258 77.0252 373.087 71.1907 380.259 71.1907C386.641 71.1907 392.035 75.7792 393.082 82.0883L396.559 83.5716C398.337 82.3454 400.392 81.6927 402.546 81.6927C408.375 81.6927 413.097 86.4394 413.097 92.2541C413.097 98.0885 408.355 102.815 402.546 102.815H354.257C353.012 102.815 352.024 103.824 352.024 105.05C352.024 106.277 353.052 107.305 354.297 107.305Z" fill="white"/>
<path d="M340.506 98.128H384.172C385.416 98.128 386.404 97.1193 386.404 95.8931C386.404 94.6471 385.397 93.6582 384.172 93.6582H340.506C339.262 93.6582 338.274 94.6669 338.274 95.8931C338.274 97.1391 339.281 98.128 340.506 98.128Z" fill="white"/>
</g>
<g opacity="0.05" clip-path="url(#clip0_208_13)">
<path d="M1322.65 190.057H1474.41L1476.65 192.292V209.676L1474.41 211.911H1467.5V376.403L1465.27 378.638H1331.84L1329.61 376.403V211.931H1322.69L1320.46 209.696V192.311L1322.65 190.057ZM1334.05 374.168H1462.99V365.822H1334.05V374.168ZM1334.05 361.352H1462.99V353.006H1334.05V361.352ZM1334.05 348.516H1462.99V340.17H1334.05V348.516ZM1334.05 335.7H1462.99V327.354H1334.05V335.7ZM1334.05 322.864H1462.99V314.518H1334.05V322.864ZM1334.05 310.048H1462.99V301.702H1334.05V310.048ZM1334.05 297.213H1462.99V288.866H1334.05V297.213ZM1334.05 284.397H1462.99V276.05H1334.05V284.397ZM1334.05 271.561H1462.99V263.215H1334.05V271.561ZM1334.05 258.745H1462.99V250.399H1334.05V258.745ZM1334.05 245.909H1462.99V237.563H1334.05V245.909ZM1334.05 233.093H1462.99V224.747H1334.05V233.093ZM1334.05 220.257H1462.99V211.931H1334.05V220.257ZM1324.88 207.441H1331.8H1465.23H1472.14V194.546H1324.86V207.441H1324.88Z" fill="white"/>
<path d="M1489.65 190.057H1641.41L1643.64 192.292V209.676L1641.41 211.911H1634.49V257.756C1634.49 259.002 1633.48 259.991 1632.26 259.991C1631.03 259.991 1630.03 258.982 1630.03 257.756V237.563H1501.09V376.403C1501.09 377.649 1500.08 378.638 1498.85 378.638C1497.63 378.638 1496.62 377.629 1496.62 376.403V211.931H1489.7L1487.47 209.696V192.311L1489.65 190.057ZM1630.01 233.093V224.747H1501.07V233.093H1630.01ZM1501.07 220.257H1630.01V211.931H1501.07V220.257ZM1491.9 207.441H1498.81H1632.24H1639.15V194.546H1491.88V207.441H1491.9Z" fill="white"/>
<path fill-rule="evenodd" clip-rule="evenodd" d="M1500.96 143.579H1268.23L1266 141.344V139.104H1270.47V139.109H1498.71V96.4088H1326.89V91.939H1500.96L1503.2 94.1739V141.344L1500.96 143.579Z" fill="white"/>
<path fill-rule="evenodd" clip-rule="evenodd" d="M1698.2 139.104V141.344L1695.96 143.579H1463.23L1461 141.344V94.1739L1463.23 91.939H1643.92V96.4088H1465.47V139.109H1693.71V139.104H1698.2Z" fill="white"/>
<path d="M1268.06 115.514H1365.66C1366.91 115.514 1367.9 116.523 1367.9 117.749C1367.9 118.995 1366.89 119.984 1365.66 119.984H1270.29V154.041H1281.16H1682.9H1693.77V120.004H1598.39C1597.15 120.004 1596.16 118.995 1596.16 117.769C1596.16 116.523 1597.17 115.534 1598.39 115.534H1696L1698.23 117.769V156.316L1696 158.551H1685.13V257.479C1685.13 258.725 1684.12 259.714 1682.9 259.714C1681.67 259.714 1680.67 258.705 1680.67 257.479V158.551H1283.41V374.168H1682.92C1684.16 374.168 1685.15 375.177 1685.15 376.403C1685.15 377.629 1684.14 378.638 1682.92 378.638H1281.18L1278.95 376.403V158.551H1268.08L1265.85 156.316V117.749L1268.06 115.514Z" fill="white"/>
<rect x="1265.25" y="108.335" width="432.981" height="30.7688" fill="#7700D1"/>
<rect x="1353.69" y="96.3403" width="311.664" height="29.8199" fill="#7700D1"/>
<path fill-rule="evenodd" clip-rule="evenodd" d="M1366.19 139.104V139.396H1361.84V139.104H1366.19ZM1330.14 96.3441V91.9878C1329.49 91.9554 1328.85 91.939 1328.19 91.939H1303.85C1282.86 91.939 1265.85 108.952 1265.85 129.939V139.396H1270.2V129.939C1270.2 111.355 1285.26 96.289 1303.85 96.289H1328.19C1328.85 96.289 1329.49 96.3075 1330.14 96.3441Z" fill="white"/>
<path fill-rule="evenodd" clip-rule="evenodd" d="M1597.88 139.104V139.396H1602.23V139.104H1597.88ZM1633.94 96.3441V91.9878C1634.58 91.9554 1635.23 91.939 1635.88 91.939H1660.23C1681.22 91.939 1698.23 108.952 1698.23 129.939V139.396H1693.88V129.939C1693.88 111.355 1678.82 96.289 1660.23 96.289H1635.88C1635.23 96.289 1634.58 96.3075 1633.94 96.3441Z" fill="white"/>
<path fill-rule="evenodd" clip-rule="evenodd" d="M1586.02 305.407V266.59H1590.7V305.407H1586.02ZM1598.09 315.636V310.97H1637.7V315.636H1598.09ZM1649.77 266.59H1645.11V305.407H1649.77L1649.77 266.59ZM1632.95 251.822H1602.99V256.508H1632.95V251.822Z" fill="white"/>
<path fill-rule="evenodd" clip-rule="evenodd" d="M1603.72 278.148H1612.89H1622.63H1631.8L1634.22 275.792V257.388C1634.22 256.088 1633.13 255.032 1631.8 255.032C1630.46 255.032 1629.38 256.088 1629.38 257.388V273.395H1622.63H1612.89H1606.14V257.388C1606.14 256.088 1605.05 255.032 1603.72 255.032C1602.38 255.032 1601.29 256.088 1601.29 257.388V275.792L1603.72 278.148Z" fill="white"/>
<path fill-rule="evenodd" clip-rule="evenodd" d="M1604.7 256.91V251.88C1604.27 251.841 1603.83 251.822 1603.38 251.822H1600.71C1592.6 251.822 1586.02 258.397 1586.02 266.507L1586.02 266.59H1591.02C1591.02 266.562 1591.02 266.535 1591.02 266.507C1591.02 261.158 1595.36 256.822 1600.71 256.822H1603.38C1603.83 256.822 1604.27 256.852 1604.7 256.91Z" fill="white"/>
<path fill-rule="evenodd" clip-rule="evenodd" d="M1631.09 256.882V251.861C1631.45 251.835 1631.81 251.822 1632.18 251.822H1635.41C1643.52 251.822 1650.1 258.397 1650.1 266.507L1650.1 266.59H1645.1C1645.1 266.562 1645.1 266.535 1645.1 266.507C1645.1 261.158 1640.76 256.822 1635.41 256.822H1632.18C1631.81 256.822 1631.45 256.842 1631.09 256.882Z" fill="white"/>
<path fill-rule="evenodd" clip-rule="evenodd" d="M1627.61 310.936V315.636H1637.14C1644.12 315.636 1649.77 309.981 1649.77 303.006L1649.77 302.935H1645.07C1645.07 302.959 1645.07 302.983 1645.07 303.006C1645.07 307.386 1641.52 310.936 1637.14 310.936H1627.61Z" fill="white"/>
<path fill-rule="evenodd" clip-rule="evenodd" d="M1608.19 310.936V315.636H1598.65C1591.68 315.636 1586.02 309.981 1586.02 303.006L1586.02 302.935H1590.72C1590.72 302.959 1590.72 302.983 1590.72 303.006C1590.72 307.386 1594.27 310.936 1598.65 310.936H1608.19Z" fill="white"/>
<path fill-rule="evenodd" clip-rule="evenodd" d="M1555.48 368.407V329.59H1560.16V368.407H1555.48ZM1567.55 378.636V373.97H1607.16V378.636H1567.55ZM1619.23 329.59H1614.57V368.407H1619.23L1619.23 329.59ZM1602.41 314.822H1572.45V319.508H1602.41V314.822Z" fill="white"/>
<path fill-rule="evenodd" clip-rule="evenodd" d="M1573.18 341.148H1582.35H1592.09H1601.26L1603.68 338.792V320.388C1603.68 319.088 1602.59 318.032 1601.26 318.032C1599.92 318.032 1598.84 319.088 1598.84 320.388V336.395H1592.09H1582.35H1575.6V320.388C1575.6 319.088 1574.51 318.032 1573.18 318.032C1571.84 318.032 1570.75 319.088 1570.75 320.388V338.792L1573.18 341.148Z" fill="white"/>
<path fill-rule="evenodd" clip-rule="evenodd" d="M1574.16 319.91V314.88C1573.73 314.841 1573.29 314.822 1572.84 314.822H1570.17C1562.06 314.822 1555.48 321.397 1555.48 329.507L1555.48 329.59H1560.48C1560.48 329.562 1560.48 329.535 1560.48 329.507C1560.48 324.158 1564.82 319.822 1570.17 319.822H1572.84C1573.29 319.822 1573.73 319.852 1574.16 319.91Z" fill="white"/>
<path fill-rule="evenodd" clip-rule="evenodd" d="M1600.55 319.88V314.86C1600.91 314.835 1601.27 314.822 1601.63 314.822H1604.89C1613 314.822 1619.57 321.397 1619.57 329.507L1619.57 329.59H1614.57C1614.57 329.562 1614.57 329.535 1614.57 329.507C1614.57 324.158 1610.24 319.822 1604.89 319.822H1601.63C1601.27 319.822 1600.91 319.842 1600.55 319.88Z" fill="white"/>
<path fill-rule="evenodd" clip-rule="evenodd" d="M1597.07 373.936V378.636H1606.6C1613.58 378.636 1619.23 372.981 1619.23 366.006L1619.23 365.935H1614.53C1614.53 365.959 1614.53 365.983 1614.53 366.006C1614.53 370.386 1610.98 373.936 1606.6 373.936H1597.07Z" fill="white"/>
<path fill-rule="evenodd" clip-rule="evenodd" d="M1577.65 373.936V378.636H1568.11C1561.14 378.636 1555.48 372.981 1555.48 366.006L1555.48 365.935H1560.18C1560.18 365.959 1560.18 365.983 1560.18 366.006C1560.18 370.386 1563.73 373.936 1568.11 373.936H1577.65Z" fill="white"/>
<path fill-rule="evenodd" clip-rule="evenodd" d="M1645.47 305.407V266.59H1650.15V305.407H1645.47ZM1657.54 315.636V310.97H1697.15V315.636H1657.54ZM1709.22 266.59H1704.56V305.407H1709.22L1709.22 266.59ZM1692.4 251.822H1662.44V256.508H1692.4V251.822Z" fill="white"/>
<path fill-rule="evenodd" clip-rule="evenodd" d="M1663.16 278.148H1672.34H1682.08H1691.25L1693.67 275.792V257.388C1693.67 256.088 1692.58 255.032 1691.25 255.032C1689.91 255.032 1688.83 256.088 1688.83 257.388V273.395H1682.08H1672.34H1665.59V257.388C1665.59 256.088 1664.5 255.032 1663.16 255.032C1661.83 255.032 1660.74 256.088 1660.74 257.388V275.792L1663.16 278.148Z" fill="white"/>
<path fill-rule="evenodd" clip-rule="evenodd" d="M1664.15 256.879V251.859C1663.8 251.834 1663.45 251.822 1663.09 251.822H1659.8C1651.69 251.822 1645.12 258.397 1645.12 266.507L1645.12 266.59H1650.12C1650.12 266.562 1650.12 266.535 1650.12 266.507C1650.12 261.158 1654.45 256.822 1659.8 256.822H1663.09C1663.45 256.822 1663.8 256.841 1664.15 256.879Z" fill="white"/>
<path fill-rule="evenodd" clip-rule="evenodd" d="M1690.54 256.91V251.88C1690.98 251.841 1691.42 251.822 1691.86 251.822H1694.54C1702.65 251.822 1709.22 258.397 1709.22 266.507L1709.22 266.59H1704.22C1704.22 266.562 1704.22 266.535 1704.22 266.507C1704.22 261.158 1699.89 256.822 1694.54 256.822H1691.86C1691.41 256.822 1690.97 256.852 1690.54 256.91Z" fill="white"/>
<path fill-rule="evenodd" clip-rule="evenodd" d="M1687.06 310.936V315.636H1696.59C1703.57 315.636 1709.22 309.981 1709.22 303.006L1709.22 302.935H1704.52C1704.52 302.959 1704.52 302.983 1704.52 303.006C1704.52 307.386 1700.97 310.936 1696.59 310.936H1687.06Z" fill="white"/>
<path fill-rule="evenodd" clip-rule="evenodd" d="M1667.64 310.936V315.636H1658.1C1651.13 315.636 1645.47 309.981 1645.47 303.006L1645.47 302.935H1650.17C1650.17 302.959 1650.17 302.983 1650.17 303.006C1650.17 307.386 1653.72 310.936 1658.1 310.936H1667.64Z" fill="white"/>
<rect x="1670.97" y="256.441" width="16.8584" height="16.9554" fill="#7700D1"/>
<rect x="1670.97" y="278.148" width="22.6959" height="32.6528" fill="#7700D1"/>
<path fill-rule="evenodd" clip-rule="evenodd" d="M1614.93 368.407V329.59H1619.61V368.407H1614.93ZM1627 378.636V373.97H1666.61V378.636H1627ZM1678.68 329.59H1674.02V368.407H1678.68L1678.68 329.59ZM1661.86 314.822H1631.9V319.508H1661.86V314.822Z" fill="white"/>
<path fill-rule="evenodd" clip-rule="evenodd" d="M1632.62 341.148H1641.8H1651.54H1660.71L1663.13 338.792V320.388C1663.13 319.088 1662.04 318.032 1660.71 318.032C1659.37 318.032 1658.29 319.088 1658.29 320.388V336.395H1651.54H1641.8H1635.05V320.388C1635.05 319.088 1633.96 318.032 1632.62 318.032C1631.29 318.032 1630.2 319.088 1630.2 320.388V338.792L1632.62 341.148Z" fill="white"/>
<path fill-rule="evenodd" clip-rule="evenodd" d="M1633.61 319.91V314.88C1633.18 314.841 1632.74 314.822 1632.29 314.822H1629.32C1621.21 314.822 1614.63 321.397 1614.63 329.507L1614.63 329.59H1619.63C1619.63 329.562 1619.63 329.535 1619.63 329.507C1619.63 324.158 1623.97 319.822 1629.32 319.822H1632.29C1632.74 319.822 1633.18 319.852 1633.61 319.91Z" fill="white"/>
<path fill-rule="evenodd" clip-rule="evenodd" d="M1660 319.91V314.88C1660.44 314.841 1660.88 314.822 1661.32 314.822H1664.33C1672.44 314.822 1679.02 321.397 1679.02 329.507L1679.02 329.59H1674.02C1674.02 329.562 1674.02 329.535 1674.02 329.507C1674.02 324.158 1669.68 319.822 1664.33 319.822H1661.32C1660.87 319.822 1660.43 319.852 1660 319.91Z" fill="white"/>
<path fill-rule="evenodd" clip-rule="evenodd" d="M1656.52 373.936V378.636H1666.05C1673.03 378.636 1678.68 372.981 1678.68 366.006L1678.68 365.935H1673.98C1673.98 365.959 1673.98 365.983 1673.98 366.006C1673.98 370.386 1670.43 373.936 1666.05 373.936H1656.52Z" fill="white"/>
<path fill-rule="evenodd" clip-rule="evenodd" d="M1637.1 373.936V378.636H1627.56C1620.59 378.636 1614.93 372.981 1614.93 366.006L1614.93 365.935H1619.63C1619.63 365.959 1619.63 365.983 1619.63 366.006C1619.63 370.386 1623.18 373.936 1627.56 373.936H1637.1Z" fill="white"/>
<path fill-rule="evenodd" clip-rule="evenodd" d="M1674.94 368.407V329.59H1679.62V368.407H1674.94ZM1687.01 378.636V373.97H1726.62V378.636H1687.01ZM1738.69 329.59H1734.03V368.407H1738.69L1738.69 329.59ZM1721.87 314.822H1691.91V319.508H1721.87V314.822Z" fill="white"/>
<path fill-rule="evenodd" clip-rule="evenodd" d="M1692.64 341.148H1701.81H1711.55H1720.72L1723.14 338.792V320.388C1723.14 319.088 1722.05 318.032 1720.72 318.032C1719.38 318.032 1718.3 319.088 1718.3 320.388V336.395H1711.55H1701.81H1695.06V320.388C1695.06 319.088 1693.97 318.032 1692.64 318.032C1691.3 318.032 1690.21 319.088 1690.21 320.388V338.792L1692.64 341.148Z" fill="white"/>
<path fill-rule="evenodd" clip-rule="evenodd" d="M1693.62 319.91V314.88C1693.19 314.841 1692.75 314.822 1692.3 314.822H1689.33C1681.22 314.822 1674.65 321.397 1674.65 329.507L1674.65 329.59H1679.65C1679.65 329.562 1679.65 329.535 1679.65 329.507C1679.65 324.158 1683.98 319.822 1689.33 319.822H1692.3C1692.75 319.822 1693.19 319.852 1693.62 319.91Z" fill="white"/>
<path fill-rule="evenodd" clip-rule="evenodd" d="M1720.01 319.91V314.88C1720.45 314.841 1720.89 314.822 1721.33 314.822H1724.01C1732.12 314.822 1738.69 321.397 1738.69 329.507L1738.69 329.59H1733.69C1733.69 329.562 1733.69 329.535 1733.69 329.507C1733.69 324.158 1729.36 319.822 1724.01 319.822H1721.33C1720.88 319.822 1720.45 319.852 1720.01 319.91Z" fill="white"/>
<path fill-rule="evenodd" clip-rule="evenodd" d="M1716.53 373.936V378.636H1726.06C1733.04 378.636 1738.69 372.981 1738.69 366.006L1738.69 365.935H1733.99C1733.99 365.959 1733.99 365.983 1733.99 366.006C1733.99 370.386 1730.44 373.936 1726.06 373.936H1716.53Z" fill="white"/>
<path fill-rule="evenodd" clip-rule="evenodd" d="M1697.11 373.936V378.636H1687.57C1680.6 378.636 1674.94 372.981 1674.94 366.006L1674.94 365.935H1679.64C1679.64 365.959 1679.64 365.983 1679.64 366.006C1679.64 370.386 1683.19 373.936 1687.57 373.936H1697.11Z" fill="white"/>
</g>
<g opacity="0.05">
<path d="M135.353 264.668C129.711 253.907 124.131 246.773 123.887 246.471H120.072C119.848 246.773 114.268 253.907 108.626 264.668C103.37 274.643 97.1189 289.736 97.1189 304.91C97.1189 313.052 99.6557 320.568 104.262 326.029C108.342 330.886 113.699 333.808 119.585 334.432V374.957C119.585 376.287 120.66 377.355 122 377.355C123.339 377.355 124.415 376.287 124.415 374.957V334.453C130.28 333.828 135.658 330.886 139.737 326.049C144.323 320.568 146.84 313.052 146.84 304.91C146.84 289.736 140.589 274.643 135.353 264.668ZM124.394 329.616V295.278C124.394 293.948 123.319 292.88 121.979 292.88C120.64 292.88 119.564 293.948 119.564 295.278V329.616C109.377 328.226 101.949 318.069 101.949 304.91C101.949 290.744 107.875 276.456 112.847 266.965C116.338 260.295 119.869 254.995 121.979 252.033C127.317 259.589 142.01 282.461 142.01 304.931C142.01 318.069 134.602 328.226 124.394 329.616Z" fill="white"/>
<path d="M204.618 264.668C198.976 253.907 193.395 246.773 193.172 246.471H189.356C189.113 246.773 183.552 253.907 177.89 264.668C172.654 274.663 166.383 289.756 166.383 304.931C166.383 313.072 168.92 320.588 173.527 326.049C177.606 330.906 182.964 333.828 188.849 334.453V374.977C188.849 376.308 189.924 377.376 191.264 377.376C192.603 377.376 193.679 376.308 193.679 374.977V334.453C199.544 333.828 204.922 330.886 209.001 326.049C213.608 320.568 216.145 313.072 216.145 304.931C216.124 289.736 209.874 274.643 204.618 264.668ZM193.679 329.616V295.278C193.679 293.948 192.603 292.88 191.264 292.88C189.924 292.88 188.849 293.948 188.849 295.278V329.616C178.661 328.226 171.234 318.069 171.234 304.91C171.234 290.744 177.159 276.456 182.132 266.965C185.622 260.295 189.153 254.995 191.264 252.033C196.601 259.589 211.294 282.461 211.294 304.931C211.294 318.069 203.867 328.226 193.679 329.616Z" fill="white"/>
</g>
<defs>
<clipPath id="clip0_208_13">
<rect width="537" height="311" fill="white" transform="matrix(-1 0 0 1 1770 66.2056)"/>
</clipPath>
</defs>
</svg>