<svg width="292" height="144" viewBox="0 0 292 144" fill="none" xmlns="http://www.w3.org/2000/svg">
<path d="M191.489 3.59351H62.0361V99.3088H191.489V3.59351Z" fill="#7700D1"/>
<path d="M167.599 34.1797L228.506 36.388L250.939 57.9406L282.081 88.6176L287.247 96.3261L289.313 104.978L287.247 119.264L275.003 120.968L271.767 121.942L167.599 124.427V34.1797Z" fill="#7700D1"/>
<path d="M19.4047 56.7538H2.06008C0.930357 56.7538 0 55.8177 0 54.6811C0 53.5444 0.930357 52.6084 2.06008 52.6084H19.4047C20.5344 52.6084 21.4647 53.5444 21.4647 54.6811C21.4647 55.8512 20.5344 56.7538 19.4047 56.7538Z" fill="white"/>
<path d="M37.7132 34.9568H20.3687C19.2389 34.9568 18.3086 34.0207 18.3086 32.884C18.3086 31.7474 19.2389 30.8113 20.3687 30.8113H37.7132C38.843 30.8113 39.7734 31.7474 39.7734 32.884C39.7734 34.0207 38.843 34.9568 37.7132 34.9568Z" fill="white"/>
<path d="M37.7132 78.5844H20.3687C19.2389 78.5844 18.3086 77.6484 18.3086 76.5117C18.3086 75.375 19.2389 74.439 20.3687 74.439H37.7132C38.843 74.439 39.7734 75.375 39.7734 76.5117C39.7734 77.6484 38.843 78.5844 37.7132 78.5844Z" fill="white"/>
<path d="M289.144 103.859C289.078 103.859 289.011 103.859 288.945 103.859C276.419 102.521 268.045 87.4771 267.68 86.8417L269.374 83.9666H282.731C283.795 83.9666 284.659 84.8363 284.659 85.9061C284.659 86.9759 283.795 87.8448 282.731 87.8448H272.896C275.787 91.9907 281.868 99.2119 289.344 100.014C290.407 100.114 291.171 101.084 291.071 102.154C290.938 103.123 290.108 103.859 289.144 103.859Z" fill="white"/>
<path d="M280.107 122.982H271.7C270.637 122.982 269.773 122.112 269.773 121.042C269.773 119.972 270.637 119.103 271.7 119.103H280.107C284.526 119.103 288.114 115.493 288.114 111.047V99.8464C288.114 94.9325 284.825 88.2792 280.971 85.3041L280.838 85.204L230.698 39.1355C227.973 37.0962 226.345 37.0962 222.524 37.1631C221.859 37.1631 221.128 37.1965 220.364 37.1965H194.281C193.217 37.1965 192.354 36.3273 192.354 35.2575C192.354 34.1876 193.217 33.3184 194.281 33.3184H220.364C221.128 33.3184 221.826 33.3184 222.49 33.285C226.578 33.2181 229.269 33.1847 233.09 36.0932L233.223 36.1935L283.363 82.2288C288.181 85.9728 291.969 93.6951 291.969 99.8131V111.013C292.002 117.599 286.652 122.982 280.107 122.982Z" fill="white"/>
<path d="M230.531 122.981H193.416C192.353 122.981 191.489 122.112 191.489 121.042C191.489 119.972 192.353 119.103 193.416 119.103H230.531C231.595 119.103 232.458 119.972 232.458 121.042C232.458 122.112 231.595 122.981 230.531 122.981Z" fill="white"/>
<path d="M251.098 143.742C238.704 143.742 228.604 133.579 228.604 121.109C228.604 108.639 238.704 98.4755 251.098 98.4755C263.492 98.4755 273.593 108.639 273.593 121.109C273.627 133.579 263.525 143.742 251.098 143.742ZM251.098 102.354C240.831 102.354 232.458 110.779 232.458 121.109C232.458 131.439 240.831 139.864 251.098 139.864C261.366 139.864 269.739 131.439 269.739 121.109C269.739 110.779 261.399 102.354 251.098 102.354Z" fill="white"/>
<path d="M251.098 132.241C244.984 132.241 240.033 127.26 240.033 121.109C240.033 114.957 244.984 109.976 251.098 109.976C257.212 109.976 262.163 114.957 262.163 121.109C262.163 127.26 257.212 132.241 251.098 132.241ZM251.098 113.854C247.11 113.854 243.888 117.097 243.888 121.109C243.888 125.12 247.11 128.363 251.098 128.363C255.085 128.363 258.308 125.12 258.308 121.109C258.308 117.097 255.085 113.854 251.098 113.854Z" fill="white"/>
<path d="M231.728 102.354H204.614C203.551 102.354 202.687 101.485 202.687 100.415C202.687 99.3452 203.551 98.4755 204.614 98.4755H231.728C232.791 98.4755 233.655 99.3452 233.655 100.415C233.655 101.485 232.791 102.354 231.728 102.354Z" fill="white"/>
<path d="M257.644 75.1746H204.614L202.687 73.2355V44.3843L204.614 42.4453H227.142L228.471 42.9801L258.974 71.8314L257.644 75.1746ZM206.541 71.2966H252.793L226.377 46.3233H206.541V71.2966Z" fill="white"/>
<path d="M193.317 121.845C192.253 121.845 191.39 120.975 191.39 119.906V35.4915C191.39 34.4217 192.253 33.5525 193.317 33.5525C194.38 33.5525 195.244 34.4217 195.244 35.4915V119.906C195.244 120.975 194.38 121.845 193.317 121.845Z" fill="white"/>
<path d="M208.07 122.981H131.713C130.65 122.981 129.786 122.112 129.786 121.042C129.786 119.972 130.65 119.103 131.713 119.103H208.07C209.133 119.103 209.997 119.972 209.997 121.042C209.997 122.112 209.133 122.981 208.07 122.981Z" fill="white"/>
<path d="M90.5788 122.981H87.7212C81.5406 122.981 76.5234 117.933 76.5234 111.715V100.415C76.5234 99.3452 77.3874 98.4755 78.4506 98.4755C79.5139 98.4755 80.3778 99.3452 80.3778 100.415V111.715C80.3778 115.793 83.6673 119.103 87.7212 119.103H90.5788C91.6421 119.103 92.506 119.972 92.506 121.042C92.506 122.112 91.6421 122.981 90.5788 122.981Z" fill="white"/>
<path d="M111.146 143.742C98.7521 143.742 88.6514 133.579 88.6514 121.109C88.6514 108.639 98.7521 98.4755 111.146 98.4755C123.54 98.4755 133.64 108.639 133.64 121.109C133.64 133.579 123.54 143.742 111.146 143.742ZM111.146 102.354C100.879 102.354 92.5058 110.779 92.5058 121.109C92.5058 131.439 100.879 139.864 111.146 139.864C121.413 139.864 129.786 131.439 129.786 121.109C129.786 110.779 121.413 102.354 111.146 102.354Z" fill="white"/>
<path d="M111.145 132.241C105.032 132.241 100.081 127.26 100.081 121.109C100.081 114.957 105.032 109.976 111.145 109.976C117.26 109.976 122.21 114.957 122.21 121.109C122.21 127.26 117.226 132.241 111.145 132.241ZM111.145 113.854C107.158 113.854 103.935 117.097 103.935 121.109C103.935 125.12 107.158 128.363 111.145 128.363C115.133 128.363 118.355 125.12 118.355 121.109C118.355 117.097 115.1 113.854 111.145 113.854Z" fill="white"/>
<path d="M271.638 119.921V122.163H278.705V119.921H271.638Z" fill="white"/>
<path d="M206.484 119.921V122.163H229.734V119.921H206.484Z" fill="white"/>
<path d="M131.934 119.921V122.163H155.184V119.921H131.934Z" fill="white"/>
<path d="M216.11 60.7321C215.678 60.7321 215.213 60.5649 214.848 60.264C214.05 59.5619 213.951 58.3584 214.648 57.5226L226.344 43.7155C227.042 42.9132 228.238 42.8128 229.069 43.5149C229.866 44.217 229.966 45.4205 229.268 46.2562L217.572 60.0634C217.206 60.5314 216.642 60.7321 216.11 60.7321Z" fill="white"/>
<path d="M216.808 75.1747C216.376 75.1747 215.911 75.0075 215.546 74.7066C214.749 74.0045 214.649 72.801 215.346 71.9653L228.571 56.3528C229.268 55.5505 230.465 55.4502 231.295 56.1522C232.093 56.8543 232.192 58.0578 231.495 58.8936L218.304 74.506C217.905 74.9406 217.373 75.1747 216.808 75.1747Z" fill="white"/>
<path d="M213.553 80.4231H204.614V84.3009H213.553V80.4231Z" fill="white"/>
<path fill-rule="evenodd" clip-rule="evenodd" d="M60.0693 29.5295V100.415L61.9965 102.354H193.675L195.602 100.415V29.5295H191.748V98.4764H63.9237V29.5295H60.0693ZM96.4498 4.4337H157.356V0.555664H96.4498V4.4337Z" fill="white"/>
<path d="M284.285 87.028V84.7858H279.985V87.028H284.285Z" fill="white"/>
<path d="M290.576 102.921V100.652H288.02V102.921H290.576Z" fill="white"/>
<path d="M222.043 74.3609V72.1208H214.88V74.3609H222.043Z" fill="white"/>
<path d="M91.1941 44.2604C92.3711 44.2604 93.2625 44.5806 93.8667 45.221C94.4816 45.8506 94.789 46.7787 94.789 48.0052V51.9128C94.789 53.1394 94.4816 54.0729 93.8667 54.7133C93.2625 55.3428 92.3711 55.6576 91.1941 55.6576H85.0986V44.2604H91.1941ZM91.9752 48.0052C91.9752 47.0283 91.5064 46.5399 90.5688 46.5399H87.9116V53.3782H90.5688C91.5064 53.3782 91.9752 52.8897 91.9752 51.9128V48.0052Z" fill="white"/>
<path d="M103.849 47.354C103.849 46.7028 103.537 46.3771 102.912 46.3771H100.254C99.629 46.3771 99.3167 46.7028 99.3167 47.354V52.5642C99.3167 53.2155 99.629 53.541 100.254 53.541H102.912C103.537 53.541 103.849 53.2155 103.849 52.5642V47.354ZM106.663 52.5642C106.663 53.7039 106.412 54.5342 105.913 55.0553C105.423 55.5654 104.631 55.8206 103.537 55.8206H99.629C98.5348 55.8206 97.7383 55.5654 97.2378 55.0553C96.7479 54.5342 96.5029 53.7039 96.5029 52.5642V47.354C96.5029 46.2143 96.7479 45.3893 97.2378 44.8792C97.7383 44.3582 98.5348 44.0977 99.629 44.0977H103.537C104.631 44.0977 105.423 44.3582 105.913 44.8792C106.412 45.3893 106.663 46.2143 106.663 47.354V52.5642Z" fill="white"/>
<path d="M108.375 53.2968C111.23 53.4596 113.163 53.541 114.173 53.541C114.413 53.541 114.601 53.4704 114.736 53.3294C114.882 53.1774 114.955 52.9766 114.955 52.7269V51.2615H111.36C110.266 51.2615 109.469 51.0065 108.968 50.4963C108.479 49.9753 108.234 49.1449 108.234 48.0052V47.5167C108.234 46.377 108.479 45.5521 108.968 45.042C109.469 44.521 110.266 44.2604 111.36 44.2604H116.846V46.5399H111.985C111.36 46.5399 111.047 46.8655 111.047 47.5167V47.8424C111.047 48.4936 111.36 48.8193 111.985 48.8193H114.799C115.82 48.8193 116.57 49.0689 117.05 49.5683C117.529 50.0676 117.768 50.8491 117.768 51.9128V52.7269C117.768 53.7906 117.529 54.5722 117.05 55.0715C116.57 55.5708 115.82 55.8205 114.799 55.8205C114.267 55.8205 113.705 55.8096 113.111 55.7879L111.673 55.7228C110.61 55.6685 109.51 55.5925 108.375 55.4948V53.2968Z" fill="white"/>
<path d="M124.178 55.6576H121.364V46.5399H118.082V44.2604H127.46V46.5399H124.178V55.6576Z" fill="white"/>
<path d="M129.88 55.6576H126.832L130.974 44.2604H134.1L138.242 55.6576H135.194L134.491 53.6224H130.583L129.88 55.6576ZM131.287 51.5058H133.787L132.537 47.6796L131.287 51.5058Z" fill="white"/>
<path d="M143.004 52.2385L145.661 44.2604H148.709L144.567 55.6576H141.441L137.299 44.2604H140.347L143.004 52.2385Z" fill="white"/>
<path d="M158.634 55.6576H149.959V44.2604H158.634V46.5399H152.772V48.7379H157.383V51.0173H152.772V53.3782H158.634V55.6576Z" fill="white"/>
<path d="M160.349 44.2604H166.913C168.007 44.2604 168.799 44.521 169.289 45.042C169.789 45.5521 170.039 46.377 170.039 47.5167V48.9821C170.039 49.883 169.893 50.5832 169.602 51.0825C169.32 51.5818 168.867 51.9128 168.242 52.0757L170.196 55.6576H167.147L165.35 52.2385H163.162V55.6576H160.349V44.2604ZM167.226 47.5167C167.226 46.8655 166.913 46.5399 166.288 46.5399H163.162V49.959H166.288C166.913 49.959 167.226 49.6334 167.226 48.9821V47.5167Z" fill="white"/>
<path d="M198.658 36.3732V34.1309H192.547V36.3732H198.658Z" fill="white"/>
<path d="M194.445 99.7372H192.21V120.823H194.445V99.7372Z" fill="white"/>
<path fill-rule="evenodd" clip-rule="evenodd" d="M143.916 4.46075H165.571C179.937 4.46075 191.599 16.0714 191.738 30.4472H195.632C195.492 13.9145 182.087 0.555664 165.571 0.555664H143.916C142.596 0.555664 141.295 0.641087 140.02 0.806724H143.167V4.47129C143.416 4.46428 143.666 4.46075 143.916 4.46075Z" fill="white"/>
<path fill-rule="evenodd" clip-rule="evenodd" d="M111.785 4.46075H90.1304C75.7645 4.46075 64.1025 16.0714 63.9628 30.4472H60.0693C60.2091 13.9145 73.6142 0.555664 90.1304 0.555664H111.785C113.106 0.555664 114.406 0.641087 115.682 0.806724H112.534V4.47129C112.285 4.46428 112.035 4.46075 111.785 4.46075Z" fill="white"/>
</svg>
