<svg xmlns="http://www.w3.org/2000/svg" width="323" height="404" viewBox="0 0 323 404" fill="none">
<g opacity="0.2">
<path d="M2.23297 166.588H45.8982C47.1429 166.588 48.1309 165.579 48.1309 164.353C48.1309 163.107 47.1232 162.118 45.8982 162.118H2.23297C0.988216 162.118 0.000305176 163.127 0.000305176 164.353C0.000305176 165.579 1.00798 166.588 2.23297 166.588Z" fill="white"/>
<path d="M20.984 175.765H69.2727C77.5711 175.765 84.3086 169.021 84.3086 160.714C84.3086 152.407 77.5711 145.663 69.2727 145.663C67.2574 145.663 65.2816 146.059 63.4638 146.83C62.4562 143.962 60.6977 141.371 58.3465 139.374C55.1852 136.664 51.1546 135.161 46.9856 135.161C41.1175 135.161 35.7038 138.148 32.4832 142.874C30.6852 140.877 27.6622 138.82 22.861 138.82C15.6493 138.82 9.80096 144.694 9.80096 151.893C9.80096 153.139 10.8086 154.128 12.0336 154.128C13.2784 154.128 14.2663 153.119 14.2663 151.893C14.2663 147.146 18.1191 143.31 22.8413 143.31C28.7687 143.31 30.4877 147.898 30.5469 148.096V148.076L34.7751 148.135C36.6522 143.052 41.5522 139.651 46.9856 139.651C53.3675 139.651 58.7614 144.239 59.8086 150.548L63.286 152.032C65.0643 150.805 67.1191 150.153 69.2727 150.153C75.1014 150.153 79.8235 154.899 79.8235 160.714C79.8235 166.548 75.0816 171.275 69.2727 171.275H20.984C19.7392 171.275 18.7514 172.284 18.7514 173.51C18.7316 174.756 19.7392 175.765 20.984 175.765Z" fill="white"/>
</g>
<g opacity="0.2">
<path d="M261.001 14.3921C260.453 14.3921 260.001 13.7355 260.001 12.9382V1.84603C260.001 1.04871 260.453 0.39209 261.001 0.39209C261.549 0.39209 262.001 1.04871 262.001 1.84603V12.9382C262.001 13.7355 261.549 14.3921 261.001 14.3921Z" fill="white"/>
<path d="M266.546 8.10716H255.454C254.657 8.10716 254 7.6147 254 7.02843C254 6.44217 254.657 5.94971 255.454 5.94971H266.546C267.343 5.94971 268 6.44217 268 7.02843C268 7.6147 267.343 8.10716 266.546 8.10716Z" fill="white"/>
</g>
<g opacity="0.2">
<path d="M27.1338 74.3921C26.5854 74.3921 26.1338 73.7355 26.1338 72.9382V61.846C26.1338 61.0487 26.5854 60.3921 27.1338 60.3921C27.6822 60.3921 28.1338 61.0487 28.1338 61.846V72.9382C28.1338 73.7355 27.6822 74.3921 27.1338 74.3921Z" fill="white"/>
<path d="M32.6789 68.1072H21.5867C20.7894 68.1072 20.1328 67.6147 20.1328 67.0284C20.1328 66.4422 20.7894 65.9497 21.5867 65.9497H32.6789C33.4762 65.9497 34.1328 66.4422 34.1328 67.0284C34.1328 67.6147 33.4762 68.1072 32.6789 68.1072Z" fill="white"/>
</g>
<path d="M55.066 300.24H138.436L139.663 301.468V311.027L138.436 312.256H134.637V402.7L133.411 403.929H60.1132L58.8867 402.7V312.267H55.0878L53.8613 311.038V301.479L55.066 300.24ZM61.3289 401.471H132.162V396.882H61.3289V401.471ZM61.3289 394.424H132.162V389.835H61.3289V394.424ZM61.3289 387.367H132.162V382.777H61.3289V387.367ZM61.3289 380.32H132.162V375.731H61.3289V380.32ZM61.3289 373.263H132.162V368.674H61.3289V373.263ZM61.3289 366.216H132.162V361.627H61.3289V366.216ZM61.3289 359.158H132.162V354.569H61.3289V359.158ZM61.3289 352.111H132.162V347.522H61.3289V352.111ZM61.3289 345.054H132.162V340.465H61.3289V345.054ZM61.3289 338.007H132.162V333.418H61.3289V338.007ZM61.3289 330.95H132.162V326.36H61.3289V330.95ZM61.3289 323.903H132.162V319.313H61.3289V323.903ZM61.3289 316.845H132.162V312.267H61.3289V316.845ZM56.2926 309.798H60.0915H133.389H137.188V302.708H56.2818V309.798H56.2926Z" fill="white"/>
<path d="M146.805 300.24H230.175L231.401 301.468V311.027L230.175 312.256H226.376V337.463C226.376 338.148 225.822 338.692 225.149 338.692C224.476 338.692 223.923 338.138 223.923 337.463V326.36H153.089V402.7C153.089 403.385 152.535 403.929 151.862 403.929C151.19 403.929 150.636 403.374 150.636 402.7V312.267H146.837L145.61 311.038V301.479L146.805 300.24ZM223.912 323.903V319.313H153.078V323.903H223.912ZM153.078 316.845H223.912V312.267H153.078V316.845ZM148.042 309.798H151.841H225.138H228.937V302.708H148.031V309.798H148.042Z" fill="white"/>
<path fill-rule="evenodd" clip-rule="evenodd" d="M153.022 274.684H25.1718L23.9453 273.455V272.224H26.3983V272.226H151.784V248.748H57.3941V246.291H153.022L154.248 247.519V273.455L153.022 274.684Z" fill="white"/>
<path fill-rule="evenodd" clip-rule="evenodd" d="M261.372 272.224V273.455L260.145 274.684H132.295L131.069 273.455V247.519L132.295 246.291H231.557V248.748H133.522V272.226H258.908V272.224H261.372Z" fill="white"/>
<path d="M25.0761 259.253H78.695C79.379 259.253 79.9217 259.808 79.9217 260.482C79.9217 261.167 79.368 261.711 78.695 261.711H26.3025V280.437H32.2722H252.968H258.938V261.722H206.545C205.861 261.722 205.319 261.167 205.319 260.493C205.319 259.808 205.872 259.264 206.545 259.264H260.164L261.391 260.493V281.687L260.164 282.916H254.194V337.311C254.194 337.996 253.641 338.54 252.968 338.54C252.295 338.54 251.741 337.985 251.741 337.311V282.916H33.5097V401.471H252.979C253.662 401.471 254.205 402.026 254.205 402.7C254.205 403.374 253.651 403.929 252.979 403.929H32.2831L31.0566 402.7V282.916H25.0869L23.8604 281.687V260.482L25.0761 259.253Z" fill="white"/>
<path d="M261.391 255.306H23.5332V272.224H261.391V255.306Z" fill="#7700D1"/>
<path d="M243.331 248.711H72.1191V265.107H243.331V248.711Z" fill="#7700D1"/>
<path fill-rule="evenodd" clip-rule="evenodd" d="M78.9862 272.224V272.384H76.5965V272.224H78.9862ZM59.1783 248.713V246.317C58.8248 246.3 58.4689 246.291 58.1109 246.291H44.7356C33.2065 246.291 23.8604 255.645 23.8604 267.184V272.384H26.25V267.184C26.25 256.966 34.5263 248.682 44.7356 248.682H58.1109C58.4692 248.682 58.8251 248.693 59.1783 248.713Z" fill="white"/>
<path fill-rule="evenodd" clip-rule="evenodd" d="M206.265 272.224V272.384H208.654V272.224H206.265ZM226.073 248.713V246.317C226.426 246.3 226.782 246.291 227.14 246.291H240.515C252.045 246.291 261.391 255.645 261.391 267.184V272.384H259.001V267.184C259.001 256.966 250.725 248.682 240.515 248.682H227.14C226.782 248.682 226.426 248.693 226.073 248.713Z" fill="white"/>
<path fill-rule="evenodd" clip-rule="evenodd" d="M199.749 363.664V342.32H202.321V363.664H199.749ZM206.38 369.288V366.723H228.139V369.288H206.38ZM234.77 342.32H232.209V363.664H234.77V342.32ZM225.527 334.2H209.071V336.777H225.527V334.2Z" fill="white"/>
<path fill-rule="evenodd" clip-rule="evenodd" d="M209.468 348.675H214.506H219.856H224.894L226.225 347.38V337.261C226.225 336.547 225.628 335.965 224.894 335.965C224.161 335.965 223.564 336.547 223.564 337.261V346.062H219.856H214.506H210.798V337.261C210.798 336.547 210.202 335.965 209.468 335.965C208.734 335.965 208.138 336.547 208.138 337.261V347.38L209.468 348.675Z" fill="white"/>
<path fill-rule="evenodd" clip-rule="evenodd" d="M210.01 336.998V334.232C209.772 334.211 209.53 334.2 209.286 334.2H207.816C203.361 334.2 199.749 337.815 199.749 342.275V342.32H202.496C202.496 342.305 202.496 342.29 202.496 342.275C202.496 339.334 204.878 336.949 207.816 336.949H209.286C209.532 336.949 209.774 336.966 210.01 336.998Z" fill="white"/>
<path fill-rule="evenodd" clip-rule="evenodd" d="M224.509 336.982V334.222C224.705 334.207 224.904 334.2 225.105 334.2H226.881C231.337 334.2 234.949 337.815 234.949 342.275V342.32H232.202C232.202 342.305 232.202 342.29 232.202 342.275C232.202 339.334 229.82 336.949 226.881 336.949H225.105C224.903 336.949 224.704 336.96 224.509 336.982Z" fill="white"/>
<path fill-rule="evenodd" clip-rule="evenodd" d="M222.594 366.703V369.288H227.832C231.664 369.288 234.77 366.179 234.77 362.344V362.305H232.188C232.188 362.317 232.188 362.331 232.188 362.344C232.188 364.751 230.238 366.703 227.832 366.703H222.594Z" fill="white"/>
<path fill-rule="evenodd" clip-rule="evenodd" d="M211.925 366.703V369.288H206.687C202.855 369.288 199.749 366.179 199.749 362.344V362.305H202.331C202.331 362.317 202.331 362.331 202.331 362.344C202.331 364.751 204.281 366.703 206.687 366.703H211.925Z" fill="white"/>
<path fill-rule="evenodd" clip-rule="evenodd" d="M182.972 398.304V376.96H185.544V398.304H182.972ZM189.602 403.928V401.363H211.362V403.928H189.602ZM217.993 376.96H215.432V398.304H217.993V376.96ZM208.749 368.84H192.294V371.417H208.749V368.84Z" fill="white"/>
<path fill-rule="evenodd" clip-rule="evenodd" d="M192.692 383.315H197.73H203.08H208.119L209.449 382.02V371.901C209.449 371.186 208.852 370.605 208.119 370.605C207.385 370.605 206.788 371.186 206.788 371.901V380.702H203.08H197.73H194.022V371.901C194.022 371.186 193.425 370.605 192.692 370.605C191.958 370.605 191.361 371.186 191.361 371.901V382.02L192.692 383.315Z" fill="white"/>
<path fill-rule="evenodd" clip-rule="evenodd" d="M193.233 371.638V368.872C192.995 368.851 192.753 368.84 192.509 368.84H191.039C186.584 368.84 182.972 372.455 182.972 376.915V376.96H185.718C185.718 376.945 185.718 376.93 185.718 376.915C185.718 373.973 188.1 371.589 191.039 371.589H192.509C192.754 371.589 192.996 371.606 193.233 371.638Z" fill="white"/>
<path fill-rule="evenodd" clip-rule="evenodd" d="M207.731 371.622V368.862C207.926 368.847 208.123 368.84 208.321 368.84H210.112C214.568 368.84 218.179 372.455 218.179 376.915V376.96H215.433C215.433 376.945 215.433 376.93 215.433 376.915C215.433 373.973 213.051 371.589 210.112 371.589H208.321C208.122 371.589 207.925 371.6 207.731 371.622Z" fill="white"/>
<path fill-rule="evenodd" clip-rule="evenodd" d="M205.816 401.343V403.928H211.055C214.887 403.928 217.993 400.819 217.993 396.984V396.945H215.411C215.411 396.957 215.411 396.97 215.411 396.984C215.411 399.391 213.461 401.343 211.055 401.343H205.816Z" fill="white"/>
<path fill-rule="evenodd" clip-rule="evenodd" d="M195.148 401.343V403.928H189.909C186.078 403.928 182.972 400.819 182.972 396.984V396.945H185.554C185.554 396.957 185.554 396.97 185.554 396.984C185.554 399.391 187.504 401.343 189.909 401.343H195.148Z" fill="white"/>
<path fill-rule="evenodd" clip-rule="evenodd" d="M232.407 363.664V342.32H234.979V363.664H232.407ZM239.038 369.288V366.723H260.798V369.288H239.038ZM267.429 342.32H264.868V363.664H267.429V342.32ZM258.185 334.2H241.73V336.777H258.185V334.2Z" fill="white"/>
<path fill-rule="evenodd" clip-rule="evenodd" d="M242.127 348.675H247.165H252.515H257.554L258.884 347.38V337.261C258.884 336.547 258.288 335.965 257.554 335.965C256.82 335.965 256.224 336.547 256.224 337.261V346.062H252.515H247.165H243.457V337.261C243.457 336.547 242.861 335.965 242.127 335.965C241.393 335.965 240.797 336.547 240.797 337.261V347.38L242.127 348.675Z" fill="white"/>
<path fill-rule="evenodd" clip-rule="evenodd" d="M242.668 336.981V334.221C242.475 334.207 242.281 334.2 242.084 334.2H240.279C235.824 334.2 232.212 337.815 232.212 342.275V342.32H234.959C234.959 342.305 234.959 342.29 234.959 342.275C234.959 339.334 237.341 336.949 240.279 336.949H242.084C242.281 336.949 242.476 336.96 242.668 336.981Z" fill="white"/>
<path fill-rule="evenodd" clip-rule="evenodd" d="M257.167 336.998V334.232C257.405 334.211 257.647 334.2 257.89 334.2H259.361C263.816 334.2 267.428 337.815 267.428 342.275L267.428 342.32H264.681C264.682 342.305 264.682 342.29 264.682 342.275C264.682 339.334 262.299 336.949 259.361 336.949H257.89C257.645 336.949 257.403 336.966 257.167 336.998Z" fill="white"/>
<path fill-rule="evenodd" clip-rule="evenodd" d="M255.252 366.703V369.288H260.491C264.322 369.288 267.429 366.179 267.429 362.344L267.428 362.305H264.846C264.847 362.317 264.847 362.331 264.847 362.344C264.847 364.751 262.897 366.703 260.491 366.703H255.252Z" fill="white"/>
<path fill-rule="evenodd" clip-rule="evenodd" d="M244.584 366.703V369.288H239.345C235.513 369.288 232.407 366.179 232.407 362.344V362.305H234.989C234.989 362.317 234.989 362.331 234.989 362.344C234.989 364.751 236.939 366.703 239.345 366.703H244.584Z" fill="white"/>
<path d="M255.676 336.74H246.415V346.063H255.676V336.74Z" fill="#7700D1"/>
<path d="M258.883 348.675H246.415V366.629H258.883V348.675Z" fill="#7700D1"/>
<path fill-rule="evenodd" clip-rule="evenodd" d="M215.63 398.304V376.96H218.202V398.304H215.63ZM222.261 403.928V401.363H244.02V403.928H222.261ZM250.651 376.96H248.09V398.304H250.651V376.96ZM241.407 368.84H224.953V371.417H241.407V368.84Z" fill="white"/>
<path fill-rule="evenodd" clip-rule="evenodd" d="M225.35 383.315H230.388H235.738H240.776L242.106 382.02V371.901C242.106 371.186 241.51 370.605 240.776 370.605C240.042 370.605 239.446 371.186 239.446 371.901V380.702H235.738H230.388H226.679V371.901C226.679 371.186 226.083 370.605 225.35 370.605C224.616 370.605 224.02 371.186 224.02 371.901V382.02L225.35 383.315Z" fill="white"/>
<path fill-rule="evenodd" clip-rule="evenodd" d="M225.891 371.638V368.872C225.653 368.851 225.412 368.84 225.168 368.84H223.532C219.077 368.84 215.465 372.455 215.465 376.915V376.96H218.212C218.212 376.945 218.212 376.93 218.212 376.915C218.212 373.973 220.594 371.589 223.532 371.589H225.168C225.414 371.589 225.655 371.606 225.891 371.638Z" fill="white"/>
<path fill-rule="evenodd" clip-rule="evenodd" d="M240.391 371.638V368.872C240.629 368.851 240.87 368.84 241.114 368.84H242.769C247.225 368.84 250.837 372.455 250.837 376.915V376.96H248.09C248.09 376.945 248.09 376.93 248.09 376.915C248.09 373.973 245.708 371.589 242.769 371.589H241.114C240.869 371.589 240.627 371.606 240.391 371.638Z" fill="white"/>
<path fill-rule="evenodd" clip-rule="evenodd" d="M238.475 401.343V403.928H243.713C247.545 403.928 250.651 400.819 250.651 396.984V396.945H248.069C248.07 396.957 248.07 396.97 248.07 396.984C248.07 399.391 246.119 401.343 243.713 401.343H238.475Z" fill="white"/>
<path fill-rule="evenodd" clip-rule="evenodd" d="M227.806 401.343V403.928H222.568C218.736 403.928 215.63 400.819 215.63 396.984V396.945H218.212C218.212 396.957 218.212 396.97 218.212 396.984C218.212 399.391 220.162 401.343 222.568 401.343H227.806Z" fill="white"/>
<path fill-rule="evenodd" clip-rule="evenodd" d="M248.597 398.304V376.96H251.169V398.304H248.597ZM255.228 403.928V401.363H276.987V403.928H255.228ZM283.618 376.96H281.057V398.304H283.618V376.96ZM274.374 368.84H257.92V371.417H274.374V368.84Z" fill="white"/>
<path fill-rule="evenodd" clip-rule="evenodd" d="M258.316 383.315H263.354H268.704H273.743L275.073 382.02V371.901C275.073 371.186 274.477 370.605 273.743 370.605C273.009 370.605 272.413 371.186 272.413 371.901V380.702H268.704H263.354H259.646V371.901C259.646 371.186 259.05 370.605 258.316 370.605C257.582 370.605 256.986 371.186 256.986 371.901V382.02L258.316 383.315Z" fill="white"/>
<path fill-rule="evenodd" clip-rule="evenodd" d="M258.858 371.638V368.872C258.62 368.851 258.378 368.84 258.135 368.84H256.501C252.046 368.84 248.434 372.455 248.434 376.915V376.96H251.18C251.18 376.945 251.18 376.93 251.18 376.915C251.18 373.973 253.562 371.589 256.501 371.589H258.135C258.38 371.589 258.621 371.606 258.858 371.638Z" fill="white"/>
<path fill-rule="evenodd" clip-rule="evenodd" d="M273.356 371.638V368.872C273.595 368.851 273.837 368.84 274.08 368.84H275.551C280.006 368.84 283.618 372.455 283.618 376.915L283.618 376.96H280.871C280.872 376.945 280.872 376.93 280.872 376.915C280.872 373.973 278.489 371.589 275.551 371.589H274.08C273.835 371.589 273.593 371.606 273.356 371.638Z" fill="white"/>
<path fill-rule="evenodd" clip-rule="evenodd" d="M271.441 401.343V403.928H276.68C280.512 403.928 283.618 400.819 283.618 396.984L283.618 396.945H281.036C281.036 396.957 281.036 396.97 281.036 396.984C281.036 399.391 279.086 401.343 276.68 401.343H271.441Z" fill="white"/>
<path fill-rule="evenodd" clip-rule="evenodd" d="M260.773 401.343V403.928H255.534C251.703 403.928 248.597 400.819 248.597 396.984V396.945H251.179C251.179 396.957 251.179 396.97 251.179 396.984C251.179 399.391 253.129 401.343 255.534 401.343H260.773Z" fill="white"/>
<path d="M142.318 218.915C142.129 218.742 137.69 214.499 133.188 208.219C127.054 199.653 123.948 191.76 123.948 184.745C123.948 173.955 132.733 165.185 143.541 165.185C154.35 165.185 163.134 173.955 163.134 184.745C163.134 191.698 160.028 199.59 153.895 208.172C149.392 214.467 144.953 218.742 144.765 218.915H142.318ZM143.541 168.74C134.694 168.74 127.509 175.928 127.509 184.745C127.509 197.414 139.588 211.006 143.541 215.109C147.479 210.975 159.573 197.288 159.573 184.745C159.573 175.912 152.389 168.74 143.541 168.74Z" fill="white"/>
<path d="M143.541 193.765C138.552 193.765 134.505 189.725 134.505 184.745C134.505 179.765 138.552 175.725 143.541 175.725C148.529 175.725 152.576 179.765 152.576 184.745C152.576 189.725 148.529 193.765 143.541 193.765ZM143.541 179.279C140.513 179.279 138.066 181.722 138.066 184.745C138.066 187.767 140.529 190.21 143.541 190.21C146.568 190.21 149.015 187.751 149.015 184.745C149.015 181.738 146.568 179.279 143.541 179.279Z" fill="white"/>
<path d="M142.658 217.996C159.069 219.434 192.317 238.483 227.752 172.879C263.188 107.275 308.094 138.453 301.548 179.346C295.002 220.24 372.013 188.336 339.495 239.239C312.076 282.159 446.701 315.449 457.437 278.78" stroke="white" stroke-width="2" stroke-dasharray="6 3"/>
</svg>