<svg width="732" height="358" viewBox="0 0 732 358" fill="none" xmlns="http://www.w3.org/2000/svg">
<path d="M48.6445 140.508H5.16431C2.33227 140.508 0 138.168 0 135.326C0 132.484 2.33227 130.144 5.16431 130.144H48.6445C51.4766 130.144 53.8088 132.484 53.8088 135.326C53.8088 138.252 51.4766 140.508 48.6445 140.508Z" fill="white"/>
<path d="M94.54 86.0102H51.0598C48.2278 86.0102 45.8955 83.6698 45.8955 80.8279C45.8955 77.9859 48.2278 75.6455 51.0598 75.6455H94.54C97.3721 75.6455 99.7043 77.9859 99.7043 80.8279C99.7043 83.6698 97.3721 86.0102 94.54 86.0102Z" fill="white"/>
<path d="M94.54 195.09H51.0598C48.2278 195.09 45.8955 192.75 45.8955 189.908C45.8955 187.066 48.2278 184.726 51.0598 184.726H94.54C97.3721 184.726 99.7043 187.066 99.7043 189.908C99.7043 192.75 97.3721 195.09 94.54 195.09Z" fill="white"/>
<path d="M724.836 258.282C724.67 258.282 724.503 258.282 724.337 258.282C692.934 254.938 671.944 217.324 671.028 215.736L675.276 208.548H708.76C711.426 208.548 713.592 210.721 713.592 213.396C713.592 216.071 711.426 218.244 708.76 218.244H684.105C691.352 228.609 706.595 246.663 725.336 248.669C728.002 248.92 729.917 251.344 729.668 254.019C729.334 256.443 727.252 258.282 724.836 258.282Z" fill="white"/>
<path d="M702.18 306.093H681.106C678.441 306.093 676.275 303.92 676.275 301.245C676.275 298.57 678.441 296.397 681.106 296.397H702.18C713.258 296.397 722.254 287.37 722.254 276.253V248.251C722.254 235.964 714.008 219.33 704.346 211.891L704.013 211.641L578.32 96.4586C571.49 91.3598 567.408 91.3598 557.829 91.527C556.163 91.527 554.331 91.6106 552.415 91.6106H487.028C484.363 91.6106 482.197 89.4373 482.197 86.7626C482.197 84.0878 484.363 81.9146 487.028 81.9146H552.415C554.331 81.9146 556.08 81.9146 557.746 81.831C567.991 81.6638 574.738 81.5802 584.317 88.8522L584.65 89.103L710.343 204.201C722.421 213.563 731.917 232.871 731.917 248.168V276.169C732 292.636 718.589 306.093 702.18 306.093Z" fill="white"/>
<path d="M577.904 306.093H484.863C482.197 306.093 480.031 303.92 480.031 301.245C480.031 298.57 482.197 296.397 484.863 296.397H577.904C580.569 296.397 582.735 298.57 582.735 301.245C582.735 303.92 580.569 306.093 577.904 306.093Z" fill="white"/>
<path d="M629.463 358C598.394 358 573.072 332.59 573.072 301.412C573.072 270.234 598.394 244.824 629.463 244.824C660.533 244.824 685.854 270.234 685.854 301.412C685.938 332.59 660.616 358 629.463 358ZM629.463 254.52C603.725 254.52 582.735 275.584 582.735 301.412C582.735 327.24 603.725 348.304 629.463 348.304C655.202 348.304 676.192 327.24 676.192 301.412C676.192 275.584 655.285 254.52 629.463 254.52Z" fill="white"/>
<path d="M629.463 329.246C614.137 329.246 601.726 316.791 601.726 301.411C601.726 286.032 614.137 273.577 629.463 273.577C644.789 273.577 657.201 286.032 657.201 301.411C657.201 316.791 644.789 329.246 629.463 329.246ZM629.463 283.273C619.468 283.273 611.388 291.381 611.388 301.411C611.388 311.442 619.468 319.55 629.463 319.55C639.459 319.55 647.538 311.442 647.538 301.411C647.538 291.381 639.459 283.273 629.463 283.273Z" fill="white"/>
<path d="M580.903 254.52H512.933C510.268 254.52 508.102 252.347 508.102 249.672C508.102 246.997 510.268 244.824 512.933 244.824H580.903C583.568 244.824 585.734 246.997 585.734 249.672C585.734 252.347 583.568 254.52 580.903 254.52Z" fill="white"/>
<path d="M645.872 186.565H512.933L508.102 181.717V109.582L512.933 104.734H569.407L572.739 106.071L649.204 178.206L645.872 186.565ZM517.764 176.869H633.711L567.491 114.43H517.764V176.869Z" fill="white"/>
<path d="M484.612 303.251C481.947 303.251 479.781 301.078 479.781 298.403V87.3478C479.781 84.673 481.947 82.4998 484.612 82.4998C487.278 82.4998 489.444 84.673 489.444 87.3478V298.403C489.444 301.078 487.278 303.251 484.612 303.251Z" fill="white"/>
<path d="M521.596 306.093H330.183C327.517 306.093 325.352 303.92 325.352 301.245C325.352 298.571 327.517 296.397 330.183 296.397H521.596C524.261 296.397 526.427 298.571 526.427 301.245C526.427 303.92 524.261 306.093 521.596 306.093Z" fill="white"/>
<path d="M227.063 306.093H219.9C204.407 306.093 191.829 293.471 191.829 277.924V249.672C191.829 246.997 193.995 244.824 196.66 244.824C199.326 244.824 201.492 246.997 201.492 249.672V277.924C201.492 288.122 209.738 296.397 219.9 296.397H227.063C229.729 296.397 231.894 298.57 231.894 301.245C231.894 303.919 229.729 306.093 227.063 306.093Z" fill="white"/>
<path d="M278.623 358C247.554 358 222.232 332.59 222.232 301.412C222.232 270.234 247.554 244.824 278.623 244.824C309.692 244.824 335.014 270.234 335.014 301.412C335.014 332.59 309.692 358 278.623 358ZM278.623 254.52C252.885 254.52 231.894 275.584 231.894 301.412C231.894 327.24 252.885 348.304 278.623 348.304C304.361 348.304 325.352 327.24 325.352 301.412C325.352 275.584 304.361 254.52 278.623 254.52Z" fill="white"/>
<path d="M278.623 329.246C263.297 329.246 250.886 316.791 250.886 301.412C250.886 286.032 263.297 273.577 278.623 273.577C293.95 273.577 306.361 286.032 306.361 301.412C306.361 316.791 293.866 329.246 278.623 329.246ZM278.623 283.273C268.628 283.273 260.548 291.381 260.548 301.412C260.548 311.442 268.628 319.55 278.623 319.55C288.619 319.55 296.698 311.442 296.698 301.412C296.698 291.381 288.535 283.273 278.623 283.273Z" fill="white"/>
<rect x="680.951" y="304.049" width="5.60629" height="17.7158" transform="rotate(-90 680.951 304.049)" fill="white"/>
<rect x="517.624" y="304.049" width="5.60629" height="58.2842" transform="rotate(-90 517.624 304.049)" fill="white"/>
<rect x="330.734" y="304.049" width="5.60629" height="58.2842" transform="rotate(-90 330.734 304.049)" fill="white"/>
<path d="M541.753 150.455C540.671 150.455 539.504 150.037 538.588 149.285C536.589 147.53 536.339 144.521 538.088 142.431L567.408 107.91C569.157 105.904 572.156 105.653 574.239 107.408C576.238 109.164 576.487 112.173 574.738 114.263L545.418 148.784C544.502 149.954 543.086 150.455 541.753 150.455Z" fill="white"/>
<path d="M543.502 186.565C542.42 186.565 541.253 186.147 540.337 185.395C538.338 183.639 538.088 180.63 539.837 178.541L572.989 139.506C574.738 137.5 577.737 137.249 579.819 139.004C581.818 140.76 582.068 143.769 580.319 145.858L547.251 184.893C546.251 185.98 544.918 186.565 543.502 186.565Z" fill="white"/>
<path d="M535.34 199.688H512.933V209.384H535.34V199.688Z" fill="white"/>
<path fill-rule="evenodd" clip-rule="evenodd" d="M150.583 72.4414V249.672L155.414 254.52H485.514L490.345 249.672V72.4414H480.683V244.824H160.245V72.4414H150.583ZM241.782 9.69601H394.466V0H241.782V9.69601Z" fill="white"/>
<rect x="712.659" y="210.595" width="5.60625" height="10.7803" transform="rotate(90 712.659 210.595)" fill="white"/>
<rect x="728.427" y="250.266" width="5.67076" height="6.40796" transform="rotate(90 728.427 250.266)" fill="white"/>
<rect x="556.624" y="178.93" width="5.60074" height="17.9569" transform="rotate(90 556.624 178.93)" fill="white"/>
</svg>
