<svg width="80" height="42" viewBox="0 0 80 42" fill="none" xmlns="http://www.w3.org/2000/svg">
<g opacity="0.2">
<path d="M16.3592 41.2058H64.6282C72.9266 41.2058 79.6641 34.4616 79.6641 26.155C79.6641 17.8483 72.9266 11.1041 64.6282 11.1041C62.6128 11.1041 60.637 11.4996 58.8193 12.2709C57.8116 9.40317 56.0532 6.81227 53.702 4.81472C50.5407 2.10516 46.51 0.602051 42.3411 0.602051C32.6991 0.602051 24.8552 8.45383 24.8552 18.1054C24.8552 19.3514 25.8628 20.3403 27.0878 20.3403C28.3128 20.3403 29.3205 19.3316 29.3205 18.1054C29.3205 10.9261 35.1491 5.09161 42.3213 5.09161C48.7031 5.09161 54.0971 9.68005 55.1443 15.9892L58.6217 17.4725C60.3999 16.2463 62.4548 15.5936 64.6084 15.5936C70.437 15.5936 75.1592 20.3403 75.1592 26.155C75.1592 31.9894 70.4173 36.7163 64.6084 36.7163H16.3197C15.0749 36.7163 14.087 37.725 14.087 38.9512C14.087 40.1774 15.1144 41.2058 16.3592 41.2058Z" fill="white"/>
<path d="M2.56879 32.0289H46.2341C47.4789 32.0289 48.4668 31.0202 48.4668 29.794C48.4668 28.548 47.4591 27.5591 46.2341 27.5591H2.56879C1.32404 27.5591 0.336136 28.5677 0.336136 29.794C0.336136 31.04 1.3438 32.0289 2.56879 32.0289Z" fill="white"/>
</g>
</svg>
