<svg width="31" height="31" viewBox="0 0 31 31" fill="none" xmlns="http://www.w3.org/2000/svg">
<path d="M17.3781 15.4603L30.3775 2.46079C30.8352 2.00311 30.8352 1.26108 30.3775 0.803462C29.9198 0.345845 29.1778 0.345786 28.7202 0.803462L15.7207 13.8029L2.72128 0.803462C2.26361 0.345786 1.52158 0.345786 1.06396 0.803462C0.606343 1.26114 0.606284 2.00317 1.06396 2.46079L14.0634 15.4602L1.06396 28.4597C0.606284 28.9174 0.606284 29.6594 1.06396 30.117C1.29277 30.3458 1.59271 30.4602 1.89265 30.4602C2.19259 30.4602 2.49247 30.3458 2.72134 30.117L15.7207 17.1176L28.7201 30.117C28.9489 30.3458 29.2489 30.4602 29.5488 30.4602C29.8488 30.4602 30.1486 30.3458 30.3775 30.117C30.8352 29.6593 30.8352 28.9173 30.3775 28.4597L17.3781 15.4603Z" fill="#4C1978"/>
</svg>
