<svg xmlns="http://www.w3.org/2000/svg" width="380" height="608" viewBox="0 0 380 608" fill="none">
    <g opacity="0.2">
        <path d="M185.188 41.4306H233.457C241.756 41.4306 248.493 34.6864 248.493 26.3797C248.493 18.073 241.756 11.3288 233.457 11.3288C231.442 11.3288 229.466 11.7243 227.648 12.4957C226.641 9.6279 224.882 7.03701 222.531 5.03945C219.37 2.32989 215.339 0.826782 211.17 0.826782C201.528 0.826782 193.684 8.67856 193.684 18.3301C193.684 19.5761 194.692 20.565 195.917 20.565C197.142 20.565 198.15 19.5563 198.15 18.3301C198.15 11.1508 203.978 5.31634 211.15 5.31634C217.532 5.31634 222.926 9.90479 223.973 16.2139L227.451 17.6972C229.229 16.471 231.284 15.8183 233.437 15.8183C239.266 15.8183 243.988 20.565 243.988 26.3797C243.988 32.2141 239.246 36.941 233.437 36.941H185.149C183.904 36.941 182.916 37.9497 182.916 39.1759C182.916 40.4021 183.943 41.4306 185.188 41.4306Z" fill="white"/>
        <path d="M171.398 32.2536H215.063C216.308 32.2536 217.296 31.2449 217.296 30.0187C217.296 28.7727 216.288 27.7838 215.063 27.7838H171.398C170.153 27.7838 169.165 28.7925 169.165 30.0187C169.165 31.2647 170.173 32.2536 171.398 32.2536Z" fill="white"/>
    </g>
    <g clip-path="url(#clip0_208_5)">
        <mask id="path-3-inside-1_208_5" fill="white">
            <path fill-rule="evenodd" clip-rule="evenodd" d="M272.184 412.693H88.1347L80.8755 419.959V604.193L84.0259 607.346V571.169H95.4581V457.192H88.6523V416.902H134.147V427.29H230.994V416.902H275.431V457.192H264.924V571.169H275.431V608.209L279.443 604.193V419.959L272.184 412.693ZM243.788 611.459H115.669V596.926H243.788V611.459Z"/>
        </mask>
        <path fill-rule="evenodd" clip-rule="evenodd" d="M272.184 412.693H88.1347L80.8755 419.959V604.193L84.0259 607.346V571.169H95.4581V457.192H88.6523V416.902H134.147V427.29H230.994V416.902H275.431V457.192H264.924V571.169H275.431V608.209L279.443 604.193V419.959L272.184 412.693ZM243.788 611.459H115.669V596.926H243.788V611.459Z" fill="white"/>
        <path d="M88.1347 412.693V408.693H86.4767L85.3049 409.866L88.1347 412.693ZM272.184 412.693L275.014 409.866L273.842 408.693H272.184V412.693ZM80.8755 419.959L78.0456 417.132L76.8755 418.304V419.959H80.8755ZM80.8755 604.193H76.8755V605.848L78.0456 607.02L80.8755 604.193ZM84.0259 607.346L81.1961 610.173L88.0259 617.01V607.346H84.0259ZM84.0259 571.169V567.169H80.0259V571.169H84.0259ZM95.4581 571.169V575.169H99.4581V571.169H95.4581ZM95.4581 457.192H99.4581V453.192H95.4581V457.192ZM88.6523 457.192H84.6523V461.192H88.6523V457.192ZM88.6523 416.902V412.902H84.6523V416.902H88.6523ZM134.147 416.902H138.147V412.902H134.147V416.902ZM134.147 427.29H130.147V431.29H134.147V427.29ZM230.994 427.29V431.29H234.994V427.29H230.994ZM230.994 416.902V412.902H226.994V416.902H230.994ZM275.431 416.902H279.431V412.902H275.431V416.902ZM275.431 457.192V461.192H279.431V457.192H275.431ZM264.924 457.192V453.192H260.924V457.192H264.924ZM264.924 571.169H260.924V575.169H264.924V571.169ZM275.431 571.169H279.431V567.169H275.431V571.169ZM275.431 608.209H271.431V617.872L278.261 611.035L275.431 608.209ZM279.443 604.193L282.273 607.02L283.443 605.848V604.193H279.443ZM279.443 419.959H283.443V418.304L282.273 417.132L279.443 419.959ZM115.669 611.459H111.669V615.459H115.669V611.459ZM243.788 611.459V615.459H247.788V611.459H243.788ZM115.669 596.926V592.926H111.669V596.926H115.669ZM243.788 596.926H247.788V592.926H243.788V596.926ZM88.1347 416.693H272.184V408.693H88.1347V416.693ZM83.7053 422.786L90.9645 415.52L85.3049 409.866L78.0456 417.132L83.7053 422.786ZM84.8755 604.193V419.959H76.8755V604.193H84.8755ZM86.8557 604.519L83.7053 601.366L78.0456 607.02L81.1961 610.173L86.8557 604.519ZM80.0259 571.169V607.346H88.0259V571.169H80.0259ZM95.4581 567.169H84.0259V575.169H95.4581V567.169ZM91.4581 457.192V571.169H99.4581V457.192H91.4581ZM95.4581 453.192H88.6523V461.192H95.4581V453.192ZM92.6523 457.192V416.902H84.6523V457.192H92.6523ZM88.6523 420.902H134.147V412.902H88.6523V420.902ZM130.147 416.902V427.29H138.147V416.902H130.147ZM230.994 423.29H134.147V431.29H230.994V423.29ZM226.994 416.902V427.29H234.994V416.902H226.994ZM275.431 412.902H230.994V420.902H275.431V412.902ZM279.431 457.192V416.902H271.431V457.192H279.431ZM264.924 461.192H275.431V453.192H264.924V461.192ZM268.924 571.169V457.192H260.924V571.169H268.924ZM275.431 567.169H264.924V575.169H275.431V567.169ZM279.431 608.209V571.169H271.431V608.209H279.431ZM276.613 601.366L272.601 605.382L278.261 611.035L282.273 607.02L276.613 601.366ZM275.443 419.959V604.193H283.443V419.959H275.443ZM269.354 415.52L276.613 422.786L282.273 417.132L275.014 409.866L269.354 415.52ZM115.669 615.459H243.788V607.459H115.669V615.459ZM111.669 596.926V611.459H119.669V596.926H111.669ZM243.788 592.926H115.669V600.926H243.788V592.926ZM247.788 611.459V596.926H239.788V611.459H247.788Z" fill="#7700D1" mask="url(#path-3-inside-1_208_5)"/>
        <mask id="path-5-inside-2_208_5" fill="white">
            <path fill-rule="evenodd" clip-rule="evenodd" d="M135.984 494.693H164.551H194.886H223.453L230.994 487.354V430.032C230.994 425.983 227.614 422.693 223.453 422.693C219.292 422.693 215.911 425.983 215.911 430.032V479.888H194.886H164.551H143.526V430.032C143.526 425.983 140.145 422.693 135.984 422.693C131.824 422.693 128.443 425.983 128.443 430.032V487.354L135.984 494.693Z"/>
        </mask>
        <path fill-rule="evenodd" clip-rule="evenodd" d="M135.984 494.693H164.551H194.886H223.453L230.994 487.354V430.032C230.994 425.983 227.614 422.693 223.453 422.693C219.292 422.693 215.911 425.983 215.911 430.032V479.888H194.886H164.551H143.526V430.032C143.526 425.983 140.145 422.693 135.984 422.693C131.824 422.693 128.443 425.983 128.443 430.032V487.354L135.984 494.693Z" fill="white"/>
        <path d="M135.984 494.693L133.195 497.559L134.359 498.693H135.984V494.693ZM223.453 494.693V498.693H225.078L226.242 497.559L223.453 494.693ZM230.994 487.354L233.784 490.22L234.994 489.042V487.354H230.994ZM215.911 479.888V483.888H219.911V479.888H215.911ZM143.526 479.888H139.526V483.888H143.526V479.888ZM128.443 487.354H124.443V489.042L125.653 490.22L128.443 487.354ZM164.551 490.693H135.984V498.693H164.551V490.693ZM164.551 498.693H194.886V490.693H164.551V498.693ZM194.886 498.693H223.453V490.693H194.886V498.693ZM226.242 497.559L233.784 490.22L228.204 484.487L220.663 491.826L226.242 497.559ZM234.994 487.354V430.032H226.994V487.354H234.994ZM234.994 430.032C234.994 423.672 229.719 418.693 223.453 418.693V426.693C225.508 426.693 226.994 428.294 226.994 430.032H234.994ZM223.453 418.693C217.186 418.693 211.911 423.672 211.911 430.032H219.911C219.911 428.294 221.398 426.693 223.453 426.693V418.693ZM211.911 430.032V479.888H219.911V430.032H211.911ZM215.911 475.888H194.886V483.888H215.911V475.888ZM194.886 475.888H164.551V483.888H194.886V475.888ZM143.526 483.888H164.551V475.888H143.526V483.888ZM139.526 430.032V479.888H147.526V430.032H139.526ZM135.984 426.693C138.039 426.693 139.526 428.294 139.526 430.032H147.526C147.526 423.672 142.251 418.693 135.984 418.693V426.693ZM132.443 430.032C132.443 428.294 133.929 426.693 135.984 426.693V418.693C129.718 418.693 124.443 423.672 124.443 430.032H132.443ZM132.443 487.354V430.032H124.443V487.354H132.443ZM138.774 491.826L131.233 484.487L125.653 490.22L133.195 497.559L138.774 491.826Z" fill="#7700D1" mask="url(#path-5-inside-2_208_5)"/>
        <rect x="-1.75432" y="1.75432" width="3.50863" height="10.4914" transform="matrix(-1 0 0 1 223.41 419.693)" fill="white" stroke="white" stroke-width="3.50863"/>
        <rect x="-1.78855" y="1.78855" width="3.57709" height="10.4229" transform="matrix(-1 0 0 1 135.957 419.693)" fill="white" stroke="white" stroke-width="3.57709"/>
        <path fill-rule="evenodd" clip-rule="evenodd" d="M219.901 423.455H237.431C254.662 423.455 268.631 437.424 268.631 454.655V464.358H275.431V454.655C275.431 433.668 258.418 416.655 237.431 416.655H218.159C216.686 416.655 215.232 416.739 213.803 416.902H219.901V423.455Z" fill="white"/>
        <path fill-rule="evenodd" clip-rule="evenodd" d="M268.596 552.237L268.596 569.767C268.596 586.998 254.627 600.967 237.396 600.967L229.656 600.967L229.656 607.767L237.396 607.767C258.383 607.767 275.396 590.754 275.396 569.767L275.396 550.495C275.396 549.053 275.316 547.629 275.159 546.229L275.159 552.237L268.596 552.237Z" fill="white"/>
        <path fill-rule="evenodd" clip-rule="evenodd" d="M91.655 552.237L91.655 569.767C91.655 586.998 105.624 600.967 122.855 600.967L130.595 600.967L130.595 607.767L122.855 607.767C101.868 607.767 84.855 590.754 84.855 569.767L84.855 550.495C84.855 549.053 84.9354 547.629 85.0919 546.229L85.0919 552.237L91.655 552.237Z" fill="white"/>
        <path fill-rule="evenodd" clip-rule="evenodd" d="M140.385 423.455H122.855C105.624 423.455 91.6551 437.424 91.6551 454.655V464.358H84.8551V454.655C84.8551 433.668 101.868 416.655 122.855 416.655H142.127C143.6 416.655 145.054 416.739 146.483 416.902H140.385V423.455Z" fill="white"/>
    </g>
    <g clip-path="url(#clip1_208_5)">
        <mask id="path-13-inside-3_208_5" fill="white">
            <path fill-rule="evenodd" clip-rule="evenodd" d="M88.4001 412.693H-95.6491L-102.908 419.959V604.193L-99.7579 607.346V571.169H-88.3258V457.192H-95.1315V416.902H-49.6365V427.29H47.2104V416.902H91.6472V457.192H81.1407V571.169H91.6472V608.209L95.6591 604.193V419.959L88.4001 412.693ZM60.0039 611.459H-68.1146V596.926H60.0039V611.459Z"/>
        </mask>
        <path fill-rule="evenodd" clip-rule="evenodd" d="M88.4001 412.693H-95.6491L-102.908 419.959V604.193L-99.7579 607.346V571.169H-88.3258V457.192H-95.1315V416.902H-49.6365V427.29H47.2104V416.902H91.6472V457.192H81.1407V571.169H91.6472V608.209L95.6591 604.193V419.959L88.4001 412.693ZM60.0039 611.459H-68.1146V596.926H60.0039V611.459Z" fill="white"/>
        <path d="M-95.6491 412.693V408.693H-97.3071L-98.479 409.866L-95.6491 412.693ZM88.4001 412.693L91.2299 409.866L90.0581 408.693H88.4001V412.693ZM-102.908 419.959L-105.738 417.132L-106.908 418.304V419.959H-102.908ZM-102.908 604.193H-106.908V605.848L-105.738 607.02L-102.908 604.193ZM-99.7579 607.346L-102.588 610.173L-95.7579 617.01V607.346H-99.7579ZM-99.7579 571.169V567.169H-103.758V571.169H-99.7579ZM-88.3258 571.169V575.169H-84.3258V571.169H-88.3258ZM-88.3258 457.192H-84.3258V453.192H-88.3258V457.192ZM-95.1315 457.192H-99.1315V461.192H-95.1315V457.192ZM-95.1315 416.902V412.902H-99.1315V416.902H-95.1315ZM-49.6365 416.902H-45.6365V412.902H-49.6365V416.902ZM-49.6365 427.29H-53.6365V431.29H-49.6365V427.29ZM47.2104 427.29V431.29H51.2104V427.29H47.2104ZM47.2104 416.902V412.902H43.2104V416.902H47.2104ZM91.6472 416.902H95.6472V412.902H91.6472V416.902ZM91.6472 457.192V461.192H95.6472V457.192H91.6472ZM81.1407 457.192V453.192H77.1407V457.192H81.1407ZM81.1407 571.169H77.1407V575.169H81.1407V571.169ZM91.6472 571.169H95.6472V567.169H91.6472V571.169ZM91.6472 608.209H87.6472V617.872L94.4771 611.035L91.6472 608.209ZM95.6591 604.193L98.489 607.02L99.6591 605.848V604.193H95.6591ZM95.6591 419.959H99.6591V418.304L98.489 417.132L95.6591 419.959ZM-68.1146 611.459H-72.1146V615.459H-68.1146V611.459ZM60.0039 611.459V615.459H64.0039V611.459H60.0039ZM-68.1146 596.926V592.926H-72.1146V596.926H-68.1146ZM60.0039 596.926H64.0039V592.926H60.0039V596.926ZM-95.6491 416.693H88.4001V408.693H-95.6491V416.693ZM-100.078 422.786L-92.8193 415.52L-98.479 409.866L-105.738 417.132L-100.078 422.786ZM-98.9083 604.193V419.959H-106.908V604.193H-98.9083ZM-96.9281 604.519L-100.078 601.366L-105.738 607.02L-102.588 610.173L-96.9281 604.519ZM-103.758 571.169V607.346H-95.7579V571.169H-103.758ZM-88.3258 567.169H-99.7579V575.169H-88.3258V567.169ZM-92.3258 457.192V571.169H-84.3258V457.192H-92.3258ZM-88.3258 453.192H-95.1315V461.192H-88.3258V453.192ZM-91.1315 457.192V416.902H-99.1315V457.192H-91.1315ZM-95.1315 420.902H-49.6365V412.902H-95.1315V420.902ZM-53.6365 416.902V427.29H-45.6365V416.902H-53.6365ZM47.2104 423.29H-49.6365V431.29H47.2104V423.29ZM43.2104 416.902V427.29H51.2104V416.902H43.2104ZM91.6472 412.902H47.2104V420.902H91.6472V412.902ZM95.6472 457.192V416.902H87.6472V457.192H95.6472ZM81.1407 461.192H91.6472V453.192H81.1407V461.192ZM85.1407 571.169V457.192H77.1407V571.169H85.1407ZM91.6472 567.169H81.1407V575.169H91.6472V567.169ZM95.6472 608.209V571.169H87.6472V608.209H95.6472ZM92.8292 601.366L88.8173 605.382L94.4771 611.035L98.489 607.02L92.8292 601.366ZM91.6591 419.959V604.193H99.6591V419.959H91.6591ZM85.5702 415.52L92.8292 422.786L98.489 417.132L91.2299 409.866L85.5702 415.52ZM-68.1146 615.459H60.0039V607.459H-68.1146V615.459ZM-72.1146 596.926V611.459H-64.1146V596.926H-72.1146ZM60.0039 592.926H-68.1146V600.926H60.0039V592.926ZM64.0039 611.459V596.926H56.0039V611.459H64.0039Z" fill="#7700D1" mask="url(#path-13-inside-3_208_5)"/>
        <mask id="path-15-inside-4_208_5" fill="white">
            <path fill-rule="evenodd" clip-rule="evenodd" d="M-47.7994 494.693H-19.2328H11.1022H39.6689L47.2104 487.354V430.032C47.2104 425.983 43.8297 422.693 39.6689 422.693C35.508 422.693 32.1274 425.983 32.1274 430.032V479.888H11.1022H-19.2328H-40.2579V430.032C-40.2579 425.983 -43.6386 422.693 -47.7994 422.693C-51.9603 422.693 -55.3409 425.983 -55.3409 430.032V487.354L-47.7994 494.693Z"/>
        </mask>
        <path fill-rule="evenodd" clip-rule="evenodd" d="M-47.7994 494.693H-19.2328H11.1022H39.6689L47.2104 487.354V430.032C47.2104 425.983 43.8297 422.693 39.6689 422.693C35.508 422.693 32.1274 425.983 32.1274 430.032V479.888H11.1022H-19.2328H-40.2579V430.032C-40.2579 425.983 -43.6386 422.693 -47.7994 422.693C-51.9603 422.693 -55.3409 425.983 -55.3409 430.032V487.354L-47.7994 494.693Z" fill="white"/>
        <path d="M-47.7994 494.693L-50.5892 497.559L-49.4245 498.693H-47.7994V494.693ZM39.6689 494.693V498.693H41.294L42.4586 497.559L39.6689 494.693ZM47.2104 487.354L50.0001 490.22L51.2104 489.042V487.354H47.2104ZM32.1274 479.888V483.888H36.1274V479.888H32.1274ZM-40.2579 479.888H-44.2579V483.888H-40.2579V479.888ZM-55.3409 487.354H-59.3409V489.042L-58.1307 490.22L-55.3409 487.354ZM-19.2328 490.693H-47.7994V498.693H-19.2328V490.693ZM-19.2328 498.693H11.1022V490.693H-19.2328V498.693ZM11.1022 498.693H39.6689V490.693H11.1022V498.693ZM42.4586 497.559L50.0001 490.22L44.4207 484.487L36.8792 491.826L42.4586 497.559ZM51.2104 487.354V430.032H43.2104V487.354H51.2104ZM51.2104 430.032C51.2104 423.672 45.9356 418.693 39.6689 418.693V426.693C41.7238 426.693 43.2104 428.294 43.2104 430.032H51.2104ZM39.6689 418.693C33.4021 418.693 28.1274 423.672 28.1274 430.032H36.1274C36.1274 428.294 37.614 426.693 39.6689 426.693V418.693ZM28.1274 430.032V479.888H36.1274V430.032H28.1274ZM32.1274 475.888H11.1022V483.888H32.1274V475.888ZM11.1022 475.888H-19.2328V483.888H11.1022V475.888ZM-40.2579 483.888H-19.2328V475.888H-40.2579V483.888ZM-44.2579 430.032V479.888H-36.2579V430.032H-44.2579ZM-47.7994 426.693C-45.7445 426.693 -44.2579 428.294 -44.2579 430.032H-36.2579C-36.2579 423.672 -41.5327 418.693 -47.7994 418.693V426.693ZM-51.3409 430.032C-51.3409 428.294 -49.8544 426.693 -47.7994 426.693V418.693C-54.0662 418.693 -59.3409 423.672 -59.3409 430.032H-51.3409ZM-51.3409 487.354V430.032H-59.3409V487.354H-51.3409ZM-45.0097 491.826L-52.5512 484.487L-58.1307 490.22L-50.5892 497.559L-45.0097 491.826Z" fill="#7700D1" mask="url(#path-15-inside-4_208_5)"/>
        <rect x="-1.75432" y="1.75432" width="3.50863" height="10.4914" transform="matrix(-1 0 0 1 39.6259 419.693)" fill="white" stroke="white" stroke-width="3.50863"/>
        <path fill-rule="evenodd" clip-rule="evenodd" d="M36.1171 423.455H53.6472C70.8784 423.455 84.8472 437.424 84.8472 454.655V464.358H91.6472V454.655C91.6472 433.668 74.634 416.655 53.6472 416.655H34.3754C32.9021 416.655 31.4484 416.739 30.0189 416.902H36.1171V423.455Z" fill="white"/>
        <path fill-rule="evenodd" clip-rule="evenodd" d="M84.8121 552.237L84.8121 569.767C84.8121 586.998 70.8434 600.967 53.6121 600.967L45.8726 600.967L45.8726 607.767L53.6121 607.767C74.5989 607.767 91.6121 590.754 91.6121 569.767L91.6121 550.495C91.6121 549.053 91.5317 547.629 91.3752 546.229L91.3752 552.237L84.8121 552.237Z" fill="white"/>
    </g>
    <g opacity="0.05" clip-path="url(#clip2_208_5)">
        <path d="M-118.581 293.622H151.311L155.282 297.603V328.572L151.311 332.553H139.013V414.219C139.013 416.438 137.221 418.2 135.043 418.2C132.864 418.2 131.072 416.403 131.072 414.219V378.248H-98.2367V625.57C-98.2367 627.79 -100.029 629.551 -102.207 629.551C-104.386 629.551 -106.178 627.755 -106.178 625.57V332.588H-118.476L-122.447 328.607V297.639L-118.581 293.622ZM131.037 370.285V355.418H-98.2719V370.285H131.037ZM-98.2719 347.42H131.037V332.588H-98.2719V347.42ZM-114.576 324.591H-102.278H135.007H147.306V301.62H-114.611V324.591H-114.576Z" fill="white"/>
        <path fill-rule="evenodd" clip-rule="evenodd" d="M252.305 176V206.848L248.335 210.829H-165.552L-169.522 206.848V122.821L-165.552 118.84H193.902V126.803H-161.581V202.867H244.329V176H252.305Z" fill="white"/>
        <path d="M-512.651 160.836H-339.07C-336.857 160.836 -335.1 162.633 -335.1 164.817C-335.1 167.036 -336.892 168.798 -339.07 168.798H-508.68V229.466H-489.354H225.101H244.427V168.833H74.8169C72.6032 168.833 70.8464 167.037 70.8464 164.852C70.8464 162.633 72.6384 160.871 74.8169 160.871H248.397L252.368 164.852V233.518L248.397 237.499H229.071V413.725C229.071 415.945 227.28 417.706 225.101 417.706C222.922 417.706 221.13 415.909 221.13 413.725V237.499H-485.348V621.589H225.136C227.35 621.589 229.107 623.386 229.107 625.57C229.107 627.754 227.315 629.551 225.136 629.551H-489.319L-493.29 625.57V237.499H-512.615L-516.586 233.518V164.817L-512.651 160.836Z" fill="white"/>
        <rect x="-517.646" y="148.047" width="770.013" height="54.81" fill="#7700D1"/>
        <rect x="-360.36" y="126.681" width="554.262" height="53.1196" fill="#7700D1"/>
        <rect x="229.399" y="165.389" width="38.9119" height="31.4622" fill="#7700D1"/>
        <rect x="229.399" y="150.402" width="38.9119" height="10.5687" fill="#7700D1"/>
        <path fill-rule="evenodd" clip-rule="evenodd" d="M188.015 126.902V118.889C188.658 118.857 189.306 118.84 189.958 118.84H214.305C235.292 118.84 252.305 135.854 252.305 156.84V202.857H244.305V156.84C244.305 140.272 230.874 126.84 214.305 126.84H189.958C189.305 126.84 188.657 126.861 188.015 126.902Z" fill="white"/>
    </g>
    <g opacity="0.2">
        <path d="M299.988 291.999C299.191 291.999 298.534 291.343 298.534 290.545V279.453C298.534 278.656 299.191 277.999 299.988 277.999C300.785 277.999 301.442 278.656 301.442 279.453V290.545C301.442 291.343 300.785 291.999 299.988 291.999Z" fill="white"/>
        <path d="M305.546 285.714H294.454C293.656 285.714 293 285.222 293 284.636C293 284.049 293.656 283.557 294.454 283.557H305.546C306.343 283.557 307 284.049 307 284.636C307 285.222 306.343 285.714 305.546 285.714Z" fill="white"/>
    </g>
    <defs>
        <clipPath id="clip0_208_5">
            <rect width="190" height="190" fill="white" transform="translate(85.2838 417.004)"/>
        </clipPath>
        <clipPath id="clip1_208_5">
            <rect width="190" height="190" fill="white" transform="translate(-98.5 417.004)"/>
        </clipPath>
        <clipPath id="clip2_208_5">
            <rect width="955" height="500" fill="white" transform="matrix(-1 0 0 1 380 107)"/>
        </clipPath>
    </defs>
</svg>