<svg xmlns="http://www.w3.org/2000/svg" width="1851" height="658" viewBox="0 0 1851 658" fill="none">
<g opacity="0.2">
<path d="M932.678 303.129L932.188 303.337L932.011 302.835C931.033 300.049 929.325 297.533 927.042 295.594L927.04 295.592C923.969 292.96 920.054 291.5 916.005 291.5C906.64 291.5 899.019 299.127 899.019 308.503C899.019 309.471 899.8 310.238 900.752 310.238C901.7 310.238 902.484 309.454 902.484 308.503C902.484 301.048 908.536 294.99 915.985 294.99C922.521 294.99 928.059 299.625 929.253 306.034L932.232 307.304C934.038 306.121 936.108 305.492 938.272 305.492C944.378 305.492 949.323 310.463 949.323 316.553C949.323 322.664 944.357 327.614 938.272 327.614H889.983C889.018 327.614 888.251 328.396 888.251 329.349C888.251 330.297 889.052 331.104 890.023 331.104H938.292C946.314 331.104 952.828 324.584 952.828 316.553C952.828 308.522 946.314 302.002 938.292 302.002C936.342 302.002 934.433 302.385 932.678 303.129Z" fill="white" stroke="#7700D1"/>
<path d="M876.233 321.927H919.898C920.863 321.927 921.631 321.145 921.631 320.192C921.631 319.224 920.849 318.457 919.898 318.457H876.233C875.267 318.457 874.5 319.238 874.5 320.192C874.5 321.159 875.281 321.927 876.233 321.927Z" fill="white" stroke="#7700D1"/>
</g>
<g opacity="0.05" clip-path="url(#clip0_213_787)">
<path d="M57.4047 408.55C57.4047 413.394 61.3376 417.326 66.1831 417.326H101.299C106.145 417.326 110.078 413.394 110.078 408.55V355.887C110.078 351.043 106.145 347.111 101.299 347.111H66.1842C61.3387 347.111 57.4057 351.043 57.4057 355.887V408.55H57.4047ZM74.9626 364.665H92.5206V399.773H74.9626V364.665Z" fill="white" stroke="#7700D1" stroke-width="11"/>
<path d="M285.654 619.2C285.654 624.044 289.587 627.976 294.433 627.976H329.547C334.393 627.976 338.326 624.044 338.326 619.2V566.537C338.326 561.693 334.393 557.761 329.547 557.761H294.433C289.587 557.761 285.654 561.693 285.654 566.537V619.2ZM303.212 575.315H320.77V610.423H303.212V575.315Z" fill="white" stroke="#7700D1" stroke-width="11"/>
<path d="M294.433 417.328H329.547C334.393 417.328 338.326 413.395 338.326 408.551V355.889C338.326 351.044 334.393 347.112 329.547 347.112H294.433C289.587 347.112 285.654 351.044 285.654 355.889V408.551C285.654 413.395 289.587 417.328 294.433 417.328ZM303.212 364.665H320.77V399.773H303.212V364.665Z" fill="white" stroke="#7700D1" stroke-width="11"/>
<path d="M145.193 408.55C145.193 413.394 149.126 417.326 153.972 417.326H189.087C193.932 417.326 197.865 413.394 197.865 408.55V355.887C197.865 351.043 193.932 347.111 189.087 347.111H153.972C149.126 347.111 145.193 351.043 145.193 355.887V408.55ZM162.75 364.665H180.308V399.773H162.75V364.665Z" fill="white" stroke="#7700D1" stroke-width="11"/>
<path fill-rule="evenodd" clip-rule="evenodd" d="M276.876 294.449H382.222C387.067 294.449 391 298.381 391 303.225V689.416C391 703.934 379.184 715.748 364.664 715.748H294.435C279.915 715.748 268.098 703.934 268.098 689.416C268.098 674.899 279.915 663.085 294.435 663.085C295.953 663.085 297.463 663.217 298.947 663.48C305.004 652.57 316.531 645.531 329.55 645.531C342.569 645.531 354.095 652.57 360.152 663.48C361.636 663.217 363.146 663.085 364.665 663.085C367.763 663.085 370.687 663.717 373.443 664.7V334.956H387.105V298.181H352.827V312.002H276.876C272.03 312.002 268.097 308.07 268.097 303.225C268.097 298.381 272.03 294.449 276.876 294.449ZM294.433 698.193H364.664C369.501 698.193 373.442 694.253 373.443 689.416C373.443 682.895 365.621 678.384 359.907 682.07C357.5 683.615 354.49 683.896 351.847 682.825C349.196 681.755 347.238 679.455 346.597 676.673C344.745 668.677 337.73 663.085 329.549 663.085C321.367 663.085 314.353 668.677 312.5 676.673C311.859 679.455 309.901 681.755 307.25 682.825C304.599 683.896 301.596 683.615 299.191 682.07C297.716 681.122 296.118 680.64 294.433 680.64C289.595 680.64 285.654 684.58 285.654 689.416C285.654 694.253 289.595 698.193 294.433 698.193Z" fill="white"/>
<path d="M298.947 663.48L297.986 668.896L301.85 669.582L303.756 666.15L298.947 663.48ZM360.152 663.48L355.344 666.15L357.249 669.582L361.114 668.896L360.152 663.48ZM373.443 664.7L371.595 669.88L378.943 672.502V664.7H373.443ZM373.443 334.956V329.456H367.943V334.956H373.443ZM387.105 334.956V340.456H392.605V334.956H387.105ZM387.105 298.181H392.605V292.681H387.105V298.181ZM352.827 298.181V292.681H347.327V298.181H352.827ZM352.827 312.002V317.502H358.327V312.002H352.827ZM373.443 689.416L378.943 689.418V689.416H373.443ZM359.907 682.07L362.878 686.699L362.888 686.692L359.907 682.07ZM351.847 682.825L353.912 677.728L353.907 677.726L351.847 682.825ZM346.597 676.673L351.957 675.438L351.955 675.431L346.597 676.673ZM312.5 676.673L307.142 675.431L307.14 675.438L312.5 676.673ZM299.191 682.07L296.217 686.697L296.218 686.698L299.191 682.07ZM382.222 288.949H276.876V299.949H382.222V288.949ZM396.5 303.225C396.5 295.342 390.104 288.949 382.222 288.949V299.949C384.031 299.949 385.5 301.42 385.5 303.225H396.5ZM396.5 689.416V303.225H385.5V689.416H396.5ZM364.664 721.248C382.22 721.248 396.5 706.972 396.5 689.416H385.5C385.5 700.895 376.147 710.248 364.664 710.248V721.248ZM294.435 721.248H364.664V710.248H294.435V721.248ZM262.598 689.416C262.598 706.972 276.878 721.248 294.435 721.248V710.248C282.951 710.248 273.598 700.895 273.598 689.416H262.598ZM294.435 657.585C276.878 657.585 262.598 671.861 262.598 689.416H273.598C273.598 677.938 282.951 668.585 294.435 668.585V657.585ZM299.908 658.065C298.103 657.744 296.271 657.585 294.435 657.585V668.585C295.636 668.585 296.824 668.689 297.986 668.896L299.908 658.065ZM329.55 640.031C314.504 640.031 301.152 648.179 294.138 660.81L303.756 666.15C308.857 656.962 318.557 651.031 329.55 651.031V640.031ZM364.961 660.81C357.948 648.179 344.595 640.031 329.55 640.031V651.031C340.542 651.031 350.242 656.962 355.344 666.15L364.961 660.81ZM364.665 657.585C362.828 657.585 360.996 657.744 359.191 658.065L361.114 668.896C362.275 668.689 363.464 668.585 364.665 668.585V657.585ZM375.291 659.52C372.077 658.373 368.522 657.585 364.665 657.585V668.585C367.004 668.585 369.297 669.06 371.595 669.88L375.291 659.52ZM367.943 334.956V664.7H378.943V334.956H367.943ZM387.105 329.456H373.443V340.456H387.105V329.456ZM381.605 298.181V334.956H392.605V298.181H381.605ZM352.827 303.681H387.105V292.681H352.827V303.681ZM358.327 312.002V298.181H347.327V312.002H358.327ZM276.876 317.502H352.827V306.502H276.876V317.502ZM262.597 303.225C262.597 311.109 268.994 317.502 276.876 317.502V306.502C275.067 306.502 273.597 305.031 273.597 303.225H262.597ZM276.876 288.949C268.994 288.949 262.597 295.342 262.597 303.225H273.597C273.597 301.42 275.067 299.949 276.876 299.949V288.949ZM364.664 692.693H294.433V703.693H364.664V692.693ZM367.943 689.415C367.943 691.214 366.464 692.693 364.664 692.693V703.693C372.538 703.693 378.941 697.291 378.943 689.418L367.943 689.415ZM362.888 686.692C363.781 686.116 364.966 686.068 366.148 686.724C367.366 687.4 367.943 688.47 367.943 689.416H378.943C378.943 678.661 366.401 671.336 356.925 677.449L362.888 686.692ZM349.782 687.923C354.083 689.666 358.971 689.207 362.878 686.699L356.935 677.442C356.029 678.024 354.897 678.127 353.912 677.728L349.782 687.923ZM341.238 677.907C342.281 682.434 345.467 686.18 349.788 687.925L353.907 677.726C352.926 677.329 352.196 676.475 351.957 675.438L341.238 677.907ZM329.549 668.585C335.158 668.585 339.961 672.399 341.239 677.914L351.955 675.431C349.528 664.954 340.303 657.585 329.549 657.585V668.585ZM317.858 677.914C319.136 672.399 323.939 668.585 329.549 668.585V657.585C318.795 657.585 309.57 664.954 307.142 675.431L317.858 677.914ZM309.31 687.925C313.631 686.18 316.817 682.434 317.86 677.907L307.14 675.438C306.901 676.475 306.172 677.329 305.19 677.726L309.31 687.925ZM296.218 686.698C300.126 689.208 305.006 689.664 309.31 687.925L305.19 677.726C304.192 678.129 303.066 678.022 302.163 677.443L296.218 686.698ZM294.433 686.14C295.012 686.14 295.585 686.291 296.217 686.697L302.165 677.444C299.846 675.953 297.223 675.14 294.433 675.14V686.14ZM291.154 689.416C291.154 687.619 292.632 686.14 294.433 686.14V675.14C286.559 675.14 280.154 681.542 280.154 689.416H291.154ZM294.433 692.693C292.632 692.693 291.154 691.214 291.154 689.416H280.154C280.154 697.291 286.559 703.693 294.433 703.693V692.693Z" fill="#7700D1"/>
<path d="M153.972 312.003H189.087C193.932 312.003 197.865 308.071 197.865 303.226V250.564C197.865 245.72 193.932 241.787 189.087 241.787H153.972C149.126 241.787 145.193 245.72 145.193 250.564V303.226C145.193 308.071 149.126 312.003 153.972 312.003ZM162.75 259.341H180.308V294.449H162.75V259.341Z" fill="white" stroke="#7700D1" stroke-width="11"/>
<path d="M145.193 513.875C145.193 518.719 149.126 522.651 153.972 522.651H189.087C193.932 522.651 197.865 518.719 197.865 513.875V461.212C197.865 456.368 193.932 452.436 189.087 452.436H153.972C149.126 452.436 145.193 456.368 145.193 461.212V513.875ZM162.75 469.99H180.308V505.098H162.75V469.99Z" fill="white" stroke="#7700D1" stroke-width="11"/>
<path d="M66.1842 312.003H101.299C106.145 312.003 110.078 308.071 110.078 303.226V250.564C110.078 245.72 106.145 241.787 101.299 241.787H66.1842C61.3387 241.787 57.4058 245.72 57.4058 250.564V303.226C57.4047 308.071 61.3377 312.003 66.1842 312.003ZM74.9627 259.341H92.5207V294.449H74.9627V259.341Z" fill="white" stroke="#7700D1" stroke-width="11"/>
<path d="M121.402 612.968C119.822 614.635 118.856 616.918 118.856 619.2C118.856 621.483 119.822 623.764 121.402 625.432C123.07 627.012 125.353 627.978 127.635 627.978C129.918 627.978 132.2 627.012 133.869 625.432C135.449 623.765 136.415 621.483 136.415 619.2C136.415 616.918 135.449 614.637 133.869 612.968C130.532 609.72 124.738 609.72 121.402 612.968Z" fill="white" stroke="#7700D1" stroke-width="11"/>
<path d="M57.4047 513.875C57.4047 518.719 61.3376 522.651 66.1831 522.651H101.299C106.145 522.651 110.078 518.719 110.078 513.875V461.212C110.078 456.368 106.145 452.436 101.299 452.436H66.1842C61.3387 452.436 57.4057 456.368 57.4057 461.212V513.875H57.4047ZM74.9626 469.99H92.5206V505.098H74.9626V469.99Z" fill="white" stroke="#7700D1" stroke-width="11"/>
<path d="M39.8479 566.537C39.8479 571.382 43.7809 575.314 48.6264 575.314H74.9628V654.308C74.9628 659.152 78.8958 663.084 83.7413 663.084C88.5868 663.084 92.5198 659.152 92.5198 654.308V575.314H162.751V654.308C162.751 659.152 166.684 663.084 171.529 663.084C176.375 663.084 180.308 659.152 180.308 654.308V575.314H206.644C211.49 575.314 215.423 571.382 215.423 566.537C215.423 561.693 211.49 557.761 206.644 557.761H48.6264C43.7809 557.761 39.8479 561.693 39.8479 566.537Z" fill="white" stroke="#7700D1" stroke-width="11"/>
<path d="M285.654 513.875C285.654 518.719 289.587 522.651 294.433 522.651H329.547C334.393 522.651 338.326 518.719 338.326 513.875V461.212C338.326 456.368 334.393 452.436 329.547 452.436H294.433C289.587 452.436 285.654 456.368 285.654 461.212V513.875ZM303.212 469.99H320.77V505.098H303.212V469.99Z" fill="white" stroke="#7700D1" stroke-width="11"/>
<path fill-rule="evenodd" clip-rule="evenodd" d="M205.98 189.124H13.5113C11.6184 189.124 9.86485 189.724 8.43056 190.744H57.4058V206.677H205.98V189.124ZM22.2897 235.857H7.42185V191.581C5.76439 193.178 4.73279 195.419 4.73279 197.901V654.307C4.73279 659.152 8.66577 663.084 13.5113 663.084C18.3568 663.084 22.2897 659.152 22.2897 654.307V235.857ZM232.981 654.307V236.685H250.538V654.307C250.538 659.152 246.605 663.084 241.76 663.084C236.914 663.084 232.981 659.152 232.981 654.307Z" fill="white"/>
<path d="M205.98 189.124H210.98V184.124H205.98V189.124ZM8.43056 190.744L5.53269 186.669L-7.22676 195.744H8.43056V190.744ZM57.4058 190.744H62.4058V185.744H57.4058V190.744ZM57.4058 206.677H52.4058V211.677H57.4058V206.677ZM205.98 206.677V211.677H210.98V206.677H205.98ZM22.2897 235.857H27.2897V230.857H22.2897V235.857ZM7.42185 235.857H2.42185V240.857H7.42185V235.857ZM7.42185 191.581H12.4218V179.821L3.95277 187.98L7.42185 191.581ZM232.981 236.685V231.685H227.981V236.685H232.981ZM250.538 236.685H255.538V231.685H250.538V236.685ZM13.5113 194.124H205.98V184.124H13.5113V194.124ZM11.3284 194.818C11.9451 194.38 12.6918 194.124 13.5113 194.124V184.124C10.5451 184.124 7.78464 185.068 5.53269 186.669L11.3284 194.818ZM8.43056 195.744H57.4058V185.744H8.43056V195.744ZM52.4058 190.744V206.677H62.4058V190.744H52.4058ZM205.98 201.677H57.4058V211.677H205.98V201.677ZM200.98 189.124V206.677H210.98V189.124H200.98ZM22.2897 230.857H7.42185V240.857H22.2897V230.857ZM12.4218 235.857V191.581H2.42185V235.857H12.4218ZM9.73279 197.901C9.73279 196.835 10.1699 195.876 10.8909 195.181L3.95277 187.98C1.3589 190.479 -0.267212 194.004 -0.267212 197.901H9.73279ZM9.73279 654.307V197.901H-0.267212V654.307H9.73279ZM13.5113 658.084C11.4263 658.084 9.73279 656.39 9.73279 654.307H-0.267212C-0.267212 661.914 5.90526 668.084 13.5113 668.084V658.084ZM17.2897 654.307C17.2897 656.39 15.5962 658.084 13.5113 658.084V668.084C21.1173 668.084 27.2897 661.914 27.2897 654.307H17.2897ZM17.2897 235.857V654.307H27.2897V235.857H17.2897ZM227.981 236.685V654.307H237.981V236.685H227.981ZM250.538 231.685H232.981V241.685H250.538V231.685ZM255.538 654.307V236.685H245.538V654.307H255.538ZM241.76 668.084C249.366 668.084 255.538 661.914 255.538 654.307H245.538C245.538 656.39 243.845 658.084 241.76 658.084V668.084ZM227.981 654.307C227.981 661.914 234.154 668.084 241.76 668.084V658.084C239.675 658.084 237.981 656.39 237.981 654.307H227.981Z" fill="#7700D1"/>
<path fill-rule="evenodd" clip-rule="evenodd" d="M325.972 307.348V300.348H347.254C368.241 300.348 385.254 317.361 385.254 338.348V347.111H378.254V338.348C378.254 321.227 364.375 307.348 347.254 307.348H325.972Z" fill="white"/>
<path fill-rule="evenodd" clip-rule="evenodd" d="M185.451 202.172V195.172H206.844C227.83 195.172 244.844 212.185 244.844 233.172V241.788H237.844V233.172C237.844 216.051 223.965 202.172 206.844 202.172H185.451Z" fill="white"/>
<path fill-rule="evenodd" clip-rule="evenodd" d="M69.4977 201.459V194.459H48.216C27.2292 194.459 10.216 211.472 10.216 232.459V241.788H17.216V232.459C17.216 215.338 31.0952 201.459 48.216 201.459H69.4977Z" fill="white"/>
</g>
<g opacity="0.05" clip-path="url(#clip1_213_787)">
<path d="M1657.68 407.56C1657.68 412.405 1661.62 416.337 1666.46 416.337H1701.58C1706.42 416.337 1710.36 412.405 1710.36 407.56V354.898C1710.36 350.053 1706.42 346.121 1701.58 346.121H1666.46C1661.62 346.121 1657.69 350.053 1657.69 354.898V407.56H1657.68ZM1675.24 363.676H1692.8V398.784H1675.24V363.676Z" fill="white" stroke="#7700D1" stroke-width="11"/>
<path fill-rule="evenodd" clip-rule="evenodd" d="M1473.33 293.459H1578.68C1583.52 293.459 1587.45 297.392 1587.45 302.237C1587.45 307.081 1583.52 311.014 1578.68 311.014H1508.74V296.638H1468.04V337.764H1482.11V477.778C1482.11 482.622 1478.18 486.554 1473.33 486.554C1468.48 486.554 1464.55 482.622 1464.55 477.778V302.236C1464.55 297.391 1468.48 293.459 1473.33 293.459Z" fill="white"/>
<path d="M1508.74 311.014H1503.74V316.014H1508.74V311.014ZM1508.74 296.638H1513.74V291.638H1508.74V296.638ZM1468.04 296.638V291.638H1463.04V296.638H1468.04ZM1468.04 337.764H1463.04V342.764H1468.04V337.764ZM1482.11 337.764H1487.11V332.764H1482.11V337.764ZM1578.68 288.459H1473.33V298.459H1578.68V288.459ZM1592.45 302.237C1592.45 294.631 1586.28 288.459 1578.68 288.459V298.459C1580.76 298.459 1582.45 300.154 1582.45 302.237H1592.45ZM1578.68 316.014C1586.28 316.014 1592.45 309.844 1592.45 302.237H1582.45C1582.45 304.319 1580.76 306.014 1578.68 306.014V316.014ZM1508.74 316.014H1578.68V306.014H1508.74V316.014ZM1503.74 296.638V311.014H1513.74V296.638H1503.74ZM1468.04 301.638H1508.74V291.638H1468.04V301.638ZM1473.04 337.764V296.638H1463.04V337.764H1473.04ZM1482.11 332.764H1468.04V342.764H1482.11V332.764ZM1487.11 477.778V337.764H1477.11V477.778H1487.11ZM1473.33 491.554C1480.94 491.554 1487.11 485.384 1487.11 477.778H1477.11C1477.11 479.86 1475.41 481.554 1473.33 481.554V491.554ZM1459.55 477.778C1459.55 485.384 1465.72 491.554 1473.33 491.554V481.554C1471.24 481.554 1469.55 479.86 1469.55 477.778H1459.55ZM1459.55 302.236V477.778H1469.55V302.236H1459.55ZM1473.33 288.459C1465.72 288.459 1459.55 294.629 1459.55 302.236H1469.55C1469.55 300.154 1471.24 298.459 1473.33 298.459V288.459Z" fill="#7700D1"/>
<path fill-rule="evenodd" clip-rule="evenodd" d="M1529.6 304.159V299.359H1508.32C1487.33 299.359 1470.32 316.372 1470.32 337.359V346.121H1475.12V337.359C1475.12 319.023 1489.98 304.159 1508.32 304.159H1529.6Z" fill="white"/>
<path d="M1508.45 504.109C1465.05 504.109 1464.55 617.069 1464.55 618.21C1464.55 639.407 1479.66 657.128 1499.67 661.209V705.981C1499.67 710.826 1503.6 714.758 1508.44 714.758C1513.29 714.758 1517.22 710.826 1517.22 705.981V661.209C1537.23 657.128 1552.34 639.407 1552.34 618.21C1552.34 617.069 1551.84 504.109 1508.45 504.109ZM1508.45 644.541C1493.93 644.541 1482.11 632.727 1482.11 618.21C1482.11 574.483 1493.86 521.662 1508.45 521.662C1523.04 521.662 1534.78 574.483 1534.78 618.21C1534.78 632.727 1522.97 644.541 1508.45 644.541Z" fill="white" stroke="#7700D1" stroke-width="11"/>
<path d="M1561.12 451.446H1526C1521.16 451.446 1517.22 455.378 1517.22 460.223V477.777C1517.22 482.622 1521.16 486.554 1526 486.554C1530.85 486.554 1534.78 482.622 1534.78 477.777V469.001H1552.34V512.886C1552.34 517.731 1556.27 521.663 1561.12 521.663C1565.96 521.663 1569.9 517.731 1569.9 512.886V460.224C1569.9 455.378 1565.96 451.446 1561.12 451.446Z" fill="white" stroke="#7700D1" stroke-width="11"/>
<path d="M1561.12 346.121H1526C1521.16 346.121 1517.22 350.053 1517.22 354.898V407.56C1517.22 412.405 1521.16 416.337 1526 416.337H1561.12C1565.96 416.337 1569.9 412.405 1569.9 407.56V354.898C1569.9 350.053 1565.96 346.121 1561.12 346.121ZM1552.34 398.784H1534.78V363.676H1552.34V398.784H1552.34Z" fill="white" stroke="#7700D1" stroke-width="11"/>
<path d="M1745.47 407.56C1745.47 412.405 1749.41 416.337 1754.25 416.337H1789.37C1794.21 416.337 1798.15 412.405 1798.15 407.56V354.898C1798.15 350.053 1794.21 346.121 1789.37 346.121H1754.25C1749.41 346.121 1745.47 350.053 1745.47 354.898V407.56ZM1763.03 363.676H1780.59V398.784H1763.03V363.676Z" fill="white" stroke="#7700D1" stroke-width="11"/>
<path d="M1754.25 311.014H1789.37C1794.21 311.014 1798.15 307.082 1798.15 302.237V249.575C1798.15 244.73 1794.21 240.798 1789.37 240.798H1754.25C1749.41 240.798 1745.47 244.73 1745.47 249.575V302.237C1745.47 307.082 1749.41 311.014 1754.25 311.014ZM1763.03 258.351H1780.59V293.459H1763.03V258.351Z" fill="white" stroke="#7700D1" stroke-width="11"/>
<path d="M1745.47 512.885C1745.47 517.73 1749.41 521.662 1754.25 521.662H1789.37C1794.21 521.662 1798.15 517.73 1798.15 512.885V460.223C1798.15 455.378 1794.21 451.446 1789.37 451.446H1754.25C1749.41 451.446 1745.47 455.378 1745.47 460.223V512.885ZM1763.03 469.001H1780.59V504.108H1763.03V469.001Z" fill="white" stroke="#7700D1" stroke-width="11"/>
<path d="M1666.46 311.014H1701.58C1706.42 311.014 1710.36 307.082 1710.36 302.237V249.575C1710.36 244.73 1706.42 240.798 1701.58 240.798H1666.46C1661.62 240.798 1657.69 244.73 1657.69 249.575V302.237C1657.69 307.082 1661.62 311.014 1666.46 311.014ZM1675.24 258.351H1692.8V293.459H1675.24V258.351Z" fill="white" stroke="#7700D1" stroke-width="11"/>
<path d="M1721.68 611.979C1720.1 613.646 1719.14 615.928 1719.14 618.211C1719.14 620.493 1720.1 622.774 1721.68 624.443C1723.35 626.023 1725.63 626.988 1727.92 626.988C1730.2 626.988 1732.48 626.023 1734.15 624.443C1735.73 622.775 1736.7 620.493 1736.7 618.211C1736.7 615.928 1735.73 613.647 1734.15 611.979C1730.81 608.73 1725.02 608.73 1721.68 611.979Z" fill="white" stroke="#7700D1" stroke-width="11"/>
<path d="M1657.68 512.885C1657.68 517.73 1661.62 521.662 1666.46 521.662H1701.58C1706.42 521.662 1710.36 517.73 1710.36 512.885V460.223C1710.36 455.378 1706.42 451.446 1701.58 451.446H1666.46C1661.62 451.446 1657.69 455.378 1657.69 460.223V512.885H1657.68ZM1675.24 469.001H1692.8V504.108H1675.24V469.001Z" fill="white" stroke="#7700D1" stroke-width="11"/>
<path d="M1640.13 565.548C1640.13 570.392 1644.06 574.325 1648.91 574.325H1675.24V653.318C1675.24 658.163 1679.18 662.095 1684.02 662.095C1688.87 662.095 1692.8 658.163 1692.8 653.318V574.325H1763.03V653.318C1763.03 658.163 1766.96 662.095 1771.81 662.095C1776.65 662.095 1780.59 658.163 1780.59 653.318V574.325H1806.92C1811.77 574.325 1815.7 570.392 1815.7 565.548C1815.7 560.703 1811.77 556.771 1806.92 556.771H1648.91C1644.06 556.771 1640.13 560.703 1640.13 565.548Z" fill="white" stroke="#7700D1" stroke-width="11"/>
<path fill-rule="evenodd" clip-rule="evenodd" d="M1806.26 188.134H1613.79C1611.9 188.134 1610.15 188.734 1608.71 189.754H1657.69V205.688H1806.26V188.134ZM1622.57 234.867H1607.7V190.591C1606.04 192.188 1605.01 194.43 1605.01 196.911V653.318C1605.01 658.162 1608.95 662.095 1613.79 662.095C1618.64 662.095 1622.57 658.162 1622.57 653.318V234.867ZM1833.26 653.318V235.695H1850.82V653.318C1850.82 658.162 1846.89 662.095 1842.04 662.095C1837.19 662.095 1833.26 658.162 1833.26 653.318Z" fill="white"/>
<path d="M1806.26 188.134H1811.26V183.134H1806.26V188.134ZM1608.71 189.754L1605.81 185.68L1593.05 194.754H1608.71V189.754ZM1657.69 189.754H1662.69V184.754H1657.69V189.754ZM1657.69 205.688H1652.69V210.688H1657.69V205.688ZM1806.26 205.688V210.688H1811.26V205.688H1806.26ZM1622.57 234.867H1627.57V229.867H1622.57V234.867ZM1607.7 234.867H1602.7V239.867H1607.7V234.867ZM1607.7 190.591H1612.7V178.831L1604.23 186.99L1607.7 190.591ZM1833.26 235.695V230.695H1828.26V235.695H1833.26ZM1850.82 235.695H1855.82V230.695H1850.82V235.695ZM1613.79 193.134H1806.26V183.134H1613.79V193.134ZM1611.61 193.829C1612.23 193.39 1612.97 193.134 1613.79 193.134V183.134C1610.83 183.134 1608.07 184.078 1605.81 185.68L1611.61 193.829ZM1608.71 194.754H1657.69V184.754H1608.71V194.754ZM1652.69 189.754V205.688H1662.69V189.754H1652.69ZM1806.26 200.688H1657.69V210.688H1806.26V200.688ZM1801.26 188.134V205.688H1811.26V188.134H1801.26ZM1622.57 229.867H1607.7V239.867H1622.57V229.867ZM1612.7 234.867V190.591H1602.7V234.867H1612.7ZM1610.01 196.911C1610.01 195.845 1610.45 194.887 1611.17 194.192L1604.23 186.99C1601.64 189.489 1600.01 193.015 1600.01 196.911H1610.01ZM1610.01 653.318V196.911H1600.01V653.318H1610.01ZM1613.79 657.095C1611.71 657.095 1610.01 655.4 1610.01 653.318H1600.01C1600.01 660.925 1606.19 667.095 1613.79 667.095V657.095ZM1617.57 653.318C1617.57 655.4 1615.88 657.095 1613.79 657.095V667.095C1621.4 667.095 1627.57 660.925 1627.57 653.318H1617.57ZM1617.57 234.867V653.318H1627.57V234.867H1617.57ZM1828.26 235.695V653.318H1838.26V235.695H1828.26ZM1850.82 230.695H1833.26V240.695H1850.82V230.695ZM1855.82 653.318V235.695H1845.82V653.318H1855.82ZM1842.04 667.095C1849.65 667.095 1855.82 660.925 1855.82 653.318H1845.82C1845.82 655.4 1844.13 657.095 1842.04 657.095V667.095ZM1828.26 653.318C1828.26 660.925 1834.43 667.095 1842.04 667.095V657.095C1839.96 657.095 1838.26 655.4 1838.26 653.318H1828.26Z" fill="#7700D1"/>
<path fill-rule="evenodd" clip-rule="evenodd" d="M1785.73 201.183V194.183H1807.12C1828.11 194.183 1845.12 211.196 1845.12 232.183V240.798H1838.12V232.183C1838.12 215.062 1824.24 201.183 1807.12 201.183H1785.73Z" fill="white"/>
<path fill-rule="evenodd" clip-rule="evenodd" d="M1669.78 200.47V193.47H1648.5C1627.51 193.47 1610.5 210.483 1610.5 231.47V240.798H1617.5V231.47C1617.5 214.349 1631.38 200.47 1648.5 200.47H1669.78Z" fill="white"/>
</g>
<defs>
<clipPath id="clip0_213_787">
<rect width="391" height="657" fill="white" transform="translate(0 1)"/>
</clipPath>
<clipPath id="clip1_213_787">
<rect width="407" height="657" fill="white" transform="translate(1444 0.010498)"/>
</clipPath>
</defs>
</svg>