<svg xmlns="http://www.w3.org/2000/svg" width="386" height="682" viewBox="0 0 386 682" fill="none">
    <g opacity="0.2">
        <path d="M89.4041 31.8224H133.069C134.314 31.8224 135.302 30.8138 135.302 29.5875C135.302 28.3415 134.294 27.3527 133.069 27.3527H89.4041C88.1594 27.3527 87.1714 28.3613 87.1714 29.5875C87.1714 30.8138 88.1791 31.8224 89.4041 31.8224Z" fill="white"/>
        <path d="M108.155 40.9994H156.444C164.742 40.9994 171.48 34.2552 171.48 25.9485C171.48 17.6418 164.742 10.8976 156.444 10.8976C154.429 10.8976 152.453 11.2932 150.635 12.0645C149.627 9.19674 147.869 6.60586 145.518 4.6083C142.356 1.89874 138.326 0.39563 134.157 0.39563C128.289 0.39563 122.875 3.38207 119.654 8.10896C117.856 6.1114 114.833 4.05451 110.032 4.05451C102.82 4.05451 96.9721 9.92852 96.9721 17.1276C96.9721 18.3736 97.9798 19.3625 99.2048 19.3625C100.45 19.3625 101.437 18.3539 101.437 17.1276C101.437 12.381 105.29 8.54407 110.012 8.54407C115.94 8.54407 117.659 13.1325 117.718 13.3303V13.3105L121.946 13.3699C123.823 8.28696 128.723 4.88518 134.157 4.88518C140.539 4.88518 145.933 9.47363 146.98 15.7827L150.457 17.2661C152.235 16.0399 154.29 15.3872 156.444 15.3872C162.273 15.3872 166.995 20.1338 166.995 25.9485C166.995 31.783 162.253 36.5099 156.444 36.5099H108.155C106.91 36.5099 105.923 37.5185 105.923 38.7447C105.903 39.9907 106.91 40.9994 108.155 40.9994Z" fill="white"/>
    </g>
    <g opacity="0.2">
        <path d="M82.9989 189C82.4505 189 81.9989 188.343 81.9989 187.546V176.453C81.9989 175.656 82.4505 175 82.9989 175C83.5473 175 83.9989 175.656 83.9989 176.453V187.546C83.9989 188.343 83.5473 189 82.9989 189Z" fill="white"/>
        <path d="M88.5458 182.715H77.4537C76.6564 182.715 75.9998 182.222 75.9998 181.636C75.9998 181.05 76.6564 180.557 77.4537 180.557H88.5458C89.3431 180.557 89.9998 181.05 89.9998 181.636C89.9998 182.222 89.3431 182.715 88.5458 182.715Z" fill="white"/>
    </g>
    <g opacity="0.05" clip-path="url(#clip0_208_6)">
        <path d="M499.145 367.622H229.253L225.282 371.603V402.571L229.253 406.553H241.551V488.218C241.551 490.438 243.343 492.2 245.521 492.2C247.7 492.2 249.492 490.403 249.492 488.218V452.247H478.801V699.57C478.801 701.79 480.593 703.551 482.771 703.551C484.95 703.551 486.742 701.754 486.742 699.57V406.588H499.04L503.01 402.607V371.639L499.145 367.622ZM249.527 444.285V429.418H478.836V444.285H249.527ZM478.836 421.42H249.527V406.588H478.836V421.42ZM495.14 398.59H482.841H245.557H233.258V375.62H495.175V398.59H495.14Z" fill="white"/>
        <path fill-rule="evenodd" clip-rule="evenodd" d="M128.259 250V280.848L132.229 284.829H546.116L550.086 280.848V196.821L546.116 192.84H186.662V200.802H542.145V276.867H136.235V250H128.259Z" fill="white"/>
        <path d="M893.214 234.836H719.634C717.42 234.836 715.664 236.632 715.664 238.817C715.664 241.036 717.456 242.798 719.634 242.798H889.244V303.466H869.918H155.463H136.137V242.833H305.747C307.961 242.833 309.718 241.036 309.718 238.852C309.718 236.632 307.926 234.871 305.747 234.871H132.167L128.196 238.852V307.518L132.167 311.499H151.492V487.725C151.492 489.944 153.284 491.706 155.463 491.706C157.642 491.706 159.434 489.909 159.434 487.725V311.499H865.912V695.589H155.428C153.214 695.589 151.457 697.385 151.457 699.57C151.457 701.754 153.249 703.551 155.428 703.551H869.883L873.854 699.57V311.499H893.179L897.15 307.518V238.817L893.214 234.836Z" fill="white"/>
        <rect width="770.013" height="54.81" transform="matrix(-1 0 0 1 898.209 222.047)" fill="#7700D1"/>
        <rect width="554.262" height="53.1196" transform="matrix(-1 0 0 1 740.924 200.681)" fill="#7700D1"/>
        <rect width="38.9119" height="31.4622" transform="matrix(-1 0 0 1 151.165 239.389)" fill="#7700D1"/>
        <rect width="38.9119" height="10.5687" transform="matrix(-1 0 0 1 151.165 224.402)" fill="#7700D1"/>
        <path fill-rule="evenodd" clip-rule="evenodd" d="M192.549 200.902V192.889C191.906 192.857 191.258 192.84 190.606 192.84H166.259C145.272 192.84 128.259 209.853 128.259 230.84V276.857H136.259V230.84C136.259 214.272 149.69 200.84 166.259 200.84H190.606C191.259 200.84 191.907 200.861 192.549 200.902Z" fill="white"/>
    </g>
    <g clip-path="url(#clip1_208_6)">
        <mask id="path-13-inside-1_208_6" fill="white">
            <path fill-rule="evenodd" clip-rule="evenodd" d="M108.38 486.693H292.429L299.688 493.959V678.192L296.538 681.346V645.169H285.106V531.192H291.912V490.902H246.417V501.29H149.57V490.902H105.133V531.192H115.639V645.169H105.133V682.208L101.121 678.192V493.959L108.38 486.693ZM136.776 685.459H264.895V670.926H136.776V685.459Z"/>
        </mask>
        <path fill-rule="evenodd" clip-rule="evenodd" d="M108.38 486.693H292.429L299.688 493.959V678.192L296.538 681.346V645.169H285.106V531.192H291.912V490.902H246.417V501.29H149.57V490.902H105.133V531.192H115.639V645.169H105.133V682.208L101.121 678.192V493.959L108.38 486.693ZM136.776 685.459H264.895V670.926H136.776V685.459Z" fill="white"/>
        <path d="M292.429 486.693V482.693H294.087L295.259 483.866L292.429 486.693ZM108.38 486.693L105.55 483.866L106.722 482.693H108.38V486.693ZM299.688 493.959L302.518 491.132L303.688 492.304V493.959H299.688ZM299.688 678.192H303.688V679.848L302.518 681.019L299.688 678.192ZM296.538 681.346L299.368 684.173L292.538 691.01V681.346H296.538ZM296.538 645.169V641.169H300.538V645.169H296.538ZM285.106 645.169V649.169H281.106V645.169H285.106ZM285.106 531.192H281.106V527.192H285.106V531.192ZM291.912 531.192H295.912V535.192H291.912V531.192ZM291.912 490.902V486.902H295.912V490.902H291.912ZM246.417 490.902H242.417V486.902H246.417V490.902ZM246.417 501.29H250.417V505.29H246.417V501.29ZM149.57 501.29V505.29H145.57V501.29H149.57ZM149.57 490.902V486.902H153.57V490.902H149.57ZM105.133 490.902H101.133V486.902H105.133V490.902ZM105.133 531.192V535.192H101.133V531.192H105.133ZM115.639 531.192V527.192H119.639V531.192H115.639ZM115.639 645.169H119.639V649.169H115.639V645.169ZM105.133 645.169H101.133V641.169H105.133V645.169ZM105.133 682.208H109.133V691.872L102.303 685.035L105.133 682.208ZM101.121 678.192L98.2912 681.019L97.121 679.848V678.192H101.121ZM101.121 493.959H97.121V492.304L98.2912 491.132L101.121 493.959ZM264.895 685.459H268.895V689.459H264.895V685.459ZM136.776 685.459V689.459H132.776V685.459H136.776ZM264.895 670.926V666.926H268.895V670.926H264.895ZM136.776 670.926H132.776V666.926H136.776V670.926ZM292.429 490.693H108.38V482.693H292.429V490.693ZM296.859 496.786L289.599 489.52L295.259 483.866L302.518 491.132L296.859 496.786ZM295.688 678.192V493.959H303.688V678.192H295.688ZM293.708 678.519L296.859 675.365L302.518 681.019L299.368 684.173L293.708 678.519ZM300.538 645.169V681.346H292.538V645.169H300.538ZM285.106 641.169H296.538V649.169H285.106V641.169ZM289.106 531.192V645.169H281.106V531.192H289.106ZM285.106 527.192H291.912V535.192H285.106V527.192ZM287.912 531.192V490.902H295.912V531.192H287.912ZM291.912 494.902H246.417V486.902H291.912V494.902ZM250.417 490.902V501.29H242.417V490.902H250.417ZM149.57 497.29H246.417V505.29H149.57V497.29ZM153.57 490.902V501.29H145.57V490.902H153.57ZM105.133 486.902H149.57V494.902H105.133V486.902ZM101.133 531.192V490.902H109.133V531.192H101.133ZM115.639 535.192H105.133V527.192H115.639V535.192ZM111.639 645.169V531.192H119.639V645.169H111.639ZM105.133 641.169H115.639V649.169H105.133V641.169ZM101.133 682.208V645.169H109.133V682.208H101.133ZM103.951 675.365L107.963 679.381L102.303 685.035L98.2912 681.019L103.951 675.365ZM105.121 493.959V678.192H97.121V493.959H105.121ZM111.21 489.52L103.951 496.786L98.2912 491.132L105.55 483.866L111.21 489.52ZM264.895 689.459H136.776V681.459H264.895V689.459ZM268.895 670.926V685.459H260.895V670.926H268.895ZM136.776 666.926H264.895V674.926H136.776V666.926ZM132.776 685.459V670.926H140.776V685.459H132.776Z" fill="#7700D1" mask="url(#path-13-inside-1_208_6)"/>
        <mask id="path-15-inside-2_208_6" fill="white">
            <path fill-rule="evenodd" clip-rule="evenodd" d="M244.58 568.693H216.013H185.678H157.111L149.57 561.354V504.032C149.57 499.983 152.95 496.693 157.111 496.693C161.272 496.693 164.653 499.983 164.653 504.032V553.888H185.678H216.013H237.038V504.032C237.038 499.983 240.419 496.693 244.58 496.693C248.74 496.693 252.121 499.983 252.121 504.032V561.354L244.58 568.693Z"/>
        </mask>
        <path fill-rule="evenodd" clip-rule="evenodd" d="M244.58 568.693H216.013H185.678H157.111L149.57 561.354V504.032C149.57 499.983 152.95 496.693 157.111 496.693C161.272 496.693 164.653 499.983 164.653 504.032V553.888H185.678H216.013H237.038V504.032C237.038 499.983 240.419 496.693 244.58 496.693C248.74 496.693 252.121 499.983 252.121 504.032V561.354L244.58 568.693Z" fill="white"/>
        <path d="M244.58 568.693L247.369 571.559L246.205 572.693H244.58V568.693ZM157.111 568.693V572.693H155.486L154.322 571.559L157.111 568.693ZM149.57 561.354L146.78 564.22L145.57 563.042V561.354H149.57ZM164.653 553.888V557.888H160.653V553.888H164.653ZM237.038 553.888H241.038V557.888H237.038V553.888ZM252.121 561.354H256.121V563.042L254.911 564.22L252.121 561.354ZM216.013 564.693H244.58V572.693H216.013V564.693ZM216.013 572.693H185.678V564.693H216.013V572.693ZM185.678 572.693H157.111V564.693H185.678V572.693ZM154.322 571.559L146.78 564.22L152.359 558.487L159.901 565.826L154.322 571.559ZM145.57 561.354V504.032H153.57V561.354H145.57ZM145.57 504.032C145.57 497.672 150.845 492.693 157.111 492.693V500.693C155.056 500.693 153.57 502.294 153.57 504.032H145.57ZM157.111 492.693C163.378 492.693 168.653 497.672 168.653 504.032H160.653C160.653 502.294 159.166 500.693 157.111 500.693V492.693ZM168.653 504.032V553.888H160.653V504.032H168.653ZM164.653 549.888H185.678V557.888H164.653V549.888ZM185.678 549.888H216.013V557.888H185.678V549.888ZM237.038 557.888H216.013V549.888H237.038V557.888ZM241.038 504.032V553.888H233.038V504.032H241.038ZM244.58 500.693C242.525 500.693 241.038 502.294 241.038 504.032H233.038C233.038 497.672 238.313 492.693 244.58 492.693V500.693ZM248.121 504.032C248.121 502.294 246.635 500.693 244.58 500.693V492.693C250.846 492.693 256.121 497.672 256.121 504.032H248.121ZM248.121 561.354V504.032H256.121V561.354H248.121ZM241.79 565.826L249.331 558.487L254.911 564.22L247.369 571.559L241.79 565.826Z" fill="#7700D1" mask="url(#path-15-inside-2_208_6)"/>
        <rect x="155.4" y="495.447" width="3.50863" height="10.4914" fill="white" stroke="white" stroke-width="3.50863"/>
        <rect x="242.818" y="495.481" width="3.57709" height="10.4229" fill="white" stroke="white" stroke-width="3.57709"/>
        <path fill-rule="evenodd" clip-rule="evenodd" d="M160.663 497.455H143.133C125.902 497.455 111.933 511.423 111.933 528.655V538.358H105.133V528.655C105.133 507.668 122.146 490.655 143.133 490.655H162.405C163.878 490.655 165.332 490.738 166.761 490.902H160.663V497.455Z" fill="white"/>
        <path fill-rule="evenodd" clip-rule="evenodd" d="M111.968 626.237L111.968 643.767C111.968 660.998 125.937 674.967 143.168 674.967L150.908 674.967L150.908 681.767L143.168 681.767C122.181 681.767 105.168 664.754 105.168 643.767L105.168 624.495C105.168 623.053 105.248 621.629 105.405 620.229L105.405 626.237L111.968 626.237Z" fill="white"/>
        <path fill-rule="evenodd" clip-rule="evenodd" d="M288.909 626.237L288.909 643.767C288.909 660.998 274.94 674.967 257.709 674.967L249.969 674.967L249.969 681.767L257.709 681.767C278.696 681.767 295.709 664.754 295.709 643.767L295.709 624.495C295.709 623.053 295.629 621.629 295.472 620.229L295.472 626.237L288.909 626.237Z" fill="white"/>
        <path fill-rule="evenodd" clip-rule="evenodd" d="M240.179 497.455H257.709C274.94 497.455 288.909 511.423 288.909 528.655V538.358H295.709V528.655C295.709 507.668 278.696 490.655 257.709 490.655H238.437C236.964 490.655 235.51 490.738 234.081 490.902H240.179V497.455Z" fill="white"/>
    </g>
    <g clip-path="url(#clip2_208_6)">
        <mask id="path-23-inside-3_208_6" fill="white">
            <path fill-rule="evenodd" clip-rule="evenodd" d="M292.164 486.693H476.213L483.472 493.959V678.192L480.322 681.346V645.169H468.89V531.192H475.695V490.902H430.201V501.29H333.354V490.902H288.917V531.192H299.423V645.169H288.917V682.208L284.905 678.192V493.959L292.164 486.693ZM320.56 685.459H448.679V670.926H320.56V685.459Z"/>
        </mask>
        <path fill-rule="evenodd" clip-rule="evenodd" d="M292.164 486.693H476.213L483.472 493.959V678.192L480.322 681.346V645.169H468.89V531.192H475.695V490.902H430.201V501.29H333.354V490.902H288.917V531.192H299.423V645.169H288.917V682.208L284.905 678.192V493.959L292.164 486.693ZM320.56 685.459H448.679V670.926H320.56V685.459Z" fill="white"/>
        <path d="M476.213 486.693V482.693H477.871L479.043 483.866L476.213 486.693ZM292.164 486.693L289.334 483.866L290.506 482.693H292.164V486.693ZM483.472 493.959L486.302 491.132L487.472 492.304V493.959H483.472ZM483.472 678.192H487.472V679.848L486.302 681.019L483.472 678.192ZM480.322 681.346L483.152 684.173L476.322 691.01V681.346H480.322ZM480.322 645.169V641.169H484.322V645.169H480.322ZM468.89 645.169V649.169H464.89V645.169H468.89ZM468.89 531.192H464.89V527.192H468.89V531.192ZM475.695 531.192H479.695V535.192H475.695V531.192ZM475.695 490.902V486.902H479.695V490.902H475.695ZM430.201 490.902H426.201V486.902H430.201V490.902ZM430.201 501.29H434.201V505.29H430.201V501.29ZM333.354 501.29V505.29H329.354V501.29H333.354ZM333.354 490.902V486.902H337.354V490.902H333.354ZM288.917 490.902H284.917V486.902H288.917V490.902ZM288.917 531.192V535.192H284.917V531.192H288.917ZM299.423 531.192V527.192H303.423V531.192H299.423ZM299.423 645.169H303.423V649.169H299.423V645.169ZM288.917 645.169H284.917V641.169H288.917V645.169ZM288.917 682.208H292.917V691.872L286.087 685.035L288.917 682.208ZM284.905 678.192L282.075 681.019L280.905 679.848V678.192H284.905ZM284.905 493.959H280.905V492.304L282.075 491.132L284.905 493.959ZM448.679 685.459H452.679V689.459H448.679V685.459ZM320.56 685.459V689.459H316.56V685.459H320.56ZM448.679 670.926V666.926H452.679V670.926H448.679ZM320.56 670.926H316.56V666.926H320.56V670.926ZM476.213 490.693H292.164V482.693H476.213V490.693ZM480.642 496.786L473.383 489.52L479.043 483.866L486.302 491.132L480.642 496.786ZM479.472 678.192V493.959H487.472V678.192H479.472ZM477.492 678.519L480.642 675.365L486.302 681.019L483.152 684.173L477.492 678.519ZM484.322 645.169V681.346H476.322V645.169H484.322ZM468.89 641.169H480.322V649.169H468.89V641.169ZM472.89 531.192V645.169H464.89V531.192H472.89ZM468.89 527.192H475.695V535.192H468.89V527.192ZM471.695 531.192V490.902H479.695V531.192H471.695ZM475.695 494.902H430.201V486.902H475.695V494.902ZM434.201 490.902V501.29H426.201V490.902H434.201ZM333.354 497.29H430.201V505.29H333.354V497.29ZM337.354 490.902V501.29H329.354V490.902H337.354ZM288.917 486.902H333.354V494.902H288.917V486.902ZM284.917 531.192V490.902H292.917V531.192H284.917ZM299.423 535.192H288.917V527.192H299.423V535.192ZM295.423 645.169V531.192H303.423V645.169H295.423ZM288.917 641.169H299.423V649.169H288.917V641.169ZM284.917 682.208V645.169H292.917V682.208H284.917ZM287.735 675.365L291.747 679.381L286.087 685.035L282.075 681.019L287.735 675.365ZM288.905 493.959V678.192H280.905V493.959H288.905ZM294.994 489.52L287.735 496.786L282.075 491.132L289.334 483.866L294.994 489.52ZM448.679 689.459H320.56V681.459H448.679V689.459ZM452.679 670.926V685.459H444.679V670.926H452.679ZM320.56 666.926H448.679V674.926H320.56V666.926ZM316.56 685.459V670.926H324.56V685.459H316.56Z" fill="#7700D1" mask="url(#path-23-inside-3_208_6)"/>
        <mask id="path-25-inside-4_208_6" fill="white">
            <path fill-rule="evenodd" clip-rule="evenodd" d="M428.363 568.693H399.797H369.462H340.895L333.354 561.354V504.032C333.354 499.983 336.734 496.693 340.895 496.693C345.056 496.693 348.437 499.983 348.437 504.032V553.888H369.462H399.797H420.822V504.032C420.822 499.983 424.203 496.693 428.363 496.693C432.524 496.693 435.905 499.983 435.905 504.032V561.354L428.363 568.693Z"/>
        </mask>
        <path fill-rule="evenodd" clip-rule="evenodd" d="M428.363 568.693H399.797H369.462H340.895L333.354 561.354V504.032C333.354 499.983 336.734 496.693 340.895 496.693C345.056 496.693 348.437 499.983 348.437 504.032V553.888H369.462H399.797H420.822V504.032C420.822 499.983 424.203 496.693 428.363 496.693C432.524 496.693 435.905 499.983 435.905 504.032V561.354L428.363 568.693Z" fill="white"/>
        <path d="M428.363 568.693L431.153 571.559L429.988 572.693H428.363V568.693ZM340.895 568.693V572.693H339.27L338.105 571.559L340.895 568.693ZM333.354 561.354L330.564 564.22L329.354 563.042V561.354H333.354ZM348.437 553.888V557.888H344.437V553.888H348.437ZM420.822 553.888H424.822V557.888H420.822V553.888ZM435.905 561.354H439.905V563.042L438.695 564.22L435.905 561.354ZM399.797 564.693H428.363V572.693H399.797V564.693ZM399.797 572.693H369.462V564.693H399.797V572.693ZM369.462 572.693H340.895V564.693H369.462V572.693ZM338.105 571.559L330.564 564.22L336.143 558.487L343.685 565.826L338.105 571.559ZM329.354 561.354V504.032H337.354V561.354H329.354ZM329.354 504.032C329.354 497.672 334.628 492.693 340.895 492.693V500.693C338.84 500.693 337.354 502.294 337.354 504.032H329.354ZM340.895 492.693C347.162 492.693 352.437 497.672 352.437 504.032H344.437C344.437 502.294 342.95 500.693 340.895 500.693V492.693ZM352.437 504.032V553.888H344.437V504.032H352.437ZM348.437 549.888H369.462V557.888H348.437V549.888ZM369.462 549.888H399.797V557.888H369.462V549.888ZM420.822 557.888H399.797V549.888H420.822V557.888ZM424.822 504.032V553.888H416.822V504.032H424.822ZM428.363 500.693C426.308 500.693 424.822 502.294 424.822 504.032H416.822C416.822 497.672 422.097 492.693 428.363 492.693V500.693ZM431.905 504.032C431.905 502.294 430.418 500.693 428.363 500.693V492.693C434.63 492.693 439.905 497.672 439.905 504.032H431.905ZM431.905 561.354V504.032H439.905V561.354H431.905ZM425.574 565.826L433.115 558.487L438.695 564.22L431.153 571.559L425.574 565.826Z" fill="#7700D1" mask="url(#path-25-inside-4_208_6)"/>
        <rect x="339.184" y="495.447" width="3.50863" height="10.4914" fill="white" stroke="white" stroke-width="3.50863"/>
        <path fill-rule="evenodd" clip-rule="evenodd" d="M344.447 497.455H326.917C309.686 497.455 295.717 511.423 295.717 528.655V538.358H288.917V528.655C288.917 507.668 305.93 490.655 326.917 490.655H346.189C347.662 490.655 349.116 490.738 350.545 490.902H344.447V497.455Z" fill="white"/>
        <path fill-rule="evenodd" clip-rule="evenodd" d="M295.752 626.237L295.752 643.767C295.752 660.998 309.721 674.967 326.952 674.967L334.691 674.967L334.691 681.767L326.952 681.767C305.965 681.767 288.952 664.754 288.952 643.767L288.952 624.495C288.952 623.053 289.032 621.629 289.189 620.229L289.189 626.237L295.752 626.237Z" fill="white"/>
    </g>
    <defs>
        <clipPath id="clip0_208_6">
            <rect width="955" height="500" fill="white" transform="translate(0.563965 181)"/>
        </clipPath>
        <clipPath id="clip1_208_6">
            <rect width="190" height="190" fill="white" transform="matrix(-1 0 0 1 295.28 491.004)"/>
        </clipPath>
        <clipPath id="clip2_208_6">
            <rect width="190" height="190" fill="white" transform="matrix(-1 0 0 1 479.064 491.004)"/>
        </clipPath>
    </defs>
</svg>