<svg width="220" height="123" viewBox="0 0 220 123" fill="none" xmlns="http://www.w3.org/2000/svg">
<path d="M0 0H220V79.6834C220 103.432 200.748 122.683 177 122.683H43C19.2518 122.683 0 103.432 0 79.6834V0Z" fill="white"/>
<path d="M96.452 53.8C97.6573 53.8 98.5693 54.1147 99.188 54.744C99.8173 55.3627 100.132 56.2747 100.132 57.48V61.32C100.132 62.5253 99.8173 63.4427 99.188 64.072C98.5693 64.6907 97.6573 65 96.452 65H90.212V53.8H96.452ZM97.252 57.48C97.252 56.52 96.772 56.04 95.812 56.04H93.092V62.76H95.812C96.772 62.76 97.252 62.28 97.252 61.32V57.48ZM109.408 56.84C109.408 56.2 109.088 55.88 108.448 55.88H105.728C105.088 55.88 104.768 56.2 104.768 56.84V61.96C104.768 62.6 105.088 62.92 105.728 62.92H108.448C109.088 62.92 109.408 62.6 109.408 61.96V56.84ZM112.288 61.96C112.288 63.08 112.032 63.896 111.52 64.408C111.018 64.9093 110.208 65.16 109.088 65.16H105.088C103.968 65.16 103.152 64.9093 102.64 64.408C102.138 63.896 101.888 63.08 101.888 61.96V56.84C101.888 55.72 102.138 54.9093 102.64 54.408C103.152 53.896 103.968 53.64 105.088 53.64H109.088C110.208 53.64 111.018 53.896 111.52 54.408C112.032 54.9093 112.288 55.72 112.288 56.84V61.96ZM114.039 62.68C116.962 62.84 118.94 62.92 119.975 62.92C120.22 62.92 120.412 62.8507 120.551 62.712C120.7 62.5627 120.775 62.3653 120.775 62.12V60.68H117.095C115.975 60.68 115.159 60.4293 114.647 59.928C114.146 59.416 113.895 58.6 113.895 57.48V57C113.895 55.88 114.146 55.0693 114.647 54.568C115.159 54.056 115.975 53.8 117.095 53.8H122.711V56.04H117.735C117.095 56.04 116.775 56.36 116.775 57V57.32C116.775 57.96 117.095 58.28 117.735 58.28H120.615C121.66 58.28 122.428 58.5253 122.919 59.016C123.41 59.5067 123.655 60.2747 123.655 61.32V62.12C123.655 63.1653 123.41 63.9333 122.919 64.424C122.428 64.9147 121.66 65.16 120.615 65.16C120.071 65.16 119.495 65.1493 118.887 65.128L117.415 65.064C116.327 65.0107 115.202 64.936 114.039 64.84V62.68ZM130.217 65H127.337V56.04H123.977V53.8H133.577V56.04H130.217V65ZM136.054 65H132.934L137.174 53.8H140.374L144.614 65H141.494L140.774 63H136.774L136.054 65ZM137.494 60.92H140.054L138.774 57.16L137.494 60.92ZM149.488 61.64L152.208 53.8H155.328L151.088 65H147.888L143.648 53.8H146.768L149.488 61.64ZM165.488 65H156.608V53.8H165.488V56.04H159.488V58.2H164.208V60.44H159.488V62.76H165.488V65ZM167.244 53.8H173.964C175.084 53.8 175.895 54.056 176.396 54.568C176.908 55.0693 177.164 55.88 177.164 57V58.44C177.164 59.3253 177.015 60.0133 176.716 60.504C176.428 60.9947 175.964 61.32 175.324 61.48L177.324 65H174.204L172.364 61.64H170.124V65H167.244V53.8ZM174.284 57C174.284 56.36 173.964 56.04 173.324 56.04H170.124V59.4H173.324C173.964 59.4 174.284 59.08 174.284 58.44V57Z" fill="#4C0085"/>
<path d="M58.9997 75.7019C50.3276 75.7019 43.2975 68.6721 43.2975 60C43.2975 51.3279 50.3276 44.2978 58.9997 44.2978C67.6721 44.2978 74.7019 51.3279 74.7019 60C74.7019 60.6344 75.2168 61.1489 75.8508 61.1489C76.4848 61.1489 76.9994 60.634 76.9994 60C76.9994 50.0592 68.9405 42 58.9997 42C49.0589 42 41 50.0592 41 60C41 69.9408 49.0589 78 58.9997 78C59.634 78 60.1486 77.4852 60.1486 76.8511C60.1486 76.2171 59.634 75.7019 58.9997 75.7019Z" fill="#4C0085"/>
<path d="M58.9997 75.7019C50.3276 75.7019 43.2975 68.6721 43.2975 60C43.2975 51.3279 50.3276 44.2978 58.9997 44.2978C67.6721 44.2978 74.7019 51.3279 74.7019 60C74.7019 60.6344 75.2168 61.1489 75.8508 61.1489C76.4848 61.1489 76.9994 60.634 76.9994 60C76.9994 50.0592 68.9405 42 58.9997 42C49.0589 42 41 50.0592 41 60C41 69.9408 49.0589 78 58.9997 78C59.634 78 60.1486 77.4852 60.1486 76.8511C60.1486 76.2171 59.634 75.7019 58.9997 75.7019Z" fill="#4C0085"/>
<path d="M57.8508 47.7449V60.3827H51.3397C50.706 60.3827 50.1914 60.8976 50.1914 61.5316C50.1914 62.1666 50.7063 62.6811 51.3397 62.6811H58.9997C59.634 62.6811 60.1486 62.1663 60.1486 61.5316V47.7449C60.1486 47.1102 59.6337 46.5957 58.9997 46.5957C58.3657 46.5957 57.8508 47.1106 57.8508 47.7449Z" fill="#4C0085"/>
<path d="M57.8508 47.7449V60.3827H51.3397C50.706 60.3827 50.1914 60.8976 50.1914 61.5316C50.1914 62.1666 50.7063 62.6811 51.3397 62.6811H58.9997C59.634 62.6811 60.1486 62.1663 60.1486 61.5316V47.7449C60.1486 47.1102 59.6337 46.5957 58.9997 46.5957C58.3657 46.5957 57.8508 47.1106 57.8508 47.7449Z" fill="#4C0085"/>
<path d="M68.1911 60.3826C63.3261 60.3826 59.3826 64.3261 59.3826 69.1911C59.3826 74.0565 63.3258 78 68.1911 78C73.0558 78 76.9994 74.0568 76.9994 69.1911C76.9994 64.3261 73.0562 60.3826 68.1911 60.3826ZM68.2978 73.1141C67.9152 73.6207 67.1938 73.7209 66.688 73.3383L63.1748 70.6824C62.6696 70.3005 62.5691 69.5795 62.9522 69.073C63.3344 68.5671 64.0558 68.4669 64.5611 68.8488L67.1579 70.8119L70.8188 65.9687C71.2013 65.4625 71.9224 65.3623 72.4282 65.7448C72.9341 66.1273 73.0346 66.8484 72.6518 67.3546L68.2978 73.1141Z" fill="#4C0085"/>
<path d="M68.1911 60.3826C63.3261 60.3826 59.3826 64.3261 59.3826 69.1911C59.3826 74.0565 63.3258 78 68.1911 78C73.0558 78 76.9994 74.0568 76.9994 69.1911C76.9994 64.3261 73.0562 60.3826 68.1911 60.3826ZM68.2978 73.1141C67.9152 73.6207 67.1938 73.7209 66.688 73.3383L63.1748 70.6824C62.6696 70.3005 62.5691 69.5795 62.9522 69.073C63.3344 68.5671 64.0558 68.4669 64.5611 68.8488L67.1579 70.8119L70.8188 65.9687C71.2013 65.4625 71.9224 65.3623 72.4282 65.7448C72.9341 66.1273 73.0346 66.8484 72.6518 67.3546L68.2978 73.1141Z" fill="#4C0085"/>
</svg>
