<svg xmlns="http://www.w3.org/2000/svg" width="1547" height="1014" viewBox="0 0 1547 1014" fill="none">
    <g opacity="0.05" filter="url(#filter0_f_212_783)">
        <circle cx="345.487" cy="345" r="224.513" fill="white"/>
    </g>
    <g opacity="0.05" clip-path="url(#clip0_212_783)">
        <path d="M137.405 764.55C137.405 769.394 141.338 773.326 146.183 773.326H181.299C186.145 773.326 190.078 769.394 190.078 764.55V711.887C190.078 707.043 186.145 703.111 181.299 703.111H146.184C141.339 703.111 137.406 707.043 137.406 711.887V764.55H137.405ZM154.963 720.665H172.521V755.773H154.963V720.665Z" fill="white" stroke="#7700D1" stroke-width="11"/>
        <path d="M365.654 975.2C365.654 980.044 369.587 983.976 374.432 983.976H409.547C414.393 983.976 418.326 980.044 418.326 975.2V922.537C418.326 917.693 414.393 913.761 409.547 913.761H374.432C369.587 913.761 365.654 917.693 365.654 922.537V975.2ZM383.212 931.315H400.77V966.423H383.212V931.315Z" fill="white" stroke="#7700D1" stroke-width="11"/>
        <path d="M374.432 773.328H409.547C414.393 773.328 418.326 769.395 418.326 764.551V711.889C418.326 707.044 414.393 703.112 409.547 703.112H374.432C369.587 703.112 365.654 707.044 365.654 711.889V764.551C365.654 769.395 369.587 773.328 374.432 773.328ZM383.212 720.665H400.77V755.773H383.212V720.665Z" fill="white" stroke="#7700D1" stroke-width="11"/>
        <path d="M225.193 764.55C225.193 769.394 229.126 773.326 233.972 773.326H269.087C273.932 773.326 277.865 769.394 277.865 764.55V711.887C277.865 707.043 273.932 703.111 269.087 703.111H233.972C229.126 703.111 225.193 707.043 225.193 711.887V764.55ZM242.75 720.665H260.308V755.773H242.75V720.665Z" fill="white" stroke="#7700D1" stroke-width="11"/>
        <path fill-rule="evenodd" clip-rule="evenodd" d="M356.876 650.449H462.222C467.067 650.449 471 654.381 471 659.225V1045.42C471 1059.93 459.184 1071.75 444.664 1071.75H374.435C359.915 1071.75 348.098 1059.93 348.098 1045.42C348.098 1030.9 359.915 1019.09 374.435 1019.09C375.953 1019.09 377.463 1019.22 378.947 1019.48C385.004 1008.57 396.531 1001.53 409.55 1001.53C422.569 1001.53 434.095 1008.57 440.152 1019.48C441.636 1019.22 443.146 1019.09 444.665 1019.09C447.763 1019.09 450.687 1019.72 453.443 1020.7V690.956H467.105V654.181H432.827V668.002H356.876C352.03 668.002 348.097 664.07 348.097 659.225C348.097 654.381 352.03 650.449 356.876 650.449ZM374.433 1054.19H444.664C449.501 1054.19 453.442 1050.25 453.443 1045.42C453.443 1038.9 445.621 1034.38 439.907 1038.07C437.5 1039.62 434.49 1039.9 431.847 1038.83C429.196 1037.75 427.238 1035.45 426.597 1032.67C424.745 1024.68 417.73 1019.09 409.549 1019.09C401.367 1019.09 394.353 1024.68 392.5 1032.67C391.859 1035.45 389.901 1037.75 387.25 1038.83C384.599 1039.9 381.596 1039.62 379.191 1038.07C377.715 1037.12 376.118 1036.64 374.433 1036.64C369.595 1036.64 365.654 1040.58 365.654 1045.42C365.654 1050.25 369.595 1054.19 374.433 1054.19Z" fill="white"/>
        <path d="M378.947 1019.48L377.986 1024.9L381.85 1025.58L383.755 1022.15L378.947 1019.48ZM440.152 1019.48L435.344 1022.15L437.249 1025.58L441.114 1024.9L440.152 1019.48ZM453.443 1020.7L451.595 1025.88L458.943 1028.5V1020.7H453.443ZM453.443 690.956V685.456H447.943V690.956H453.443ZM467.105 690.956V696.456H472.605V690.956H467.105ZM467.105 654.181H472.605V648.681H467.105V654.181ZM432.827 654.181V648.681H427.327V654.181H432.827ZM432.827 668.002V673.502H438.327V668.002H432.827ZM453.443 1045.42L458.943 1045.42V1045.42H453.443ZM439.907 1038.07L442.878 1042.7L442.888 1042.69L439.907 1038.07ZM431.847 1038.83L433.912 1033.73L433.907 1033.73L431.847 1038.83ZM426.597 1032.67L431.957 1031.44L431.955 1031.43L426.597 1032.67ZM392.5 1032.67L387.142 1031.43L387.14 1031.44L392.5 1032.67ZM379.191 1038.07L376.217 1042.7L376.218 1042.7L379.191 1038.07ZM462.222 644.949H356.876V655.949H462.222V644.949ZM476.5 659.225C476.5 651.342 470.104 644.949 462.222 644.949V655.949C464.031 655.949 465.5 657.419 465.5 659.225H476.5ZM476.5 1045.42V659.225H465.5V1045.42H476.5ZM444.664 1077.25C462.22 1077.25 476.5 1062.97 476.5 1045.42H465.5C465.5 1056.89 456.147 1066.25 444.664 1066.25V1077.25ZM374.435 1077.25H444.664V1066.25H374.435V1077.25ZM342.598 1045.42C342.598 1062.97 356.878 1077.25 374.435 1077.25V1066.25C362.951 1066.25 353.598 1056.89 353.598 1045.42H342.598ZM374.435 1013.59C356.878 1013.59 342.598 1027.86 342.598 1045.42H353.598C353.598 1033.94 362.951 1024.59 374.435 1024.59V1013.59ZM379.908 1014.06C378.103 1013.74 376.271 1013.59 374.435 1013.59V1024.59C375.635 1024.59 376.824 1024.69 377.986 1024.9L379.908 1014.06ZM409.55 996.031C394.504 996.031 381.152 1004.18 374.138 1016.81L383.755 1022.15C388.857 1012.96 398.557 1007.03 409.55 1007.03V996.031ZM444.961 1016.81C437.948 1004.18 424.595 996.031 409.55 996.031V1007.03C420.542 1007.03 430.242 1012.96 435.344 1022.15L444.961 1016.81ZM444.665 1013.59C442.828 1013.59 440.996 1013.74 439.191 1014.06L441.114 1024.9C442.275 1024.69 443.464 1024.59 444.665 1024.59V1013.59ZM455.291 1015.52C452.077 1014.37 448.522 1013.59 444.665 1013.59V1024.59C447.004 1024.59 449.297 1025.06 451.595 1025.88L455.291 1015.52ZM447.943 690.956V1020.7H458.943V690.956H447.943ZM467.105 685.456H453.443V696.456H467.105V685.456ZM461.605 654.181V690.956H472.605V654.181H461.605ZM432.827 659.681H467.105V648.681H432.827V659.681ZM438.327 668.002V654.181H427.327V668.002H438.327ZM356.876 673.502H432.827V662.502H356.876V673.502ZM342.597 659.225C342.597 667.109 348.994 673.502 356.876 673.502V662.502C355.067 662.502 353.597 661.031 353.597 659.225H342.597ZM356.876 644.949C348.994 644.949 342.597 651.342 342.597 659.225H353.597C353.597 657.42 355.067 655.949 356.876 655.949V644.949ZM444.664 1048.69H374.433V1059.69H444.664V1048.69ZM447.943 1045.42C447.943 1047.21 446.464 1048.69 444.664 1048.69V1059.69C452.538 1059.69 458.941 1053.29 458.943 1045.42L447.943 1045.42ZM442.888 1042.69C443.781 1042.12 444.966 1042.07 446.148 1042.72C447.366 1043.4 447.943 1044.47 447.943 1045.42H458.943C458.943 1034.66 446.401 1027.34 436.925 1033.45L442.888 1042.69ZM429.782 1043.92C434.083 1045.67 438.971 1045.21 442.878 1042.7L436.935 1033.44C436.029 1034.02 434.897 1034.13 433.912 1033.73L429.782 1043.92ZM421.238 1033.91C422.281 1038.43 425.467 1042.18 429.787 1043.93L433.907 1033.73C432.926 1033.33 432.196 1032.48 431.957 1031.44L421.238 1033.91ZM409.549 1024.59C415.158 1024.59 419.961 1028.4 421.239 1033.91L431.955 1031.43C429.528 1020.95 420.303 1013.59 409.549 1013.59V1024.59ZM397.858 1033.91C399.136 1028.4 403.939 1024.59 409.549 1024.59V1013.59C398.795 1013.59 389.57 1020.95 387.142 1031.43L397.858 1033.91ZM389.31 1043.93C393.631 1042.18 396.817 1038.43 397.86 1033.91L387.14 1031.44C386.901 1032.48 386.172 1033.33 385.19 1033.73L389.31 1043.93ZM376.218 1042.7C380.126 1045.21 385.006 1045.66 389.31 1043.93L385.19 1033.73C384.192 1034.13 383.066 1034.02 382.163 1033.44L376.218 1042.7ZM374.433 1042.14C375.012 1042.14 375.585 1042.29 376.217 1042.7L382.165 1033.44C379.846 1031.95 377.223 1031.14 374.433 1031.14V1042.14ZM371.154 1045.42C371.154 1043.62 372.632 1042.14 374.433 1042.14V1031.14C366.559 1031.14 360.154 1037.54 360.154 1045.42H371.154ZM374.433 1048.69C372.632 1048.69 371.154 1047.21 371.154 1045.42H360.154C360.154 1053.29 366.559 1059.69 374.433 1059.69V1048.69Z" fill="#7700D1"/>
        <path d="M233.972 668.003H269.087C273.932 668.003 277.865 664.071 277.865 659.226V606.564C277.865 601.72 273.932 597.787 269.087 597.787H233.972C229.126 597.787 225.193 601.72 225.193 606.564V659.226C225.193 664.071 229.126 668.003 233.972 668.003ZM242.75 615.341H260.308V650.449H242.75V615.341Z" fill="white" stroke="#7700D1" stroke-width="11"/>
        <path d="M225.193 869.875C225.193 874.719 229.126 878.651 233.972 878.651H269.087C273.932 878.651 277.865 874.719 277.865 869.875V817.212C277.865 812.368 273.932 808.436 269.087 808.436H233.972C229.126 808.436 225.193 812.368 225.193 817.212V869.875ZM242.75 825.99H260.308V861.098H242.75V825.99Z" fill="white" stroke="#7700D1" stroke-width="11"/>
        <path d="M146.184 668.003H181.299C186.145 668.003 190.078 664.071 190.078 659.226V606.564C190.078 601.72 186.145 597.787 181.299 597.787H146.184C141.339 597.787 137.406 601.72 137.406 606.564V659.226C137.405 664.071 141.338 668.003 146.184 668.003ZM154.963 615.341H172.521V650.449H154.963V615.341Z" fill="white" stroke="#7700D1" stroke-width="11"/>
        <path d="M201.402 968.968C199.822 970.635 198.856 972.918 198.856 975.2C198.856 977.483 199.822 979.764 201.402 981.432C203.07 983.012 205.353 983.978 207.635 983.978C209.918 983.978 212.2 983.012 213.869 981.432C215.449 979.765 216.415 977.483 216.415 975.2C216.415 972.918 215.449 970.637 213.869 968.968C210.532 965.72 204.738 965.72 201.402 968.968Z" fill="white" stroke="#7700D1" stroke-width="11"/>
        <path d="M137.405 869.875C137.405 874.719 141.338 878.651 146.183 878.651H181.299C186.145 878.651 190.078 874.719 190.078 869.875V817.212C190.078 812.368 186.145 808.436 181.299 808.436H146.184C141.339 808.436 137.406 812.368 137.406 817.212V869.875H137.405ZM154.963 825.99H172.521V861.098H154.963V825.99Z" fill="white" stroke="#7700D1" stroke-width="11"/>
        <path d="M119.848 922.537C119.848 927.382 123.781 931.314 128.626 931.314H154.963V1010.31C154.963 1015.15 158.896 1019.08 163.741 1019.08C168.587 1019.08 172.52 1015.15 172.52 1010.31V931.314H242.751V1010.31C242.751 1015.15 246.684 1019.08 251.529 1019.08C256.375 1019.08 260.308 1015.15 260.308 1010.31V931.314H286.644C291.49 931.314 295.423 927.382 295.423 922.537C295.423 917.693 291.49 913.761 286.644 913.761H128.626C123.781 913.761 119.848 917.693 119.848 922.537Z" fill="white" stroke="#7700D1" stroke-width="11"/>
        <path d="M365.654 869.875C365.654 874.719 369.587 878.651 374.432 878.651H409.547C414.393 878.651 418.326 874.719 418.326 869.875V817.212C418.326 812.368 414.393 808.436 409.547 808.436H374.432C369.587 808.436 365.654 812.368 365.654 817.212V869.875ZM383.212 825.99H400.77V861.098H383.212V825.99Z" fill="white" stroke="#7700D1" stroke-width="11"/>
        <path fill-rule="evenodd" clip-rule="evenodd" d="M285.98 545.124H93.5113C91.6184 545.124 89.8648 545.724 88.4306 546.744H137.406V562.677H285.98V545.124ZM102.29 591.857H87.4218V547.581C85.7644 549.178 84.7328 551.419 84.7328 553.901V1010.31C84.7328 1015.15 88.6658 1019.08 93.5113 1019.08C98.3568 1019.08 102.29 1015.15 102.29 1010.31V591.857ZM312.981 1010.31V592.685H330.538V1010.31C330.538 1015.15 326.605 1019.08 321.76 1019.08C316.914 1019.08 312.981 1015.15 312.981 1010.31Z" fill="white"/>
        <path d="M285.98 545.124H290.98V540.124H285.98V545.124ZM88.4306 546.744L85.5327 542.669L72.7732 551.744H88.4306V546.744ZM137.406 546.744H142.406V541.744H137.406V546.744ZM137.406 562.677H132.406V567.677H137.406V562.677ZM285.98 562.677V567.677H290.98V562.677H285.98ZM102.29 591.857H107.29V586.857H102.29V591.857ZM87.4218 591.857H82.4218V596.857H87.4218V591.857ZM87.4218 547.581H92.4218V535.821L83.9528 543.98L87.4218 547.581ZM312.981 592.685V587.685H307.981V592.685H312.981ZM330.538 592.685H335.538V587.685H330.538V592.685ZM93.5113 550.124H285.98V540.124H93.5113V550.124ZM91.3284 550.818C91.9451 550.38 92.6918 550.124 93.5113 550.124V540.124C90.5451 540.124 87.7846 541.068 85.5327 542.669L91.3284 550.818ZM88.4306 551.744H137.406V541.744H88.4306V551.744ZM132.406 546.744V562.677H142.406V546.744H132.406ZM285.98 557.677H137.406V567.677H285.98V557.677ZM280.98 545.124V562.677H290.98V545.124H280.98ZM102.29 586.857H87.4218V596.857H102.29V586.857ZM92.4218 591.857V547.581H82.4218V591.857H92.4218ZM89.7328 553.901C89.7328 552.835 90.1699 551.876 90.8909 551.181L83.9528 543.98C81.3589 546.479 79.7328 550.004 79.7328 553.901H89.7328ZM89.7328 1010.31V553.901H79.7328V1010.31H89.7328ZM93.5113 1014.08C91.4263 1014.08 89.7328 1012.39 89.7328 1010.31H79.7328C79.7328 1017.91 85.9053 1024.08 93.5113 1024.08V1014.08ZM97.2897 1010.31C97.2897 1012.39 95.5962 1014.08 93.5113 1014.08V1024.08C101.117 1024.08 107.29 1017.91 107.29 1010.31H97.2897ZM97.2897 591.857V1010.31H107.29V591.857H97.2897ZM307.981 592.685V1010.31H317.981V592.685H307.981ZM330.538 587.685H312.981V597.685H330.538V587.685ZM335.538 1010.31V592.685H325.538V1010.31H335.538ZM321.76 1024.08C329.366 1024.08 335.538 1017.91 335.538 1010.31H325.538C325.538 1012.39 323.845 1014.08 321.76 1014.08V1024.08ZM307.981 1010.31C307.981 1017.91 314.154 1024.08 321.76 1024.08V1014.08C319.675 1014.08 317.981 1012.39 317.981 1010.31H307.981Z" fill="#7700D1"/>
        <path fill-rule="evenodd" clip-rule="evenodd" d="M405.972 663.348V656.348H427.254C448.241 656.348 465.254 673.361 465.254 694.348V703.111H458.254V694.348C458.254 677.227 444.375 663.348 427.254 663.348H405.972Z" fill="white"/>
        <path fill-rule="evenodd" clip-rule="evenodd" d="M265.451 558.172V551.172H286.844C307.83 551.172 324.844 568.185 324.844 589.172V597.788H317.844V589.172C317.844 572.051 303.964 558.172 286.844 558.172H265.451Z" fill="white"/>
        <path fill-rule="evenodd" clip-rule="evenodd" d="M149.498 557.459V550.459H128.216C107.229 550.459 90.216 567.472 90.216 588.459V597.788H97.216V588.459C97.216 571.338 111.095 557.459 128.216 557.459H149.498Z" fill="white"/>
    </g>
    <g opacity="0.05" clip-path="url(#clip1_212_783)">
        <path d="M1352.96 764.55C1352.96 769.394 1356.9 773.326 1361.74 773.326H1396.86C1401.7 773.326 1405.64 769.394 1405.64 764.55V711.887C1405.64 707.043 1401.7 703.111 1396.86 703.111H1361.74C1356.9 703.111 1352.96 707.043 1352.96 711.887V764.55H1352.96ZM1370.52 720.665H1388.08V755.773H1370.52V720.665Z" fill="white" stroke="#7700D1" stroke-width="11"/>
        <path fill-rule="evenodd" clip-rule="evenodd" d="M1168.61 650.449H1273.95C1278.8 650.449 1282.73 654.382 1282.73 659.226C1282.73 664.071 1278.8 668.003 1273.95 668.003H1204.02V653.627H1163.32V694.754H1177.39V834.767C1177.39 839.612 1173.45 843.544 1168.61 843.544C1163.76 843.544 1159.83 839.612 1159.83 834.767V659.225C1159.83 654.381 1163.76 650.449 1168.61 650.449Z" fill="white"/>
        <path d="M1204.02 668.003H1199.02V673.003H1204.02V668.003ZM1204.02 653.627H1209.02V648.627H1204.02V653.627ZM1163.32 653.627V648.627H1158.32V653.627H1163.32ZM1163.32 694.754H1158.32V699.754H1163.32V694.754ZM1177.39 694.754H1182.39V689.754H1177.39V694.754ZM1273.95 645.449H1168.61V655.449H1273.95V645.449ZM1287.73 659.226C1287.73 651.621 1281.56 645.449 1273.95 645.449V655.449C1276.04 655.449 1277.73 657.143 1277.73 659.226H1287.73ZM1273.95 673.003C1281.56 673.003 1287.73 666.833 1287.73 659.226H1277.73C1277.73 661.309 1276.04 663.003 1273.95 663.003V673.003ZM1204.02 673.003H1273.95V663.003H1204.02V673.003ZM1199.02 653.627V668.003H1209.02V653.627H1199.02ZM1163.32 658.627H1204.02V648.627H1163.32V658.627ZM1168.32 694.754V653.627H1158.32V694.754H1168.32ZM1177.39 689.754H1163.32V699.754H1177.39V689.754ZM1182.39 834.767V694.754H1172.39V834.767H1182.39ZM1168.61 848.544C1176.21 848.544 1182.39 842.374 1182.39 834.767H1172.39C1172.39 836.849 1170.69 838.544 1168.61 838.544V848.544ZM1154.83 834.767C1154.83 842.374 1161 848.544 1168.61 848.544V838.544C1166.52 838.544 1164.83 836.849 1164.83 834.767H1154.83ZM1154.83 659.225V834.767H1164.83V659.225H1154.83ZM1168.61 645.449C1161 645.449 1154.83 651.619 1154.83 659.225H1164.83C1164.83 657.143 1166.52 655.449 1168.61 655.449V645.449Z" fill="#7700D1"/>
        <path fill-rule="evenodd" clip-rule="evenodd" d="M1224.88 661.148V656.348H1203.6C1182.61 656.348 1165.6 673.361 1165.6 694.348V703.111H1170.4V694.348C1170.4 676.012 1185.26 661.148 1203.6 661.148H1224.88Z" fill="white"/>
        <path d="M1203.72 861.098C1160.33 861.098 1159.83 974.059 1159.83 975.2C1159.83 996.396 1174.94 1014.12 1194.94 1018.2V1062.97C1194.94 1067.82 1198.88 1071.75 1203.72 1071.75C1208.57 1071.75 1212.5 1067.82 1212.5 1062.97V1018.2C1232.51 1014.12 1247.62 996.396 1247.62 975.2C1247.62 974.059 1247.12 861.098 1203.72 861.098ZM1203.72 1001.53C1189.2 1001.53 1177.39 989.717 1177.39 975.2C1177.39 931.472 1189.13 878.652 1203.72 878.652C1218.31 878.652 1230.06 931.472 1230.06 975.2C1230.06 989.717 1218.24 1001.53 1203.72 1001.53Z" fill="white" stroke="#7700D1" stroke-width="11"/>
        <path d="M1256.4 808.436H1221.28C1216.44 808.436 1212.5 812.368 1212.5 817.212V834.767C1212.5 839.611 1216.44 843.543 1221.28 843.543C1226.13 843.543 1230.06 839.611 1230.06 834.767V825.99H1247.62V869.876C1247.62 874.72 1251.55 878.652 1256.4 878.652C1261.24 878.652 1265.17 874.72 1265.17 869.876V817.213C1265.18 812.368 1261.24 808.436 1256.4 808.436Z" fill="white" stroke="#7700D1" stroke-width="11"/>
        <path d="M1256.4 703.111H1221.28C1216.44 703.111 1212.5 707.043 1212.5 711.887V764.55C1212.5 769.394 1216.44 773.326 1221.28 773.326H1256.4C1261.24 773.326 1265.17 769.394 1265.17 764.55V711.887C1265.18 707.043 1261.24 703.111 1256.4 703.111ZM1247.62 755.773H1230.06V720.665H1247.62V755.773H1247.62Z" fill="white" stroke="#7700D1" stroke-width="11"/>
        <path d="M1440.75 764.55C1440.75 769.394 1444.69 773.326 1449.53 773.326H1484.65C1489.49 773.326 1493.42 769.394 1493.42 764.55V711.887C1493.42 707.043 1489.49 703.111 1484.65 703.111H1449.53C1444.69 703.111 1440.75 707.043 1440.75 711.887V764.55ZM1458.31 720.665H1475.87V755.773H1458.31V720.665Z" fill="white" stroke="#7700D1" stroke-width="11"/>
        <path d="M1449.53 668.003H1484.65C1489.49 668.003 1493.42 664.071 1493.42 659.226V606.564C1493.42 601.72 1489.49 597.787 1484.65 597.787H1449.53C1444.69 597.787 1440.75 601.72 1440.75 606.564V659.226C1440.75 664.071 1444.69 668.003 1449.53 668.003ZM1458.31 615.341H1475.87V650.449H1458.31V615.341Z" fill="white" stroke="#7700D1" stroke-width="11"/>
        <path d="M1440.75 869.875C1440.75 874.719 1444.69 878.651 1449.53 878.651H1484.65C1489.49 878.651 1493.42 874.719 1493.42 869.875V817.212C1493.42 812.368 1489.49 808.436 1484.65 808.436H1449.53C1444.69 808.436 1440.75 812.368 1440.75 817.212V869.875ZM1458.31 825.99H1475.87V861.098H1458.31V825.99Z" fill="white" stroke="#7700D1" stroke-width="11"/>
        <path d="M1361.74 668.003H1396.86C1401.7 668.003 1405.64 664.071 1405.64 659.226V606.564C1405.64 601.72 1401.7 597.787 1396.86 597.787H1361.74C1356.9 597.787 1352.96 601.72 1352.96 606.564V659.226C1352.96 664.071 1356.9 668.003 1361.74 668.003ZM1370.52 615.341H1388.08V650.449H1370.52V615.341Z" fill="white" stroke="#7700D1" stroke-width="11"/>
        <path d="M1416.96 968.968C1415.38 970.635 1414.41 972.918 1414.41 975.2C1414.41 977.483 1415.38 979.764 1416.96 981.432C1418.63 983.012 1420.91 983.978 1423.19 983.978C1425.48 983.978 1427.76 983.012 1429.43 981.432C1431.01 979.765 1431.97 977.483 1431.97 975.2C1431.97 972.918 1431.01 970.637 1429.43 968.968C1426.09 965.72 1420.3 965.72 1416.96 968.968Z" fill="white" stroke="#7700D1" stroke-width="11"/>
        <path d="M1352.96 869.875C1352.96 874.719 1356.9 878.651 1361.74 878.651H1396.86C1401.7 878.651 1405.64 874.719 1405.64 869.875V817.212C1405.64 812.368 1401.7 808.436 1396.86 808.436H1361.74C1356.9 808.436 1352.96 812.368 1352.96 817.212V869.875H1352.96ZM1370.52 825.99H1388.08V861.098H1370.52V825.99Z" fill="white" stroke="#7700D1" stroke-width="11"/>
        <path d="M1335.41 922.537C1335.41 927.382 1339.34 931.314 1344.18 931.314H1370.52V1010.31C1370.52 1015.15 1374.45 1019.08 1379.3 1019.08C1384.15 1019.08 1388.08 1015.15 1388.08 1010.31V931.314H1458.31V1010.31C1458.31 1015.15 1462.24 1019.08 1467.09 1019.08C1471.93 1019.08 1475.87 1015.15 1475.87 1010.31V931.314H1502.2C1507.05 931.314 1510.98 927.382 1510.98 922.537C1510.98 917.693 1507.05 913.761 1502.2 913.761H1344.18C1339.34 913.761 1335.41 917.693 1335.41 922.537Z" fill="white" stroke="#7700D1" stroke-width="11"/>
        <path fill-rule="evenodd" clip-rule="evenodd" d="M1501.54 545.124H1309.07C1307.18 545.124 1305.42 545.724 1303.99 546.744H1352.96V562.677H1501.54V545.124ZM1317.85 591.857H1302.98V547.581C1301.32 549.178 1300.29 551.419 1300.29 553.901V1010.31C1300.29 1015.15 1304.22 1019.08 1309.07 1019.08C1313.92 1019.08 1317.85 1015.15 1317.85 1010.31V591.857ZM1528.54 1010.31V592.685H1546.1V1010.31C1546.1 1015.15 1542.16 1019.08 1537.32 1019.08C1532.47 1019.08 1528.54 1015.15 1528.54 1010.31Z" fill="white"/>
        <path d="M1501.54 545.124H1506.54V540.124H1501.54V545.124ZM1303.99 546.744L1301.09 542.669L1288.33 551.744H1303.99V546.744ZM1352.96 546.744H1357.96V541.744H1352.96V546.744ZM1352.96 562.677H1347.96V567.677H1352.96V562.677ZM1501.54 562.677V567.677H1506.54V562.677H1501.54ZM1317.85 591.857H1322.85V586.857H1317.85V591.857ZM1302.98 591.857H1297.98V596.857H1302.98V591.857ZM1302.98 547.581H1307.98V535.821L1299.51 543.98L1302.98 547.581ZM1528.54 592.685V587.685H1523.54V592.685H1528.54ZM1546.1 592.685H1551.1V587.685H1546.1V592.685ZM1309.07 550.124H1501.54V540.124H1309.07V550.124ZM1306.89 550.818C1307.5 550.38 1308.25 550.124 1309.07 550.124V540.124C1306.1 540.124 1303.34 541.068 1301.09 542.669L1306.89 550.818ZM1303.99 551.744H1352.96V541.744H1303.99V551.744ZM1347.96 546.744V562.677H1357.96V546.744H1347.96ZM1501.54 557.677H1352.96V567.677H1501.54V557.677ZM1496.54 545.124V562.677H1506.54V545.124H1496.54ZM1317.85 586.857H1302.98V596.857H1317.85V586.857ZM1307.98 591.857V547.581H1297.98V591.857H1307.98ZM1305.29 553.901C1305.29 552.835 1305.73 551.876 1306.45 551.181L1299.51 543.98C1296.92 546.479 1295.29 550.004 1295.29 553.901H1305.29ZM1305.29 1010.31V553.901H1295.29V1010.31H1305.29ZM1309.07 1014.08C1306.98 1014.08 1305.29 1012.39 1305.29 1010.31H1295.29C1295.29 1017.91 1301.46 1024.08 1309.07 1024.08V1014.08ZM1312.85 1010.31C1312.85 1012.39 1311.15 1014.08 1309.07 1014.08V1024.08C1316.68 1024.08 1322.85 1017.91 1322.85 1010.31H1312.85ZM1312.85 591.857V1010.31H1322.85V591.857H1312.85ZM1523.54 592.685V1010.31H1533.54V592.685H1523.54ZM1546.1 587.685H1528.54V597.685H1546.1V587.685ZM1551.1 1010.31V592.685H1541.1V1010.31H1551.1ZM1537.32 1024.08C1544.92 1024.08 1551.1 1017.91 1551.1 1010.31H1541.1C1541.1 1012.39 1539.4 1014.08 1537.32 1014.08V1024.08ZM1523.54 1010.31C1523.54 1017.91 1529.71 1024.08 1537.32 1024.08V1014.08C1535.23 1014.08 1533.54 1012.39 1533.54 1010.31H1523.54Z" fill="#7700D1"/>
        <path fill-rule="evenodd" clip-rule="evenodd" d="M1481.01 558.172V551.172H1502.4C1523.39 551.172 1540.4 568.185 1540.4 589.172V597.788H1533.4V589.172C1533.4 572.051 1519.52 558.172 1502.4 558.172H1481.01Z" fill="white"/>
        <path fill-rule="evenodd" clip-rule="evenodd" d="M1365.06 557.459V550.459H1343.77C1322.79 550.459 1305.77 567.472 1305.77 588.459V597.788H1312.77V588.459C1312.77 571.338 1326.65 557.459 1343.77 557.459H1365.06Z" fill="white"/>
    </g>
    <path opacity="0.05" d="M1291.17 395.982L1291.12 396.426H1290.68H1268.85C1266.83 396.426 1265.24 398.025 1265.24 400.047C1265.24 402.035 1266.84 403.668 1268.85 403.668H1290.68H1291.12L1291.17 404.112C1291.93 410.762 1294.55 416.801 1298.5 421.801L1298.78 422.15L1298.46 422.464L1283.02 437.927C1281.61 439.337 1281.61 441.646 1283.02 443.056C1283.72 443.76 1284.65 444.113 1285.58 444.113C1286.51 444.113 1287.43 443.76 1288.14 443.056L1303.58 427.593L1303.9 427.277L1304.25 427.554C1309.24 431.51 1315.31 434.134 1321.92 434.889L1322.36 434.94V435.386V457.231C1322.36 459.216 1324 460.852 1325.98 460.852C1327.97 460.852 1329.6 459.25 1329.6 457.231V435.386V434.939L1330.04 434.889C1336.68 434.134 1342.72 431.51 1347.71 427.554L1348.06 427.277L1348.38 427.593L1363.82 443.056C1364.53 443.76 1365.45 444.113 1366.38 444.113C1367.31 444.113 1368.24 443.76 1368.95 443.056C1370.35 441.646 1370.35 439.337 1368.95 437.927L1353.5 422.464L1353.18 422.15L1353.46 421.801C1357.41 416.802 1360.03 410.726 1360.79 404.111L1360.84 403.668H1361.28H1383.11C1385.09 403.668 1386.72 402.066 1386.72 400.047C1386.72 398.059 1385.12 396.426 1383.11 396.426H1361.28H1360.84L1360.79 395.982C1360.03 389.332 1357.41 383.292 1353.46 378.293L1353.18 377.944L1353.5 377.63L1368.95 362.167C1370.35 360.757 1370.35 358.448 1368.95 357.038C1367.54 355.629 1365.23 355.629 1363.82 357.038L1348.38 372.501L1348.06 372.816L1347.71 372.54C1342.72 368.584 1336.65 365.96 1330.04 365.205L1329.6 365.154V364.708V342.863C1329.6 340.877 1327.96 339.242 1325.98 339.242C1324 339.242 1322.36 340.844 1322.36 342.863V364.708V365.154L1321.92 365.205C1315.28 365.96 1309.24 368.583 1304.25 372.54L1303.9 372.816L1303.58 372.501L1288.14 357.038C1286.73 355.629 1284.42 355.629 1283.02 357.038C1281.61 358.448 1281.61 360.757 1283.02 362.167L1298.46 377.63L1298.78 377.944L1298.5 378.293C1294.55 383.292 1291.93 389.368 1291.17 395.982ZM1353.84 400.047C1353.84 415.421 1341.34 427.899 1326.02 427.899C1310.69 427.899 1298.19 415.384 1298.19 400.047C1298.19 384.673 1310.66 372.195 1326.02 372.195C1341.38 372.195 1353.84 384.71 1353.84 400.047Z" fill="white" stroke="#FFE03F"/>
    <g opacity="0.2">
        <path d="M963.765 525.468C963.216 525.468 962.765 524.811 962.765 524.014V512.922C962.765 512.124 963.216 511.468 963.765 511.468C964.313 511.468 964.765 512.124 964.765 512.922V524.014C964.765 524.811 964.313 525.468 963.765 525.468Z" fill="white"/>
        <path d="M969.312 519.183H958.219C957.422 519.183 956.765 518.69 956.765 518.104C956.765 517.518 957.422 517.025 958.219 517.025H969.312C970.109 517.025 970.765 517.518 970.765 518.104C970.765 518.69 970.109 519.183 969.312 519.183Z" fill="white"/>
    </g>
    <g opacity="0.2">
        <path d="M815.278 920.44C814.73 920.44 814.278 919.784 814.278 918.986V907.894C814.278 907.097 814.73 906.44 815.278 906.44C815.827 906.44 816.278 907.097 816.278 907.894V918.986C816.278 919.784 815.827 920.44 815.278 920.44Z" fill="white"/>
        <path d="M820.825 914.156H809.733C808.936 914.156 808.279 913.663 808.279 913.077C808.279 912.491 808.936 911.998 809.733 911.998H820.825C821.623 911.998 822.279 912.491 822.279 913.077C822.279 913.663 821.623 914.156 820.825 914.156Z" fill="white"/>
    </g>
    <g opacity="0.2">
        <path d="M521.765 604.724C521.217 604.724 520.765 604.067 520.765 603.27V592.178C520.765 591.38 521.217 590.724 521.765 590.724C522.314 590.724 522.765 591.38 522.765 592.178V603.27C522.765 604.067 522.314 604.724 521.765 604.724Z" fill="white"/>
        <path d="M527.312 598.439H516.22C515.423 598.439 514.766 597.946 514.766 597.36C514.766 596.774 515.423 596.281 516.22 596.281H527.312C528.11 596.281 528.766 596.774 528.766 597.36C528.766 597.946 528.11 598.439 527.312 598.439Z" fill="white"/>
    </g>
    <g opacity="0.2">
        <path d="M387.61 478.963H431.275C432.52 478.963 433.508 477.955 433.508 476.728C433.508 475.482 432.5 474.493 431.275 474.493H387.61C386.365 474.493 385.377 475.502 385.377 476.728C385.377 477.955 386.385 478.963 387.61 478.963Z" fill="white"/>
        <path d="M406.361 488.14H454.65C462.948 488.14 469.686 481.396 469.686 473.089C469.686 464.783 462.948 458.038 454.65 458.038C452.635 458.038 450.659 458.434 448.841 459.205C447.833 456.337 446.075 453.747 443.724 451.749C440.562 449.039 436.532 447.536 432.363 447.536C426.495 447.536 421.081 450.523 417.86 455.25C416.062 453.252 413.039 451.195 408.238 451.195C401.026 451.195 395.178 457.069 395.178 464.268C395.178 465.514 396.186 466.503 397.411 466.503C398.656 466.503 399.643 465.495 399.643 464.268C399.643 459.522 403.496 455.685 408.218 455.685C414.146 455.685 415.865 460.273 415.924 460.471V460.451L420.152 460.511C422.029 455.428 426.929 452.026 432.363 452.026C438.745 452.026 444.139 456.614 445.186 462.923L448.663 464.407C450.441 463.181 452.496 462.528 454.65 462.528C460.479 462.528 465.201 467.275 465.201 473.089C465.201 478.924 460.459 483.651 454.65 483.651H406.361C405.116 483.651 404.129 484.659 404.129 485.885C404.109 487.131 405.116 488.14 406.361 488.14Z" fill="white"/>
    </g>
    <g opacity="0.2">
        <path d="M1041.16 630.942H1089.43C1097.73 630.942 1104.46 624.197 1104.46 615.891C1104.46 607.584 1097.73 600.84 1089.43 600.84C1087.41 600.84 1085.44 601.235 1083.62 602.007C1082.61 599.139 1080.85 596.548 1078.5 594.551C1075.34 591.841 1071.31 590.338 1067.14 590.338C1057.5 590.338 1049.66 598.19 1049.66 607.841C1049.66 609.087 1050.66 610.076 1051.89 610.076C1053.11 610.076 1054.12 609.067 1054.12 607.841C1054.12 600.662 1059.95 594.827 1067.12 594.827C1073.5 594.827 1078.9 599.416 1079.94 605.725L1083.42 607.208C1085.2 605.982 1087.25 605.329 1089.41 605.329C1095.24 605.329 1099.96 610.076 1099.96 615.891C1099.96 621.725 1095.22 626.452 1089.41 626.452H1041.12C1039.88 626.452 1038.89 627.461 1038.89 628.687C1038.89 629.913 1039.91 630.942 1041.16 630.942Z" fill="white"/>
        <path d="M1027.37 621.765H1071.03C1072.28 621.765 1073.27 620.756 1073.27 619.53C1073.27 618.284 1072.26 617.295 1071.03 617.295H1027.37C1026.12 617.295 1025.14 618.304 1025.14 619.53C1025.14 620.776 1026.14 621.765 1027.37 621.765Z" fill="white"/>
    </g>
    <defs>
        <filter id="filter0_f_212_783" x="0.973633" y="0.486816" width="689.026" height="689.026" filterUnits="userSpaceOnUse" color-interpolation-filters="sRGB">
            <feFlood flood-opacity="0" result="BackgroundImageFix"/>
            <feBlend mode="normal" in="SourceGraphic" in2="BackgroundImageFix" result="shape"/>
            <feGaussianBlur stdDeviation="60" result="effect1_foregroundBlur_212_783"/>
        </filter>
        <clipPath id="clip0_212_783">
            <rect width="391" height="657" fill="white" transform="translate(80 357)"/>
        </clipPath>
        <clipPath id="clip1_212_783">
            <rect width="407" height="657" fill="white" transform="translate(1139.28 357)"/>
        </clipPath>
    </defs>
</svg>