<svg xmlns="http://www.w3.org/2000/svg" width="1916" height="620" viewBox="0 0 1916 620" fill="none">
<g opacity="0.05" clip-path="url(#clip0_213_785)">
<path d="M-1.56509 560H1912.46C1914.41 560 1916 558.567 1916 556.802C1916 555.038 1914.41 553.604 1912.46 553.604H-1.56509C-3.51799 553.604 -5.10461 555.038 -5.10461 556.802C-5.10461 558.567 -3.51799 560 -1.56509 560Z" fill="white"/>
<path d="M1505.84 534.583C1506.78 534.583 1507.66 534.197 1508.27 533.425L1561.09 470.516C1562.25 469.138 1562.03 467.153 1560.71 465.995C1559.33 464.837 1557.35 465.058 1556.19 466.381L1503.42 529.29C1502.26 530.668 1502.48 532.653 1503.8 533.811C1504.41 534.307 1505.13 534.583 1505.84 534.583Z" fill="white"/>
<path d="M1505.18 515.892C1506.06 515.892 1507 515.506 1507.6 514.734L1530.8 487.387C1531.95 486.064 1531.79 484.024 1530.41 482.866C1529.09 481.708 1527.05 481.874 1525.89 483.252L1502.7 510.599C1501.55 511.922 1501.71 513.962 1503.09 515.12C1503.69 515.616 1504.47 515.892 1505.18 515.892Z" fill="white"/>
<path d="M1558.72 541.861C1559.6 541.861 1560.54 541.475 1561.15 540.703L1584.34 513.356C1585.49 512.033 1585.33 509.993 1583.95 508.835C1582.63 507.677 1580.59 507.842 1579.44 509.221L1556.24 536.568C1555.09 537.891 1555.25 539.931 1556.63 541.089C1557.24 541.585 1557.95 541.861 1558.72 541.861Z" fill="white"/>
<path d="M1613.59 541.861C1614.52 541.861 1615.41 541.475 1616.01 540.703L1668.84 477.794C1669.99 476.415 1669.77 474.431 1668.45 473.273C1667.07 472.115 1665.09 472.28 1663.93 473.659L1611.11 536.568C1609.95 537.946 1610.17 539.931 1611.49 541.089C1612.1 541.585 1612.87 541.861 1613.59 541.861Z" fill="white"/>
<path d="M1633.14 499.572C1634.02 499.572 1634.96 499.186 1635.57 498.469L1665.59 463.238C1666.74 461.915 1666.58 459.875 1665.26 458.717C1663.93 457.559 1661.9 457.724 1660.74 459.048L1630.72 494.279C1629.56 495.602 1629.73 497.642 1631.05 498.8C1631.65 499.351 1632.43 499.572 1633.14 499.572Z" fill="white"/>
<path d="M1689.55 520.689C1690.43 520.689 1691.37 520.303 1691.97 519.586L1721.99 484.355C1723.15 483.031 1722.98 480.991 1721.66 479.834C1720.34 478.676 1718.3 478.841 1717.15 480.164L1687.12 515.396C1685.97 516.719 1686.13 518.759 1687.46 519.917C1688.12 520.468 1688.83 520.689 1689.55 520.689Z" fill="white"/>
<path d="M1444.31 560H1781.65L1784.84 556.802V315.311L1781.65 312.113H1722.87C1721.11 312.113 1719.68 313.547 1719.68 315.311C1719.68 317.075 1721.11 318.509 1722.87 318.509H1778.45V553.549H1447.56V318.509H1503.09C1504.85 318.509 1506.28 317.075 1506.28 315.311C1506.28 313.547 1504.85 312.113 1503.09 312.113H1444.31L1441.12 315.311V556.802L1444.31 560Z" fill="white"/>
<path d="M1504.24 352.582H1721.72L1724.91 349.384V278.26L1721.72 275.062H1504.24L1501.05 278.26V349.384L1504.24 352.582ZM1718.52 346.186H1507.44V281.458H1718.52V346.186Z" fill="white"/>
<path d="M1504.24 558.511C1506.01 558.511 1507.44 557.078 1507.44 555.313V430.267H1718.52V555.313C1718.52 557.078 1719.96 558.511 1721.72 558.511C1723.48 558.511 1724.91 557.078 1724.91 555.313V427.014L1721.72 423.816H1504.24L1501.05 427.014V555.258C1501.05 557.078 1502.48 558.511 1504.24 558.511Z" fill="white"/>
<path d="M1612.98 558.511C1614.74 558.511 1616.18 557.078 1616.18 555.313V427.014C1616.18 425.25 1614.74 423.816 1612.98 423.816C1611.22 423.816 1609.79 425.25 1609.79 427.014V555.258C1609.79 557.078 1611.22 558.511 1612.98 558.511Z" fill="white"/>
<path d="M1504.24 459.599H1721.72C1723.48 459.599 1724.91 458.166 1724.91 456.401C1724.91 454.637 1723.48 453.204 1721.72 453.204H1504.24C1502.48 453.204 1501.05 454.637 1501.05 456.401C1501.05 458.166 1502.48 459.599 1504.24 459.599Z" fill="white"/>
<path d="M1667.35 558.512C1669.11 558.512 1670.54 557.078 1670.54 555.314V456.401C1670.54 454.637 1669.11 453.204 1667.35 453.204C1665.59 453.204 1664.15 454.637 1664.15 456.401V555.314C1664.15 557.078 1665.59 558.512 1667.35 558.512Z" fill="white"/>
<path d="M1558.61 558.512C1560.38 558.512 1561.81 557.078 1561.81 555.314V456.401C1561.81 454.637 1560.38 453.204 1558.61 453.204C1556.85 453.204 1555.42 454.637 1555.42 456.401V555.314C1555.42 557.078 1556.85 558.512 1558.61 558.512Z" fill="white"/>
<path d="M1444.37 390.074H1781.65V396.47H1444.37V390.074Z" fill="white"/>
<path d="M1444.31 380.48H1569.91C1571.67 380.48 1573.1 379.047 1573.1 377.283C1573.1 375.518 1571.67 374.085 1569.91 374.085H1444.31C1442.55 374.085 1441.12 375.518 1441.12 377.283C1441.12 379.047 1442.55 380.48 1444.31 380.48Z" fill="white"/>
<path d="M1867.75 484.189C1891.87 484.189 1910.11 462.191 1910.11 433.024C1910.16 382.52 1871.93 332.954 1870.28 330.859H1865.21C1863.56 332.954 1825.39 382.465 1825.39 433.024C1825.39 462.191 1843.62 484.189 1867.75 484.189ZM1867.75 338.247C1876.34 350.322 1903.72 392.059 1903.72 433.024C1903.72 458.552 1888.24 477.794 1867.75 477.794C1847.26 477.794 1831.78 458.552 1831.78 433.024C1831.78 392.059 1859.21 350.322 1867.75 338.247Z" fill="white"/>
<path d="M1867.75 559.504C1869.51 559.504 1870.94 558.07 1870.94 556.306V416.098C1870.94 414.333 1869.51 412.9 1867.75 412.9C1865.98 412.9 1864.55 414.333 1864.55 416.098V556.306C1864.55 558.07 1865.98 559.504 1867.75 559.504Z" fill="white"/>
<path d="M468.98 498.428C488.546 498.428 503.332 480.588 503.332 456.935C503.377 415.98 472.375 375.784 471.035 374.085H466.925C465.585 375.784 434.629 415.935 434.629 456.935C434.629 480.588 449.415 498.428 468.98 498.428ZM468.98 380.076C475.949 389.868 498.15 423.715 498.15 456.935C498.15 477.637 485.598 493.241 468.98 493.241C452.363 493.241 439.81 477.637 439.81 456.935C439.81 423.715 462.056 389.868 468.98 380.076Z" fill="white"/>
<path d="M468.98 559.504C470.41 559.504 471.571 558.341 471.571 556.91V443.209C471.571 441.778 470.41 440.615 468.98 440.615C467.551 440.615 466.389 441.778 466.389 443.209V556.91C466.389 558.341 467.551 559.504 468.98 559.504Z" fill="white"/>
<path d="M1392.2 560C1393.96 560 1395.39 558.566 1395.39 556.802V489.041C1395.39 487.277 1393.96 485.843 1392.2 485.843C1390.44 485.843 1389 487.277 1389 489.041V556.802C1389 558.566 1390.44 560 1392.2 560Z" fill="white"/>
<path d="M1369.56 492.018H1414.73L1418.14 488.6V464.561L1414.73 461.143H1369.56L1366.14 464.561V488.6L1369.56 492.018ZM1411.37 485.182H1372.97V467.924H1411.37V485.182Z" fill="white"/>
</g>
<g opacity="0.2">
<path d="M1534 159C1533.45 159 1533 158.343 1533 157.546V146.454C1533 145.657 1533.45 145 1534 145C1534.55 145 1535 145.657 1535 146.454V157.546C1535 158.343 1534.55 159 1534 159Z" fill="white"/>
<path d="M1539.55 152.715H1528.45C1527.66 152.715 1527 152.223 1527 151.636C1527 151.05 1527.66 150.558 1528.45 150.558H1539.55C1540.34 150.558 1541 151.05 1541 151.636C1541 152.223 1540.34 152.715 1539.55 152.715Z" fill="white"/>
</g>
<g opacity="0.2">
<path d="M1732.13 210.497H1780.4C1788.7 210.497 1795.43 203.753 1795.43 195.446C1795.43 187.139 1788.7 180.395 1780.4 180.395C1778.38 180.395 1776.41 180.791 1774.59 181.562C1773.58 178.694 1771.82 176.103 1769.47 174.106C1766.31 171.396 1762.28 169.893 1758.11 169.893C1748.47 169.893 1740.63 177.745 1740.63 187.396C1740.63 188.642 1741.63 189.631 1742.86 189.631C1744.08 189.631 1745.09 188.623 1745.09 187.396C1745.09 180.217 1750.92 174.383 1758.09 174.383C1764.47 174.383 1769.87 178.971 1770.91 185.28L1774.39 186.764C1776.17 185.537 1778.23 184.885 1780.38 184.885C1786.21 184.885 1790.93 189.631 1790.93 195.446C1790.93 201.28 1786.19 206.007 1780.38 206.007H1732.09C1730.85 206.007 1729.86 207.016 1729.86 208.242C1729.86 209.468 1730.88 210.497 1732.13 210.497Z" fill="white"/>
<path d="M1718.34 201.32H1762C1763.25 201.32 1764.24 200.311 1764.24 199.085C1764.24 197.839 1763.23 196.85 1762 196.85H1718.34C1717.09 196.85 1716.11 197.859 1716.11 199.085C1716.11 200.331 1717.11 201.32 1718.34 201.32Z" fill="white"/>
</g>
<g opacity="0.2">
<path d="M326.519 249C325.971 249 325.519 248.343 325.519 247.546V236.454C325.519 235.657 325.971 235 326.519 235C327.067 235 327.519 235.657 327.519 236.454V247.546C327.519 248.343 327.067 249 326.519 249Z" fill="white"/>
<path d="M332.064 242.715H320.972C320.174 242.715 319.518 242.223 319.518 241.636C319.518 241.05 320.174 240.558 320.972 240.558H332.064C332.861 240.558 333.518 241.05 333.518 241.636C333.518 242.223 332.861 242.715 332.064 242.715Z" fill="white"/>
</g>
<g opacity="0.4">
<path d="M956 620C955.452 620 955 619.343 955 618.546V607.454C955 606.657 955.452 606 956 606C956.549 606 957 606.657 957 607.454V618.546C957 619.343 956.549 620 956 620Z" fill="white"/>
<path d="M961.545 613.715H950.453C949.656 613.715 948.999 613.223 948.999 612.636C948.999 612.05 949.656 611.558 950.453 611.558H961.545C962.343 611.558 962.999 612.05 962.999 612.636C962.999 613.223 962.343 613.715 961.545 613.715Z" fill="white"/>
</g>
<g opacity="0.2">
<path d="M353.767 32.1194H397.432C398.677 32.1194 399.665 31.1108 399.665 29.8845C399.665 28.6385 398.657 27.6497 397.432 27.6497H353.767C352.522 27.6497 351.534 28.6583 351.534 29.8845C351.534 31.1108 352.542 32.1194 353.767 32.1194Z" fill="white"/>
<path d="M372.518 41.2964H420.807C429.105 41.2964 435.843 34.5522 435.843 26.2455C435.843 17.9388 429.105 11.1946 420.807 11.1946C418.792 11.1946 416.816 11.5902 414.998 12.3615C413.99 9.49373 412.232 6.90285 409.881 4.9053C406.719 2.19574 402.689 0.692627 398.52 0.692627C392.652 0.692627 387.238 3.67907 384.017 8.40595C382.219 6.4084 379.196 4.35151 374.395 4.35151C367.183 4.35151 361.335 10.2255 361.335 17.4246C361.335 18.6706 362.343 19.6595 363.568 19.6595C364.813 19.6595 365.8 18.6509 365.8 17.4246C365.8 12.678 369.653 8.84107 374.375 8.84107C380.303 8.84107 382.022 13.4295 382.081 13.6273V13.6075L386.309 13.6669C388.186 8.58396 393.086 5.18218 398.52 5.18218C404.902 5.18218 410.296 9.77063 411.343 16.0797L414.82 17.5631C416.598 16.3369 418.653 15.6842 420.807 15.6842C426.635 15.6842 431.358 20.4308 431.358 26.2455C431.358 32.08 426.616 36.8069 420.807 36.8069H372.518C371.273 36.8069 370.285 37.8155 370.285 39.0417C370.266 40.2877 371.273 41.2964 372.518 41.2964Z" fill="white"/>
</g>
<g opacity="0.05" clip-path="url(#clip1_213_785)">
<rect x="-73.5183" y="380.736" width="159.599" height="117.65" fill="#7700D1"/>
<path d="M56.6272 418.331L131.717 421.045L159.376 447.537L197.77 485.244L204.139 494.719L206.686 505.355L204.139 522.915L189.043 525.009L185.054 526.205L56.6272 529.26V418.331Z" fill="#7700D1"/>
<path d="M206.477 503.978C206.395 503.978 206.313 503.978 206.231 503.978C190.787 502.334 180.464 483.843 180.014 483.062L182.103 479.528H198.571C199.882 479.528 200.947 480.596 200.947 481.911C200.947 483.226 199.882 484.295 198.571 484.295H186.445C190.009 489.39 197.506 498.266 206.723 499.252C208.034 499.376 208.976 500.567 208.853 501.882C208.689 503.074 207.665 503.978 206.477 503.978Z" fill="white"/>
<path d="M195.334 527.483H184.97C183.659 527.483 182.594 526.415 182.594 525.1C182.594 523.785 183.659 522.716 184.97 522.716H195.334C200.783 522.716 205.207 518.278 205.207 512.813V499.047C205.207 493.006 201.151 484.829 196.4 481.172L196.236 481.048L134.42 424.422C131.06 421.916 129.053 421.916 124.342 421.998C123.523 421.998 122.622 422.039 121.679 422.039H89.522C88.2111 422.039 87.146 420.971 87.146 419.656C87.146 418.341 88.2111 417.272 89.522 417.272H121.679C122.622 417.272 123.482 417.272 124.301 417.231C129.34 417.149 132.658 417.108 137.369 420.683L137.533 420.806L199.349 477.391C205.289 481.993 209.959 491.486 209.959 499.006V512.772C210 520.867 203.405 527.483 195.334 527.483Z" fill="white"/>
<path d="M134.215 527.483H88.457C87.1461 527.483 86.0811 526.415 86.0811 525.1C86.0811 523.785 87.1461 522.716 88.457 522.716H134.215C135.526 522.716 136.591 523.785 136.591 525.1C136.591 526.415 135.526 527.483 134.215 527.483Z" fill="white"/>
<path d="M159.572 553.001C144.292 553.001 131.839 540.509 131.839 525.182C131.839 509.854 144.292 497.362 159.572 497.362C174.852 497.362 187.305 509.854 187.305 525.182C187.346 540.509 174.893 553.001 159.572 553.001ZM159.572 502.129C146.914 502.129 136.591 512.484 136.591 525.182C136.591 537.879 146.914 548.235 159.572 548.235C172.23 548.235 182.553 537.879 182.553 525.182C182.553 512.484 172.271 502.129 159.572 502.129Z" fill="white"/>
<path d="M159.572 538.865C152.034 538.865 145.931 532.742 145.931 525.181C145.931 517.62 152.034 511.498 159.572 511.498C167.11 511.498 173.213 517.62 173.213 525.181C173.213 532.742 167.11 538.865 159.572 538.865ZM159.572 516.264C154.656 516.264 150.683 520.25 150.683 525.181C150.683 530.113 154.656 534.099 159.572 534.099C164.488 534.099 168.461 530.113 168.461 525.181C168.461 520.25 164.488 516.264 159.572 516.264Z" fill="white"/>
<path d="M135.69 502.129H102.262C100.951 502.129 99.8862 501.06 99.8862 499.745C99.8862 498.43 100.951 497.362 102.262 497.362H135.69C137.001 497.362 138.066 498.43 138.066 499.745C138.066 501.06 137.001 502.129 135.69 502.129Z" fill="white"/>
<path d="M167.642 468.72H102.262L99.886 466.337V430.874L102.262 428.491H130.036L131.675 429.148L169.281 464.611L167.642 468.72ZM104.638 463.954H161.661L129.094 433.257H104.638V463.954V463.954Z" fill="white"/>
<path d="M88.334 526.086C87.0231 526.086 85.958 525.017 85.958 523.703V419.943C85.958 418.628 87.0231 417.56 88.334 417.56C89.6448 417.56 90.7099 418.628 90.7099 419.943V523.703C90.7099 525.017 89.6448 526.086 88.334 526.086Z" fill="white"/>
<path d="M106.523 527.483H12.3851C11.0742 527.483 10.0091 526.415 10.0091 525.1C10.0091 523.785 11.0742 522.716 12.3851 522.716H106.523C107.833 522.716 108.898 523.785 108.898 525.1C108.898 526.415 107.833 527.483 106.523 527.483Z" fill="white"/>
<path d="M-12.9723 553.001C-28.2522 553.001 -40.7056 540.509 -40.7056 525.182C-40.7056 509.854 -28.2522 497.362 -12.9723 497.362C2.30766 497.362 14.761 509.854 14.761 525.182C14.761 540.509 2.30766 553.001 -12.9723 553.001ZM-12.9723 502.129C-25.6305 502.129 -35.9536 512.484 -35.9536 525.182C-35.9536 537.879 -25.6305 548.235 -12.9723 548.235C-0.314098 548.235 10.0091 537.879 10.0091 525.182C10.0091 512.484 -0.314098 502.129 -12.9723 502.129Z" fill="white"/>
<path d="M-12.9722 538.865C-20.5097 538.865 -26.6135 532.742 -26.6135 525.181C-26.6135 517.62 -20.5097 511.498 -12.9722 511.498C-5.43464 511.498 0.669136 517.62 0.669136 525.181C0.669136 532.742 -5.47561 538.865 -12.9722 538.865ZM-12.9722 516.264C-17.888 516.264 -21.8616 520.25 -21.8616 525.181C-21.8616 530.113 -17.888 534.099 -12.9722 534.099C-8.0564 534.099 -4.08279 530.113 -4.08279 525.181C-4.08279 520.25 -8.09736 516.264 -12.9722 516.264Z" fill="white"/>
<rect x="184.894" y="526.478" width="2.75615" height="8.71269" transform="rotate(-90 184.894 526.478)" fill="white"/>
<rect x="104.569" y="526.478" width="2.75615" height="28.6644" transform="rotate(-90 104.569 526.478)" fill="white"/>
<rect x="12.6561" y="526.478" width="2.75615" height="28.6644" transform="rotate(-90 12.6561 526.478)" fill="white"/>
<path d="M116.436 450.968C115.904 450.968 115.33 450.763 114.879 450.393C113.896 449.53 113.773 448.051 114.634 447.023L129.053 430.052C129.914 429.066 131.388 428.943 132.412 429.806C133.396 430.669 133.518 432.148 132.658 433.175L118.239 450.146C117.788 450.722 117.092 450.968 116.436 450.968Z" fill="white"/>
<path d="M117.296 468.721C116.764 468.721 116.19 468.515 115.74 468.145C114.756 467.282 114.633 465.803 115.494 464.776L131.798 445.585C132.658 444.599 134.133 444.476 135.157 445.339C136.14 446.202 136.263 447.681 135.403 448.708L119.14 467.899C118.648 468.433 117.993 468.721 117.296 468.721Z" fill="white"/>
<path d="M113.282 475.172H102.262V479.939H113.282V475.172Z" fill="white"/>
<path fill-rule="evenodd" clip-rule="evenodd" d="M-75.9429 412.615V499.745L-73.5669 502.129H88.7772L91.1532 499.745V412.615H86.4012V497.362H-71.1909V412.615H-75.9429ZM-31.0906 381.768H43.9997V377.001H-31.0906V381.768Z" fill="white"/>
<rect x="200.488" y="480.534" width="2.75615" height="5.30178" transform="rotate(90 200.488 480.534)" fill="white"/>
<rect x="208.243" y="500.037" width="2.78785" height="3.15145" transform="rotate(90 208.243 500.037)" fill="white"/>
<rect x="123.75" y="464.967" width="2.75342" height="8.83124" transform="rotate(90 123.75 464.967)" fill="white"/>
<path d="M-37.5705 430.722C-36.1188 430.722 -35.0204 431.116 -34.2753 431.903C-33.5174 432.677 -33.1384 433.817 -33.1384 435.325V440.128C-33.1384 441.636 -33.5174 442.783 -34.2753 443.57C-35.0204 444.344 -36.1188 444.731 -37.5705 444.731H-45.0857V430.722H-37.5705ZM-36.607 435.325C-36.607 434.124 -37.1851 433.524 -38.3413 433.524H-41.6171V441.929H-38.3413C-37.1851 441.929 -36.607 441.329 -36.607 440.128V435.325Z" fill="white"/>
<path d="M-21.9672 434.525C-21.9672 433.724 -22.3526 433.324 -23.1234 433.324H-26.3993C-27.17 433.324 -27.5554 433.724 -27.5554 434.525V440.929C-27.5554 441.729 -27.17 442.13 -26.3993 442.13H-23.1234C-22.3526 442.13 -21.9672 441.729 -21.9672 440.929V434.525ZM-18.4986 440.929C-18.4986 442.33 -18.807 443.35 -19.4236 443.991C-20.0274 444.618 -21.0037 444.931 -22.3526 444.931H-27.17C-28.5189 444.931 -29.5017 444.618 -30.1183 443.991C-30.7221 443.35 -31.024 442.33 -31.024 440.929V434.525C-31.024 433.124 -30.7221 432.11 -30.1183 431.483C-29.5017 430.842 -28.5189 430.522 -27.17 430.522H-22.3526C-21.0037 430.522 -20.0274 430.842 -19.4236 431.483C-18.807 432.11 -18.4986 433.124 -18.4986 434.525V440.929Z" fill="white"/>
<path d="M-16.3892 441.829C-12.8692 442.029 -10.4862 442.13 -9.2401 442.13C-8.94463 442.13 -8.71339 442.043 -8.54639 441.869C-8.36654 441.683 -8.27661 441.436 -8.27661 441.129V439.328H-12.7087C-14.0576 439.328 -15.0403 439.014 -15.6569 438.387C-16.2607 437.747 -16.5626 436.726 -16.5626 435.325V434.725C-16.5626 433.324 -16.2607 432.31 -15.6569 431.683C-15.0403 431.042 -14.0576 430.722 -12.7087 430.722H-5.94497V433.524H-11.9379C-12.7087 433.524 -13.0941 433.924 -13.0941 434.725V435.125C-13.0941 435.925 -12.7087 436.326 -11.9379 436.326H-8.46931C-7.21035 436.326 -6.2854 436.633 -5.69446 437.246C-5.10352 437.86 -4.80805 438.821 -4.80805 440.128V441.129C-4.80805 442.436 -5.10352 443.397 -5.69446 444.011C-6.2854 444.624 -7.21035 444.931 -8.46931 444.931C-9.12448 444.931 -9.81819 444.918 -10.5504 444.891L-12.3233 444.811C-13.6336 444.745 -14.9889 444.651 -16.3892 444.531V441.829Z" fill="white"/>
<path d="M3.09483 444.731H-0.373732V433.524H-4.42039V430.722H7.14149V433.524H3.09483V444.731Z" fill="white"/>
<path d="M10.1245 444.731H6.36693L11.4734 430.722H15.3274L20.4339 444.731H16.6763L15.8091 442.23H10.9917L10.1245 444.731ZM11.8588 439.628H14.942L13.4004 434.925L11.8588 439.628Z" fill="white"/>
<path d="M26.3044 440.528L29.5803 430.722H33.3379L28.2314 444.731H24.3774L19.2709 430.722H23.0285L26.3044 440.528Z" fill="white"/>
<path d="M45.5734 444.731H34.8787V430.722H45.5734V433.524H38.3473V436.226H44.0319V439.027H38.3473V441.929H45.5734V444.731Z" fill="white"/>
<path d="M47.6886 430.722H55.7819C57.1308 430.722 58.1072 431.042 58.7109 431.683C59.3276 432.31 59.6359 433.324 59.6359 434.725V436.526C59.6359 437.633 59.456 438.494 59.0963 439.108C58.7495 439.721 58.1907 440.128 57.4199 440.328L59.8286 444.731H56.071L53.855 440.528H51.1572V444.731H47.6886V430.722ZM56.1673 434.725C56.1673 433.924 55.7819 433.524 55.0111 433.524H51.1572V437.727H55.0111C55.7819 437.727 56.1673 437.326 56.1673 436.526V434.725Z" fill="white"/>
<rect x="94.9202" y="418.271" width="2.75621" height="7.53412" transform="rotate(90 94.9202 418.271)" fill="white"/>
<rect x="86.9702" y="498.913" width="2.75615" height="25.9179" fill="white"/>
<path fill-rule="evenodd" clip-rule="evenodd" d="M27.4292 381.801H54.1268C71.8379 381.801 86.2157 396.073 86.3879 413.743H91.1881C91.0157 393.422 74.4889 377.001 54.1268 377.001H27.4292C25.801 377.001 24.1972 377.106 22.6244 377.31H26.5059V381.814C26.8127 381.806 27.1204 381.801 27.4292 381.801Z" fill="white"/>
</g>
<defs>
<clipPath id="clip0_213_785">
<rect width="1963" height="436" fill="white" transform="matrix(-1 0 0 1 1916 124)"/>
</clipPath>
<clipPath id="clip1_213_785">
<rect width="360" height="176" fill="white" transform="translate(-150 377.001)"/>
</clipPath>
</defs>
</svg>