<svg xmlns="http://www.w3.org/2000/svg" width="1920" height="478" viewBox="0 0 1920 478" fill="none">
<g opacity="0.05" clip-path="url(#clip0_212_782)">
<path d="M272.191 456.078C270.384 456.078 268.932 454.636 268.932 452.84V325.484C268.932 323.688 270.384 322.245 272.191 322.245C273.998 322.245 275.45 323.688 275.45 325.484V452.84C275.45 454.636 273.998 456.078 272.191 456.078Z" fill="white"/>
<path d="M290.784 328.722H253.598C248.258 328.722 243.904 324.395 243.904 319.089V295.223C243.904 289.916 248.258 285.589 253.598 285.589H290.784C296.124 285.589 300.478 289.916 300.478 295.223V319.089C300.478 324.422 296.124 328.722 290.784 328.722ZM253.598 292.093C251.845 292.093 250.449 293.508 250.449 295.223V319.089C250.449 320.83 251.873 322.218 253.598 322.218H290.784C292.537 322.218 293.933 320.803 293.933 319.089V295.223C293.933 293.481 292.51 292.093 290.784 292.093H253.598Z" fill="white"/>
<path d="M285.691 304.285H271.862C270.055 304.285 268.604 302.842 268.604 301.046C268.604 299.25 270.055 297.808 271.862 297.808H285.691C287.498 297.808 288.95 299.25 288.95 301.046C288.95 302.842 287.498 304.285 285.691 304.285Z" fill="white"/>
<path d="M262.47 304.285H258.691C256.884 304.285 255.432 302.842 255.432 301.046C255.432 299.25 256.884 297.808 258.691 297.808H262.47C264.277 297.808 265.728 299.25 265.728 301.046C265.756 302.842 264.277 304.285 262.47 304.285Z" fill="white"/>
<path d="M285.691 316.558H271.862C270.055 316.558 268.604 315.115 268.604 313.319C268.604 311.523 270.055 310.081 271.862 310.081H285.691C287.498 310.081 288.95 311.523 288.95 313.319C288.95 315.088 287.498 316.558 285.691 316.558Z" fill="white"/>
<path d="M262.47 316.558H258.691C256.884 316.558 255.432 315.115 255.432 313.319C255.432 311.523 256.884 310.081 258.691 310.081H262.47C264.277 310.081 265.728 311.523 265.728 313.319C265.756 315.088 264.277 316.558 262.47 316.558Z" fill="white"/>
<path d="M241.22 269.643L239.331 263.765H-86.5602L-88.4497 269.643L-66.4608 285.344V453.629L-63.2021 456.867H215.945L219.204 453.629V285.344L241.22 269.643ZM229.199 270.241L214.905 280.446H-62.1342L-76.4284 270.241H229.199ZM31.3531 286.923V404.646H-7.1207L-10.3793 407.884V422.116L-7.1207 425.355H31.3805V450.391H-45.6219V286.923H31.3531ZM114.873 286.923V404.646H37.8978V286.923H114.873ZM118.214 418.878C118.186 418.878 118.159 418.878 118.131 418.878C118.104 418.878 118.077 418.878 118.049 418.878H34.6939C34.6665 418.878 34.6391 418.878 34.6117 418.878C34.5844 418.878 34.557 418.878 34.5296 418.878H-3.86208V411.15H156.633V418.878H118.214ZM37.8978 425.355H114.9V450.391H37.8978V425.355ZM121.39 425.355H159.891L163.15 422.116V407.884L159.891 404.646H121.39V286.923H198.392V450.391H121.39V425.355ZM-59.9435 286.923H-52.1666V450.391H-59.9435V286.923ZM212.714 450.391H204.91V286.923H212.687V450.391H212.714Z" fill="white"/>
<path d="M1919.84 456.546H1481.31C1479.81 456.546 1478.6 455.864 1478.6 455.015C1478.6 454.166 1479.81 453.484 1481.31 453.484H1919.84C1921.35 453.484 1922.55 454.166 1922.55 455.015C1922.55 455.851 1921.35 456.546 1919.84 456.546Z" fill="white"/>
<path d="M488.564 456.546H50.0333C48.531 456.546 47.3246 455.864 47.3246 455.015C47.3246 454.166 48.531 453.484 50.0333 453.484H488.564C490.066 453.484 491.273 454.166 491.273 455.015C491.273 455.851 490.066 456.546 488.564 456.546Z" fill="white"/>
<path d="M13.5409 210.014C11.7288 210.014 10.2737 208.554 10.2737 206.736V187.202C10.2737 185.384 11.7288 183.924 13.5409 183.924C15.3529 183.924 16.8081 185.384 16.8081 187.202V206.736C16.8081 208.554 15.3529 210.014 13.5409 210.014Z" fill="white"/>
<path d="M13.5409 249.549C11.7288 249.549 10.2737 248.089 10.2737 246.271V226.737C10.2737 224.919 11.7288 223.459 13.5409 223.459C15.3529 223.459 16.8081 224.919 16.8081 226.737V246.271C16.8081 248.089 15.3529 249.549 13.5409 249.549Z" fill="white"/>
<path d="M13.541 170.506C11.729 170.506 10.2739 169.046 10.2739 167.228V147.694C10.2739 145.876 11.729 144.416 13.541 144.416C15.3531 144.416 16.8082 145.876 16.8082 147.694V167.228C16.8082 169.018 15.3531 170.506 13.541 170.506Z" fill="white"/>
<path d="M40.9962 210.014C39.1842 210.014 37.7291 208.554 37.7291 206.736V187.202C37.7291 185.384 39.1842 183.924 40.9962 183.924C42.8082 183.924 44.2633 185.384 44.2633 187.202V206.736C44.2633 208.554 42.8082 210.014 40.9962 210.014Z" fill="white"/>
<path d="M40.9962 249.549C39.1842 249.549 37.7291 248.089 37.7291 246.271V226.737C37.7291 224.919 39.1842 223.459 40.9962 223.459C42.8082 223.459 44.2633 224.919 44.2633 226.737V246.271C44.2633 248.089 42.8082 249.549 40.9962 249.549Z" fill="white"/>
<path d="M40.9962 170.506C39.1842 170.506 37.7291 169.046 37.7291 167.228V147.694C37.7291 145.876 39.1842 144.416 40.9962 144.416C42.8082 144.416 44.2633 145.876 44.2633 147.694V167.228C44.2633 169.018 42.8082 170.506 40.9962 170.506Z" fill="white"/>
<path d="M68.4515 210.014C66.6394 210.014 65.1843 208.554 65.1843 206.736V187.202C65.1843 185.384 66.6394 183.924 68.4515 183.924C70.2635 183.924 71.7187 185.384 71.7187 187.202V206.736C71.7187 208.554 70.2635 210.014 68.4515 210.014Z" fill="white"/>
<path d="M68.4515 249.549C66.6394 249.549 65.1843 248.089 65.1843 246.271V226.737C65.1843 224.919 66.6394 223.459 68.4515 223.459C70.2635 223.459 71.7187 224.919 71.7187 226.737V246.271C71.7187 248.089 70.2635 249.549 68.4515 249.549Z" fill="white"/>
<path d="M68.4515 170.506C66.6394 170.506 65.1843 169.046 65.1843 167.228V147.694C65.1843 145.876 66.6394 144.416 68.4515 144.416C70.2635 144.416 71.7187 145.876 71.7187 147.694V167.228C71.7187 169.018 70.2635 170.506 68.4515 170.506Z" fill="white"/>
<path d="M99.1189 269.413C97.3069 269.413 95.8518 267.953 95.8518 266.135V128.96H-13.8594V266.135C-13.8594 267.953 -15.3146 269.413 -17.1267 269.413C-18.9387 269.413 -20.3938 267.953 -20.3938 266.135V125.681L-17.1267 122.403H99.1189L102.386 125.681V266.135C102.386 267.953 100.931 269.413 99.1189 269.413Z" fill="white"/>
</g>
<g opacity="0.05" clip-path="url(#clip1_212_782)">
<rect width="159.599" height="117.65" transform="matrix(-1 0 0 1 1879.33 281.749)" fill="#7700D1"/>
<path d="M1749.18 319.344L1674.09 322.059L1646.43 348.55L1608.04 386.257L1601.67 395.733L1599.12 406.368L1601.67 423.928L1616.76 426.022L1620.75 427.218L1749.18 430.273V319.344Z" fill="#7700D1"/>
<path d="M1909.31 320.299H1930.7C1932.09 320.299 1933.24 319.148 1933.24 317.751C1933.24 316.354 1932.09 315.203 1930.7 315.203H1909.31C1907.92 315.203 1906.77 316.354 1906.77 317.751C1906.77 319.148 1907.92 320.299 1909.31 320.299Z" fill="white"/>
<path d="M1909.31 373.925H1930.7C1932.09 373.925 1933.24 372.774 1933.24 371.377C1933.24 369.98 1932.09 368.829 1930.7 368.829H1909.31C1907.92 368.829 1906.77 369.98 1906.77 371.377C1906.77 372.774 1907.92 373.925 1909.31 373.925Z" fill="white"/>
<path d="M1599.33 404.991C1599.41 404.991 1599.49 404.991 1599.58 404.991C1615.02 403.347 1625.34 384.856 1625.79 384.075L1623.7 380.541H1607.24C1605.93 380.541 1604.86 381.609 1604.86 382.924C1604.86 384.239 1605.93 385.308 1607.24 385.308H1619.36C1615.8 390.403 1608.3 399.279 1599.08 400.265C1597.77 400.389 1596.83 401.58 1596.95 402.895C1597.12 404.087 1598.14 404.991 1599.33 404.991Z" fill="white"/>
<path d="M1610.47 428.496H1620.84C1622.15 428.496 1623.21 427.428 1623.21 426.113C1623.21 424.798 1622.15 423.729 1620.84 423.729H1610.47C1605.02 423.729 1600.6 419.291 1600.6 413.826V400.06C1600.6 394.019 1604.66 385.842 1609.41 382.185L1609.57 382.061L1671.39 325.436C1674.75 322.929 1676.75 322.929 1681.46 323.011C1682.28 323.011 1683.19 323.052 1684.13 323.052H1716.28C1717.6 323.052 1718.66 321.984 1718.66 320.669C1718.66 319.354 1717.6 318.286 1716.28 318.286H1684.13C1683.19 318.286 1682.32 318.286 1681.51 318.244C1676.47 318.162 1673.15 318.121 1668.44 321.696L1668.27 321.82L1606.46 378.404C1600.52 383.007 1595.85 392.499 1595.85 400.019V413.785C1595.81 421.88 1602.4 428.496 1610.47 428.496Z" fill="white"/>
<path d="M1671.59 428.496H1717.35C1718.66 428.496 1719.73 427.428 1719.73 426.113C1719.73 424.798 1718.66 423.729 1717.35 423.729H1671.59C1670.28 423.729 1669.22 424.798 1669.22 426.113C1669.22 427.428 1670.28 428.496 1671.59 428.496Z" fill="white"/>
<path d="M1646.23 454.015C1661.51 454.015 1673.97 441.522 1673.97 426.195C1673.97 410.867 1661.51 398.375 1646.23 398.375C1630.95 398.375 1618.5 410.867 1618.5 426.195C1618.46 441.522 1630.91 454.015 1646.23 454.015ZM1646.23 403.142C1658.89 403.142 1669.22 413.497 1669.22 426.195C1669.22 438.892 1658.89 449.248 1646.23 449.248C1633.58 449.248 1623.25 438.892 1623.25 426.195C1623.25 413.497 1633.54 403.142 1646.23 403.142Z" fill="white"/>
<path d="M1646.23 439.878C1653.77 439.878 1659.88 433.756 1659.88 426.195C1659.88 418.634 1653.77 412.511 1646.23 412.511C1638.7 412.511 1632.59 418.634 1632.59 426.195C1632.59 433.756 1638.7 439.878 1646.23 439.878ZM1646.23 417.277C1651.15 417.277 1655.12 421.263 1655.12 426.195C1655.12 431.126 1651.15 435.112 1646.23 435.112C1641.32 435.112 1637.35 431.126 1637.35 426.195C1637.35 421.263 1641.32 417.277 1646.23 417.277Z" fill="white"/>
<path d="M1670.12 403.142H1703.54C1704.86 403.142 1705.92 402.073 1705.92 400.758C1705.92 399.443 1704.86 398.375 1703.54 398.375H1670.12C1668.81 398.375 1667.74 399.443 1667.74 400.758C1667.74 402.073 1668.81 403.142 1670.12 403.142Z" fill="white"/>
<path d="M1638.16 369.734H1703.54L1705.92 367.35V331.887L1703.54 329.504H1675.77L1674.13 330.161L1636.53 365.624L1638.16 369.734ZM1701.17 364.967H1644.15L1676.71 334.271H1701.17V364.967Z" fill="white"/>
<path d="M1717.47 427.099C1718.78 427.099 1719.85 426.031 1719.85 424.716V320.957C1719.85 319.642 1718.78 318.573 1717.47 318.573C1716.16 318.573 1715.1 319.642 1715.1 320.957V424.716C1715.1 426.031 1716.16 427.099 1717.47 427.099Z" fill="white"/>
<path d="M1699.28 428.496H1793.42C1794.73 428.496 1795.8 427.428 1795.8 426.113C1795.8 424.798 1794.73 423.729 1793.42 423.729H1699.28C1697.97 423.729 1696.91 424.798 1696.91 426.113C1696.91 427.428 1697.97 428.496 1699.28 428.496Z" fill="white"/>
<path d="M1844.14 428.496H1847.66C1855.28 428.496 1861.46 422.291 1861.46 414.648V400.758C1861.46 399.443 1860.4 398.375 1859.09 398.375C1857.78 398.375 1856.71 399.443 1856.71 400.758V414.648C1856.71 419.661 1852.66 423.729 1847.66 423.729H1844.14C1842.83 423.729 1841.76 424.798 1841.76 426.113C1841.76 427.428 1842.83 428.496 1844.14 428.496Z" fill="white"/>
<path d="M1818.78 454.015C1834.06 454.015 1846.51 441.522 1846.51 426.195C1846.51 410.867 1834.06 398.375 1818.78 398.375C1803.5 398.375 1791.05 410.867 1791.05 426.195C1791.05 441.522 1803.5 454.015 1818.78 454.015ZM1818.78 403.142C1831.44 403.142 1841.76 413.497 1841.76 426.195C1841.76 438.892 1831.44 449.248 1818.78 449.248C1806.12 449.248 1795.8 438.892 1795.8 426.195C1795.8 413.497 1806.12 403.142 1818.78 403.142Z" fill="white"/>
<path d="M1818.78 439.878C1826.32 439.878 1832.42 433.756 1832.42 426.195C1832.42 418.634 1826.32 412.511 1818.78 412.511C1811.24 412.511 1805.14 418.634 1805.14 426.195C1805.14 433.756 1811.28 439.878 1818.78 439.878ZM1818.78 417.277C1823.69 417.277 1827.67 421.263 1827.67 426.195C1827.67 431.126 1823.69 435.112 1818.78 435.112C1813.86 435.112 1809.89 431.126 1809.89 426.195C1809.89 421.263 1813.9 417.277 1818.78 417.277Z" fill="white"/>
<rect width="2.75615" height="8.71269" transform="matrix(4.37114e-08 -1 -1 -4.37114e-08 1620.91 427.491)" fill="white"/>
<rect width="2.75615" height="28.6644" transform="matrix(4.37114e-08 -1 -1 -4.37114e-08 1701.24 427.491)" fill="white"/>
<rect width="2.75615" height="28.6644" transform="matrix(4.37114e-08 -1 -1 -4.37114e-08 1793.15 427.491)" fill="white"/>
<path d="M1689.37 351.982C1689.9 351.982 1690.48 351.776 1690.93 351.406C1691.91 350.543 1692.03 349.064 1691.17 348.037L1676.75 331.065C1675.89 330.079 1674.42 329.956 1673.39 330.819C1672.41 331.682 1672.29 333.161 1673.15 334.188L1687.57 351.16C1688.02 351.735 1688.72 351.982 1689.37 351.982Z" fill="white"/>
<path d="M1688.51 369.734C1689.04 369.734 1689.62 369.528 1690.07 369.158C1691.05 368.295 1691.17 366.816 1690.31 365.789L1674.01 346.599C1673.15 345.612 1671.67 345.489 1670.65 346.352C1669.67 347.215 1669.54 348.694 1670.4 349.722L1686.67 368.912C1687.16 369.446 1687.81 369.734 1688.51 369.734Z" fill="white"/>
<path d="M1692.53 376.185H1703.54V380.952H1692.53V376.185Z" fill="white"/>
<path fill-rule="evenodd" clip-rule="evenodd" d="M1881.75 313.628V400.759L1879.37 403.142H1717.03L1714.65 400.759V313.628H1719.41V398.375H1877V313.628H1881.75ZM1836.9 282.781H1761.81V278.015H1836.9V282.781Z" fill="white"/>
<rect width="2.75615" height="5.30178" transform="matrix(4.37114e-08 1 1 -4.37114e-08 1605.32 381.548)" fill="white"/>
<rect width="2.78785" height="3.15145" transform="matrix(4.37114e-08 1 1 -4.37114e-08 1597.56 401.051)" fill="white"/>
<rect width="2.75342" height="8.83124" transform="matrix(4.37114e-08 1 1 -4.37114e-08 1682.06 365.98)" fill="white"/>
<path d="M1753.49 331.735C1754.95 331.735 1756.04 332.129 1756.79 332.916C1757.55 333.69 1757.93 334.831 1757.93 336.338V341.141C1757.93 342.649 1757.55 343.796 1756.79 344.584C1756.04 345.357 1754.95 345.744 1753.49 345.744H1745.98V331.735H1753.49ZM1754.46 336.338C1754.46 335.137 1753.88 334.537 1752.72 334.537H1749.45V342.943H1752.72C1753.88 342.943 1754.46 342.342 1754.46 341.141V336.338Z" fill="white"/>
<path d="M1769.1 335.538C1769.1 334.737 1768.71 334.337 1767.94 334.337H1764.66C1763.89 334.337 1763.51 334.737 1763.51 335.538V341.942C1763.51 342.742 1763.89 343.143 1764.66 343.143H1767.94C1768.71 343.143 1769.1 342.742 1769.1 341.942V335.538ZM1772.57 341.942C1772.57 343.343 1772.26 344.363 1771.64 345.004C1771.04 345.631 1770.06 345.945 1768.71 345.945H1763.89C1762.55 345.945 1761.56 345.631 1760.95 345.004C1760.34 344.363 1760.04 343.343 1760.04 341.942V335.538C1760.04 334.137 1760.34 333.123 1760.95 332.496C1761.56 331.855 1762.55 331.535 1763.89 331.535H1768.71C1770.06 331.535 1771.04 331.855 1771.64 332.496C1772.26 333.123 1772.57 334.137 1772.57 335.538V341.942Z" fill="white"/>
<path d="M1774.67 342.842C1778.19 343.043 1780.58 343.143 1781.82 343.143C1782.12 343.143 1782.35 343.056 1782.52 342.883C1782.7 342.696 1782.79 342.449 1782.79 342.142V340.341H1778.36C1777.01 340.341 1776.02 340.027 1775.41 339.4C1774.8 338.76 1774.5 337.739 1774.5 336.338V335.738C1774.5 334.337 1774.8 333.323 1775.41 332.696C1776.02 332.055 1777.01 331.735 1778.36 331.735H1785.12V334.537H1779.13C1778.36 334.537 1777.97 334.937 1777.97 335.738V336.138C1777.97 336.939 1778.36 337.339 1779.13 337.339H1782.59C1783.85 337.339 1784.78 337.646 1785.37 338.26C1785.96 338.873 1786.26 339.834 1786.26 341.141V342.142C1786.26 343.45 1785.96 344.41 1785.37 345.024C1784.78 345.638 1783.85 345.945 1782.59 345.945C1781.94 345.945 1781.25 345.931 1780.51 345.904L1778.74 345.824C1777.43 345.758 1776.08 345.664 1774.67 345.544V342.842Z" fill="white"/>
<path d="M1794.16 345.744H1790.69V334.537H1786.64V331.735H1798.21V334.537H1794.16V345.744Z" fill="white"/>
<path d="M1801.19 345.744H1797.43L1802.54 331.735H1806.39L1811.5 345.744H1807.74L1806.87 343.243H1802.06L1801.19 345.744ZM1802.92 340.641H1806.01L1804.46 335.938L1802.92 340.641Z" fill="white"/>
<path d="M1817.37 341.542L1820.64 331.735H1824.4L1819.3 345.744H1815.44L1810.33 331.735H1814.09L1817.37 341.542Z" fill="white"/>
<path d="M1836.64 345.744H1825.94V331.735H1836.64V334.537H1829.41V337.239H1835.1V340.041H1829.41V342.943H1836.64V345.744Z" fill="white"/>
<path d="M1838.75 331.735H1846.85C1848.19 331.735 1849.17 332.055 1849.77 332.696C1850.39 333.323 1850.7 334.337 1850.7 335.738V337.539C1850.7 338.646 1850.52 339.507 1850.16 340.121C1849.81 340.734 1849.25 341.141 1848.48 341.342L1850.89 345.744H1847.13L1844.92 341.542H1842.22V345.744H1838.75V331.735ZM1847.23 335.738C1847.23 334.937 1846.85 334.537 1846.08 334.537H1842.22V338.74H1846.08C1846.85 338.74 1847.23 338.34 1847.23 337.539V335.738Z" fill="white"/>
<rect width="2.75621" height="7.53412" transform="matrix(4.37114e-08 1 1 -4.37114e-08 1710.89 319.284)" fill="white"/>
<rect width="2.75615" height="25.9179" transform="matrix(-1 0 0 1 1718.84 399.926)" fill="white"/>
<path fill-rule="evenodd" clip-rule="evenodd" d="M1778.38 282.815H1751.68C1733.97 282.815 1719.59 297.086 1719.42 314.756H1714.62C1714.79 294.435 1731.32 278.015 1751.68 278.015H1778.38C1780.01 278.015 1781.61 278.12 1783.18 278.323H1779.3V282.828C1778.99 282.819 1778.69 282.815 1778.38 282.815Z" fill="white"/>
<path fill-rule="evenodd" clip-rule="evenodd" d="M1817.99 282.815H1844.69C1862.4 282.815 1876.78 297.086 1876.95 314.756H1881.75C1881.58 294.435 1865.05 278.015 1844.69 278.015H1817.99C1816.36 278.015 1814.76 278.12 1813.19 278.323H1817.07V282.828C1817.37 282.819 1817.68 282.815 1817.99 282.815Z" fill="white"/>
</g>
<g opacity="0.2">
<path d="M1602.81 122C1602.26 122 1601.81 121.343 1601.81 120.546V109.454C1601.81 108.657 1602.26 108 1602.81 108C1603.35 108 1603.81 108.657 1603.81 109.454V120.546C1603.81 121.343 1603.35 122 1602.81 122Z" fill="white"/>
<path d="M1608.35 115.715H1597.26C1596.46 115.715 1595.81 115.223 1595.81 114.636C1595.81 114.05 1596.46 113.558 1597.26 113.558H1608.35C1609.15 113.558 1609.81 114.05 1609.81 114.636C1609.81 115.223 1609.15 115.715 1608.35 115.715Z" fill="white"/>
</g>
<g opacity="0.2">
<path d="M281.997 41.4323H330.265C338.564 41.4323 345.301 34.6881 345.301 26.3814C345.301 18.0747 338.564 11.3305 330.265 11.3305C328.25 11.3305 326.274 11.7261 324.457 12.4974C323.449 9.62961 321.69 7.03871 319.339 5.04116C316.178 2.3316 312.147 0.828491 307.978 0.828491C298.336 0.828491 290.492 8.68027 290.492 18.3318C290.492 19.5778 291.5 20.5667 292.725 20.5667C293.95 20.5667 294.958 19.5581 294.958 18.3318C294.958 11.1525 300.786 5.31805 307.959 5.31805C314.34 5.31805 319.734 9.90649 320.782 16.2156L324.259 17.6989C326.037 16.4727 328.092 15.8201 330.246 15.8201C336.074 15.8201 340.797 20.5667 340.797 26.3814C340.797 32.2158 336.055 36.9427 330.246 36.9427H281.957C280.712 36.9427 279.724 37.9514 279.724 39.1776C279.724 40.4038 280.752 41.4323 281.997 41.4323Z" fill="white"/>
<path d="M268.206 32.2553H311.871C313.116 32.2553 314.104 31.2466 314.104 30.0204C314.104 28.7744 313.096 27.7855 311.871 27.7855H268.206C266.961 27.7855 265.973 28.7942 265.973 30.0204C265.973 31.2664 266.981 32.2553 268.206 32.2553Z" fill="white"/>
</g>
<defs>
<clipPath id="clip0_212_782">
<rect width="2228" height="334" fill="white" transform="translate(-194 144)"/>
</clipPath>
<clipPath id="clip1_212_782">
<rect width="360" height="176" fill="white" transform="matrix(-1 0 0 1 1955.81 278.015)"/>
</clipPath>
</defs>
</svg>